<svg width="2399" height="628" viewBox="0 0 2399 628" fill="none" xmlns="http://www.w3.org/2000/svg">
	<path d="M1789.86 315.722C1797.07 293.584 1803.41 275.176 1803.96 274.806C1804.51 274.436 1805.5 275.106 1806.17 276.306C1806.85 277.496 1813.11 295.574 1832.74 354.469L1839.51 355.209C1843.23 355.619 1862.59 355.959 1882.53 355.959C1913.88 355.969 1918.87 356.169 1919.3 357.469C1919.65 358.519 1914.77 362.478 1903.04 370.658C1893.83 377.087 1878.28 387.996 1868.5 394.905C1858.71 401.815 1850.73 408.024 1850.74 408.714C1850.76 409.404 1856.4 427.403 1863.29 448.711C1870.17 470.019 1875.8 487.797 1875.79 488.207C1875.78 488.617 1875.11 489.187 1874.28 489.457C1873.39 489.757 1859.17 480.218 1839.27 465.959C1820.84 452.76 1805.3 441.961 1804.75 441.961C1804.2 441.961 1790.59 451.48 1774.49 463.119C1758.39 474.758 1743.2 485.787 1740.73 487.647C1738.25 489.497 1735.43 491.007 1734.47 490.987C1733.31 490.967 1732.87 490.374 1733.16 489.207C1733.41 488.247 1738.13 472.949 1743.67 455.21C1749.2 437.472 1753.73 422.513 1753.73 421.963C1753.73 421.303 1752.28 421.323 1749.48 422.013C1747.14 422.593 1744.1 423.243 1742.73 423.443C1741.35 423.643 1739.32 424.053 1738.22 424.363C1737.12 424.663 1734.19 425.433 1731.72 426.063C1729.25 426.703 1726.21 427.163 1724.97 427.093C1723.73 427.023 1722.72 427.413 1722.72 427.962C1722.72 428.512 1721.93 428.922 1720.97 428.872C1720.01 428.812 1718.32 429.012 1717.22 429.312C1716.12 429.602 1703.51 432.802 1689.2 436.412C1674.9 440.031 1662.06 443.231 1660.69 443.541C1659.31 443.841 1656.61 444.331 1654.69 444.631C1652.77 444.931 1650.97 445.471 1650.69 445.821C1650.41 446.171 1649.52 446.611 1648.69 446.801C1647.86 446.991 1646.29 447.261 1645.19 447.421C1644.09 447.571 1642.51 447.951 1641.68 448.261C1640.85 448.571 1637.48 449.571 1634.18 450.491C1630.88 451.41 1627.28 452.28 1626.18 452.43C1625.08 452.57 1623.51 452.96 1622.68 453.28C1621.85 453.6 1619.14 454.4 1616.67 455.06C1614.2 455.72 1611.5 456.35 1610.67 456.47C1609.84 456.59 1608.5 456.95 1607.67 457.27C1606.84 457.6 1604.14 458.4 1601.67 459.06C1599.2 459.72 1596.5 460.35 1595.66 460.47C1594.83 460.59 1593.49 460.95 1592.66 461.27C1591.83 461.59 1588.8 462.549 1585.91 463.409C1583.02 464.259 1580.21 464.729 1579.66 464.459C1579.11 464.189 1578.49 464.299 1578.28 464.709C1578.08 465.119 1576.17 465.889 1574.03 466.409C1571.9 466.929 1569.7 467.389 1569.15 467.439C1568.6 467.479 1567.7 467.789 1567.15 468.119C1566.6 468.449 1564.57 469.099 1562.65 469.559C1560.73 470.029 1558.7 470.459 1558.15 470.529C1557.6 470.599 1556.48 470.919 1555.65 471.249C1554.82 471.579 1551.68 472.569 1548.65 473.449C1545.61 474.328 1541.34 475.298 1539.14 475.618C1536.94 475.938 1534.92 476.548 1534.64 476.978C1534.36 477.418 1532.34 478.128 1530.14 478.568C1527.94 478.998 1525.58 479.268 1524.89 479.158C1524.2 479.048 1523.65 479.298 1523.66 479.708C1523.67 480.118 1521.75 480.858 1519.4 481.358C1517.05 481.848 1514.57 482.188 1513.88 482.108C1513.19 482.028 1512.64 482.518 1512.66 483.208C1512.67 483.898 1512.34 484.138 1511.91 483.758C1511.48 483.368 1510 483.508 1508.63 484.058C1507.25 484.618 1504.55 485.297 1502.63 485.567C1500.71 485.847 1497.54 486.777 1495.62 487.627C1493.7 488.487 1490.88 489.247 1489.37 489.327C1487.85 489.397 1486.62 489.797 1486.62 490.207C1486.62 490.617 1486.17 490.727 1485.62 490.457C1485.07 490.187 1483.16 490.597 1481.37 491.377C1479.58 492.157 1476.92 492.947 1475.45 493.127C1473.99 493.307 1472.42 493.767 1471.95 494.157C1471.49 494.537 1470.51 494.537 1469.77 494.157C1469.04 493.767 1468.14 493.917 1467.77 494.487C1467.41 495.047 1454.06 498.776 1438.1 502.766C1422.14 506.766 1407.96 510.145 1406.59 510.295C1405.21 510.435 1403.64 510.815 1403.08 511.145C1402.53 511.465 1399.38 512.305 1396.08 512.995C1392.78 513.695 1389.41 514.325 1388.58 514.405C1387.75 514.475 1386.63 514.805 1386.08 515.135C1385.53 515.455 1383.05 516.095 1380.58 516.555C1378.1 517.015 1375.62 517.415 1375.07 517.455C1374.52 517.485 1373.62 517.785 1373.07 518.115C1372.52 518.455 1370.04 519.095 1367.57 519.554C1365.1 520.014 1362.62 520.444 1362.07 520.524C1361.52 520.594 1360.4 520.914 1359.57 521.234C1358.74 521.554 1350.41 523.454 1341.06 525.444C1331.71 527.434 1322.7 529.494 1321.05 530.004C1319.4 530.524 1316.47 531.163 1314.55 531.433C1312.63 531.703 1309.92 532.213 1308.55 532.563C1307.16 532.913 1305.03 533.253 1303.79 533.323C1302.55 533.393 1301.54 533.793 1301.54 534.203C1301.54 534.613 1299.63 535.143 1297.29 535.373C1294.95 535.613 1291.69 536.093 1290.04 536.463C1288.39 536.823 1286.14 537.223 1285.04 537.343C1283.94 537.463 1282.47 537.873 1281.78 538.253C1281.09 538.643 1279.86 538.723 1279.03 538.453C1278.2 538.183 1277.42 538.323 1277.28 538.773C1277.14 539.233 1269.61 541.053 1260.53 542.812C1251.44 544.582 1243.8 545.792 1243.52 545.502C1243.24 545.202 1242.46 545.412 1241.77 545.962C1241.08 546.502 1239.85 546.722 1239.02 546.452C1238.19 546.182 1237.3 546.402 1237.02 546.952C1236.74 547.502 1235.73 547.932 1234.76 547.902C1233.8 547.882 1231.43 548.112 1229.51 548.412C1227.59 548.722 1224.43 549.452 1222.51 550.042C1220.59 550.642 1218.45 550.862 1217.76 550.542C1217.07 550.212 1216.29 550.402 1216.01 550.952C1215.73 551.502 1214.95 551.792 1214.26 551.602C1213.57 551.412 1211.66 551.652 1210 552.122C1208.35 552.592 1204.97 553.232 1202.5 553.542C1200.03 553.851 1197.78 554.271 1197.5 554.471C1197.22 554.671 1194.75 555.141 1192 555.521C1189.25 555.891 1186.09 556.331 1184.99 556.491C1183.89 556.651 1182.77 556.891 1182.49 557.021C1182.21 557.151 1181.54 557.341 1180.99 557.441C1180.44 557.551 1178.86 557.921 1177.49 558.281C1176.11 558.631 1172.96 559.121 1170.49 559.361C1168.02 559.601 1165.99 559.891 1165.99 560.001C1165.99 560.111 1165.09 560.341 1163.99 560.511C1162.88 560.681 1160.4 561.111 1158.48 561.471C1156.56 561.831 1153.74 562.311 1152.23 562.541C1150.72 562.761 1148.24 563.131 1146.73 563.361C1145.22 563.591 1141.95 564.211 1139.48 564.751C1137 565.29 1134.3 565.78 1133.47 565.84C1132.64 565.91 1130.51 566.18 1128.72 566.45C1126.93 566.73 1124.01 567.19 1122.22 567.48C1120.43 567.77 1117.39 568.18 1115.47 568.39C1113.54 568.6 1111.96 568.85 1111.96 568.94C1111.96 569.03 1111.06 569.28 1109.96 569.49C1108.86 569.7 1105.93 570.17 1103.46 570.53C1100.99 570.88 1097.83 571.28 1096.46 571.41C1095.08 571.54 1093.29 571.96 1092.46 572.33C1091.63 572.7 1088.7 573.16 1085.95 573.35C1083.2 573.54 1080.28 573.94 1079.45 574.24C1078.62 574.54 1077.28 574.77 1076.45 574.75C1075.62 574.74 1073.37 575.05 1071.45 575.45C1069.53 575.84 1066.14 576.34 1063.94 576.54C1061.74 576.75 1058.59 577.159 1056.94 577.459C1055.29 577.769 1052.59 578.189 1050.94 578.399C1049.29 578.619 1046.59 579.029 1044.94 579.309C1043.29 579.599 1039.9 580.129 1037.43 580.499C1034.96 580.859 1031.58 581.329 1029.93 581.539C1028.28 581.749 1024.9 582.189 1022.43 582.509C1019.95 582.829 1016.57 583.229 1014.92 583.379C1013.27 583.539 1011.25 583.939 1010.42 584.259C1009.59 584.579 1006 585.069 1002.42 585.339C998.837 585.609 995.245 586.069 994.415 586.349C993.584 586.629 990.103 587.109 986.661 587.409C983.22 587.709 980.069 588.128 979.659 588.358C979.248 588.578 975.757 589.088 971.905 589.478C968.054 589.868 963.772 590.338 962.401 590.518C961.214 590.664 958.552 591.003 956.08 591.318L954.898 591.468C952.147 591.818 948.766 592.228 947.395 592.388C946.015 592.548 942.863 592.968 940.392 593.318C937.911 593.668 933.409 594.228 930.388 594.548C927.357 594.878 923.085 595.278 920.884 595.448C918.683 595.618 916.212 595.998 915.382 596.288C914.551 596.578 908.709 597.308 902.376 597.908C896.044 598.518 888.621 599.218 885.869 599.467C883.118 599.717 878.837 600.137 876.366 600.387C873.884 600.647 869.383 601.087 866.361 601.367C863.33 601.647 859.058 602.077 856.857 602.337C854.656 602.587 849.935 603.077 846.353 603.427C842.772 603.767 837.369 604.217 834.348 604.427C831.317 604.627 823.674 605.277 817.341 605.867C811.008 606.457 804.936 606.917 803.835 606.897C802.735 606.877 799.133 607.107 795.832 607.417C792.531 607.717 786.228 608.207 781.826 608.497C777.424 608.777 770.902 609.217 767.32 609.467C763.739 609.717 757.436 610.137 753.314 610.387C749.183 610.646 744.23 610.996 742.31 611.156C739.929 611.356 738.888 611.046 739.058 610.197C739.198 609.507 738.858 608.947 738.308 608.947C737.668 608.947 737.308 598.118 737.308 578.449C737.308 554.731 737.588 547.942 738.558 547.922C739.248 547.902 744.761 547.712 750.813 547.492C756.866 547.272 766.99 546.832 773.323 546.512C779.655 546.192 788.199 545.722 792.331 545.452C796.452 545.192 803.885 544.732 808.837 544.432C813.789 544.142 820.992 543.692 824.844 543.442C828.696 543.202 835.448 542.752 839.85 542.462C844.252 542.172 850.555 541.703 853.856 541.433C857.158 541.153 863.91 540.673 868.862 540.363C873.814 540.053 879.887 539.643 882.368 539.453C884.839 539.263 892.272 538.633 898.875 538.063C905.478 537.493 915.152 536.773 920.384 536.473C925.606 536.173 937.091 535.303 945.894 534.533C954.698 533.773 962.571 533.133 963.402 533.123C964.232 533.113 974.246 532.173 985.661 531.033C997.076 529.884 1006.76 529.034 1007.17 529.144C1007.58 529.244 1009.72 529.024 1011.92 528.654C1014.12 528.274 1019.53 527.704 1023.93 527.364C1028.33 527.034 1033.73 526.614 1035.93 526.424C1038.13 526.234 1043.08 525.644 1046.94 525.114C1050.79 524.594 1054.61 524.134 1055.44 524.094C1056.27 524.064 1059.41 523.784 1062.44 523.464C1065.47 523.154 1070.65 522.644 1073.95 522.324C1077.25 522.004 1081.53 521.584 1083.45 521.394C1085.37 521.204 1088.75 520.824 1090.95 520.554C1093.16 520.294 1098.79 519.604 1103.46 519.045C1108.13 518.475 1112.86 518.015 1113.96 518.015C1115.06 518.015 1118.67 517.595 1121.97 517.075C1125.27 516.545 1131.34 515.795 1135.47 515.395C1139.6 514.995 1144.56 514.555 1146.48 514.415C1148.4 514.285 1150.65 513.865 1151.48 513.505C1152.31 513.135 1153.65 512.945 1154.48 513.085C1155.31 513.215 1157.78 513.015 1159.98 512.625C1162.18 512.245 1166.46 511.715 1169.49 511.445C1172.52 511.175 1176.57 510.765 1178.49 510.525C1180.41 510.285 1185.14 509.625 1189 509.075C1192.85 508.515 1198.92 507.746 1202.5 507.356C1206.08 506.976 1210.35 506.596 1212.01 506.526C1213.66 506.446 1215.46 506.146 1216.01 505.856C1216.56 505.556 1218.36 505.226 1220.01 505.116C1221.66 505.016 1225.48 504.516 1228.51 504.016C1231.54 503.516 1234.91 503.236 1236.02 503.396C1237.12 503.566 1238.69 503.356 1239.52 502.946C1240.35 502.536 1243.94 501.856 1247.52 501.446C1251.1 501.026 1255.14 500.546 1256.52 500.366C1257.89 500.186 1261.28 499.776 1264.03 499.456C1266.78 499.126 1270.49 498.656 1272.28 498.406C1274.07 498.156 1276.99 497.746 1278.78 497.486C1280.57 497.216 1283.38 496.756 1285.04 496.447C1286.69 496.147 1289.39 495.717 1291.04 495.507C1292.69 495.287 1295.39 494.867 1297.04 494.577C1298.69 494.277 1301.84 493.797 1304.04 493.507C1306.24 493.227 1309.17 492.767 1310.55 492.487C1311.92 492.217 1315.08 491.707 1317.55 491.367C1320.02 491.037 1323.4 490.587 1325.05 490.387C1326.7 490.187 1331.66 489.327 1336.06 488.487C1340.46 487.637 1345.86 486.727 1348.06 486.467C1350.26 486.197 1357.92 484.838 1365.07 483.438C1372.22 482.038 1379.42 480.648 1381.08 480.348C1382.73 480.038 1384.98 479.678 1386.08 479.548C1387.18 479.408 1388.87 478.888 1389.84 478.378C1390.81 477.868 1391.93 477.788 1392.34 478.198C1392.75 478.608 1393.64 478.498 1394.33 477.948C1395.02 477.408 1396.25 477.188 1397.08 477.458C1397.91 477.728 1398.78 477.548 1399.02 477.048C1399.26 476.548 1402.74 475.608 1406.78 474.958C1410.8 474.308 1417.24 473.119 1421.09 472.319C1424.94 471.519 1429.22 470.639 1430.6 470.359C1431.97 470.079 1434.22 469.619 1435.6 469.319C1436.97 469.029 1439 468.659 1440.1 468.499C1441.2 468.349 1442.89 467.819 1443.86 467.339C1444.83 466.859 1445.95 466.789 1446.36 467.199C1446.77 467.609 1447.55 467.549 1448.1 467.059C1448.65 466.569 1451.58 465.679 1454.61 465.069C1457.64 464.459 1462.14 463.719 1464.61 463.409C1467.08 463.109 1470.91 462.409 1473.11 461.85C1475.31 461.3 1478.02 460.64 1479.12 460.4C1480.22 460.16 1482.47 459.71 1484.12 459.39C1485.77 459.07 1488.02 458.7 1489.12 458.56C1490.22 458.42 1491.91 457.89 1492.88 457.38C1493.85 456.87 1494.97 456.79 1495.38 457.2C1495.79 457.61 1496.68 457.5 1497.37 456.95C1498.06 456.41 1499.29 456.19 1500.13 456.46C1500.96 456.73 1501.8 456.62 1502.01 456.21C1502.22 455.8 1505.03 454.9 1508.26 454.22C1511.49 453.54 1516.16 452.73 1518.63 452.42C1521.1 452.12 1525.17 451.4 1527.64 450.83C1530.11 450.261 1533.04 449.571 1534.14 449.301C1535.24 449.031 1537.04 448.631 1538.14 448.411C1539.21 448.206 1544.38 447.155 1549.73 446.065L1550.15 445.981C1555.65 444.861 1561.73 443.701 1563.65 443.391C1565.57 443.091 1568.05 442.631 1569.15 442.381C1570.25 442.121 1581.74 439.701 1594.66 436.992C1607.59 434.272 1619.98 431.782 1622.18 431.452C1624.38 431.122 1627.3 430.622 1628.68 430.342C1630.05 430.062 1631.85 429.702 1632.68 429.542C1633.51 429.372 1634.85 428.962 1635.68 428.622C1636.51 428.282 1641.01 427.293 1645.69 426.433C1650.36 425.573 1655.09 424.663 1656.19 424.413C1657.29 424.173 1659.31 423.743 1660.69 423.473C1662.06 423.193 1664.54 422.703 1666.19 422.383C1667.85 422.063 1670.1 421.663 1671.2 421.503C1672.3 421.353 1673.99 420.823 1674.96 420.343C1675.93 419.863 1677.05 419.793 1677.46 420.203C1677.87 420.613 1678.76 420.503 1679.45 419.953C1680.14 419.413 1681.26 419.163 1681.95 419.403C1682.64 419.643 1683.65 419.463 1684.2 418.993C1684.75 418.533 1688.8 417.433 1693.21 416.563C1697.61 415.684 1703.01 414.754 1705.21 414.494C1707.41 414.234 1712.58 413.304 1716.72 412.424C1720.84 411.544 1725.12 410.594 1726.22 410.314C1727.32 410.034 1729.34 409.594 1730.72 409.334C1732.09 409.074 1734.12 408.664 1735.22 408.424C1736.32 408.184 1739.56 407.424 1742.44 406.724C1747.61 405.474 1747.67 405.484 1751.69 408.714C1753.91 410.504 1755.93 411.854 1756.18 411.714C1756.43 411.574 1756.77 410.354 1756.93 409.004C1757.19 406.834 1754.75 404.755 1736.72 391.776C1725.44 383.656 1711.78 373.957 1706.37 370.238C1700.95 366.518 1695.33 362.088 1691.2 357.339L1699.21 356.659C1703.61 356.289 1722.86 355.979 1776.74 355.969L1789.86 315.722Z" fill="#FFCB08" fill-opacity="0.97"/>
	<path d="M2141.39 339.4C2143.59 339.1 2145.48 338.74 2145.59 338.61C2145.7 338.47 2147.05 338.38 2148.6 338.41C2150.7 338.46 2151.84 339.28 2153.15 341.72C2154.11 343.51 2154.68 345.42 2154.4 345.97C2154.12 346.52 2153.11 346.7 2152.15 346.36C2151.19 346.03 2149.72 346.09 2148.9 346.49C2148.07 346.89 2146.04 347.33 2144.39 347.46C2142.74 347.6 2140.26 348.059 2138.89 348.489C2137.51 348.929 2135.49 349.409 2134.39 349.579C2133.29 349.739 2130.93 350.119 2129.14 350.419C2127.35 350.719 2124.65 351.169 2123.13 351.419C2121.62 351.669 2118.58 352.169 2116.38 352.529C2114.18 352.879 2111.14 353.349 2109.63 353.569C2108.12 353.789 2105.64 354.139 2104.13 354.339C2102.62 354.539 2094.62 355.909 2086.37 357.389C2078.12 358.859 2069.79 360.268 2067.86 360.508C2065.93 360.758 2059.86 361.788 2054.36 362.818C2048.85 363.838 2043.67 364.718 2042.85 364.768C2042.02 364.828 2038.2 365.508 2034.35 366.288C2030.5 367.068 2026.66 367.738 2025.84 367.788C2025.01 367.828 2020.96 368.548 2016.84 369.388C2012.71 370.228 2009.12 370.708 2008.84 370.468C2008.56 370.218 2007.55 370.458 2006.59 370.997C2005.63 371.527 2002.92 372.157 2000.58 372.387C1998.24 372.617 1995.65 373.057 1994.83 373.367C1994 373.667 1991.53 374.127 1989.33 374.377C1987.13 374.617 1985.33 374.917 1985.33 375.027C1985.33 375.137 1984.43 375.377 1983.33 375.567C1982.23 375.757 1979.97 376.067 1978.32 376.257C1976.67 376.437 1974.76 376.907 1974.07 377.277C1973.38 377.657 1972.48 377.767 1972.07 377.517C1971.66 377.267 1970.42 377.447 1969.32 377.917C1968.22 378.387 1965.07 379.047 1962.32 379.377C1959.57 379.707 1955.96 380.407 1954.31 380.937C1952.66 381.457 1949.28 382.176 1946.81 382.526C1944.34 382.886 1940.96 383.316 1939.31 383.496C1937.66 383.666 1936.31 383.906 1936.31 384.016C1936.31 384.126 1935.41 384.366 1934.31 384.546C1933.21 384.726 1930.95 385.156 1929.3 385.496C1927.65 385.836 1924.95 386.276 1923.3 386.466C1921.65 386.656 1920.3 386.906 1920.3 387.016C1920.3 387.126 1919.4 387.366 1918.3 387.546C1917.2 387.726 1915.17 388.106 1913.8 388.386C1912.42 388.676 1908.04 389.596 1904.04 390.436C1900.05 391.276 1896.34 391.736 1895.79 391.466C1895.24 391.196 1894.79 390.516 1894.79 389.966C1894.79 389.416 1900.08 385.286 1906.54 380.787C1914.91 374.967 1919.6 372.357 1922.8 371.767C1925.27 371.307 1929.33 370.678 1931.8 370.368C1934.28 370.058 1937.66 369.598 1939.31 369.338C1940.96 369.088 1943.88 368.698 1945.81 368.488C1947.73 368.268 1949.31 368.028 1949.31 367.948C1949.31 367.878 1950.21 367.638 1951.31 367.428C1952.41 367.218 1955.34 366.748 1957.82 366.388C1960.29 366.038 1963.44 365.668 1964.82 365.578C1966.19 365.478 1967.77 365.118 1968.32 364.768C1968.87 364.418 1971.79 363.878 1974.82 363.568C1977.85 363.258 1981.45 362.758 1982.83 362.458C1984.2 362.158 1986.9 361.718 1988.83 361.468C1990.75 361.228 1996.83 360.358 2002.33 359.548C2007.84 358.729 2021.34 356.709 2032.35 355.049C2043.35 353.399 2054.39 351.799 2056.86 351.509C2059.33 351.219 2070.14 349.639 2080.87 348.009C2091.59 346.37 2102.18 344.86 2104.38 344.65C2106.58 344.43 2109.11 343.98 2110 343.65C2110.89 343.31 2112.46 343.19 2113.5 343.37C2114.53 343.56 2115.83 343.44 2116.38 343.11C2116.93 342.77 2118.73 342.42 2120.38 342.32C2122.03 342.22 2124.74 341.9 2126.39 341.61C2128.04 341.32 2131.19 340.82 2133.39 340.51C2135.59 340.2 2139.19 339.7 2141.39 339.4Z" fill="#FFCB08" fill-opacity="0.97"/>
	<path d="M1887.07 392.676C1886.95 392.556 1892.78 388.306 1900.03 383.217C1907.28 378.127 1913.91 373.947 1914.76 373.937C1915.78 373.911 1915.46 374.521 1913.8 375.767C1912.42 376.797 1907.58 380.187 1903.04 383.307C1898.5 386.416 1894.8 389.306 1894.81 389.716C1894.82 390.126 1893.14 391.006 1891.06 391.676C1888.99 392.336 1887.19 392.786 1887.07 392.676Z" fill="#F1C321"/>
	<path d="M1755.98 411.924C1755.57 411.904 1753.65 410.544 1751.73 408.914C1749.8 407.274 1748.79 405.945 1749.48 405.955C1750.17 405.955 1752.08 406.864 1753.73 407.964C1755.38 409.064 1756.73 410.414 1756.73 410.964C1756.73 411.514 1756.39 411.944 1755.98 411.924Z" fill="#F1C321"/>
	<path d="M1885.29 392.956C1884.74 392.986 1889.91 388.976 1896.79 384.067C1903.66 379.147 1909.73 375.087 1910.25 375.047C1910.85 374.997 1910.85 375.287 1910.25 375.837C1909.73 376.307 1904.11 380.347 1897.79 384.806C1891.46 389.266 1885.84 392.926 1885.29 392.956Z" fill="#E8BD2D"/>
	<mask id="path-4-inside-1_715_827" fill="white">
		<path fill-rule="evenodd" clip-rule="evenodd" d="M81.0342 25.4978C81.0342 41.8263 80.6741 50.9955 80.0338 50.9955C79.4836 50.9955 79.0334 51.8955 79.0334 52.9954C79.0334 54.1053 79.7037 54.9952 80.534 54.9952C81.3644 54.9952 82.0547 55.7851 82.0747 56.745C82.1047 57.7049 81.3644 59.1648 80.444 59.9948C78.9234 61.3546 78.7833 64.6643 79.0134 94.4917C79.1535 112.64 78.8733 128.999 78.3931 130.849C77.9229 132.698 76.9525 134.728 76.2422 135.348C75.5019 135.998 74.9617 138.548 74.9917 141.238C75.0217 145.177 74.6916 146.077 73.0309 146.487C71.5603 146.857 71.0201 147.837 70.9901 150.237C70.96 152.027 71.6603 154.167 72.5307 154.986C73.5811 155.976 74.1114 158.196 74.1014 161.486C74.0914 165.825 73.7612 166.645 71.5603 167.735C69.5395 168.735 69.0192 169.735 68.9992 172.735C68.9792 174.795 68.2989 177.384 67.4786 178.484C66.6583 179.584 65.998 181.494 66.008 182.734C66.018 184.314 64.5274 186.034 61.0259 188.484C57.8146 190.733 55.7937 192.963 55.3736 194.733C55.0234 196.243 53.1126 200.602 51.1218 204.422C47.8804 210.662 47.5303 212.101 47.5903 218.921C47.6403 223.75 48.4907 229.19 49.9513 233.98C51.2118 238.109 53.1626 242.829 54.2931 244.479C55.4236 246.128 57.2844 248.288 58.4348 249.278C59.5853 250.258 61.6562 251.568 63.0267 252.168C64.4073 252.778 68.9092 253.548 73.0309 253.878L80.534 254.478C80.2939 262.227 79.9238 265.827 79.5536 267.477C78.9934 270.016 79.6737 271.596 83.9655 277.726C86.7566 281.715 90.048 285.485 91.2885 286.105C92.559 286.745 95.1701 286.965 97.291 286.605C100.862 286.005 101.043 286.105 101.063 288.725C101.069 290.558 99.5319 293.308 96.4507 296.974C93.8996 299.994 90.1981 305.403 88.2272 308.973C86.2664 312.543 84.6457 316.602 84.6357 317.972C84.6257 319.352 86.0563 322.382 87.8271 324.722L91.0384 328.971C91.0384 364.698 90.9984 365.008 88.5374 367.968C87.1668 369.618 86.0163 372.207 85.9963 373.717C85.9663 375.227 85.326 378.267 84.5757 380.467C83.3752 383.936 83.4052 384.996 84.7658 388.466C85.7862 391.086 86.5365 397.505 86.9267 407.054C87.5169 421.173 87.627 421.773 90.5382 425.963C93.4094 430.092 93.5595 430.832 93.8696 442.371C94.0597 449.021 93.7595 460.76 93.2193 468.459C92.3389 480.778 91.7787 483.658 88.4973 492.457L84.7758 502.456C87.2868 510.205 88.0171 514.595 88.0272 517.205C88.0372 521.284 88.4273 522.204 90.7883 523.734C92.2989 524.714 95.2302 526.294 97.291 527.234C99.3519 528.184 101.943 528.954 103.043 528.954C104.604 528.954 105.044 529.624 105.044 531.953C105.044 533.603 105.554 536.863 106.165 539.203C107.085 542.662 106.995 544.432 105.664 548.702C104.774 551.592 104.054 555.411 104.074 557.201C104.094 559.701 103.514 560.741 101.573 561.701C100.182 562.391 98.3715 562.951 97.5411 562.951C96.7108 562.951 95.3702 564.301 94.5399 565.95C93.7095 567.6 93.0392 570.97 93.0392 573.45V577.949C101.953 577.929 107.245 577.269 110.547 576.47C113.848 575.67 120.941 575.01 126.303 574.99L136.057 574.95C136.057 564.311 135.507 561.131 134.547 559.701C133.716 558.461 132.606 554.971 132.085 551.952C131.565 548.932 130.695 544.202 130.155 541.453C129.614 538.703 129.154 533.973 129.124 530.953C129.104 527.934 129.414 524.934 129.825 524.284C130.225 523.644 131.805 522.744 133.336 522.284C134.857 521.834 136.287 521.004 136.497 520.454C136.717 519.904 136.167 512.475 135.287 503.956C133.976 491.317 133.896 487.167 134.867 481.458C135.517 477.608 136.817 466.809 137.758 457.46C138.698 448.111 139.489 436.792 139.509 432.302C139.549 425.593 139.939 423.633 141.679 421.303C142.84 419.743 144.271 416.894 144.861 414.964C145.441 413.034 147.062 408.764 148.462 405.465C149.873 402.165 151.013 398.335 151.013 396.965V394.465C154.975 398.345 156.756 401.485 157.536 403.965C158.316 406.444 159.287 411.614 159.687 415.464C160.237 420.663 161.378 424.263 164.129 429.462C166.17 433.312 170.652 443.211 174.083 451.46C179.565 464.619 180.416 467.559 181.056 475.458C181.576 481.968 182.506 485.977 184.387 489.957C185.828 492.977 188.149 497.476 189.549 499.956C191.47 503.356 192.09 505.916 192.12 510.455C192.141 513.755 192.811 520.054 193.621 524.454C194.431 528.854 195.652 533.023 196.342 533.713C197.023 534.413 199.834 535.083 202.575 535.213L207.577 535.453C208.857 543.272 208.797 548.722 208.247 552.952C207.717 557.081 206.587 562.251 205.736 564.451C204.566 567.47 204.416 569.37 205.136 572.2C205.896 575.2 206.737 576.15 209.338 576.969C211.128 577.529 213.94 577.959 215.59 577.939C217.241 577.919 219.382 577.239 220.342 576.419C221.883 575.12 222.443 575.13 225.094 576.45C227.255 577.529 233.498 578.159 247.454 578.699C263.99 579.339 267.072 579.229 268.512 577.949C269.443 577.119 270.173 575.1 270.133 573.45C270.093 571.74 268.892 569.05 267.332 567.18C265.351 564.791 263.53 563.751 260.609 563.361C258.408 563.061 255.597 562.621 254.356 562.391C253.116 562.151 249.134 559.361 245.503 556.201C241.861 553.042 238.07 549.102 237.059 547.452C236.049 545.802 234.908 542.432 234.528 539.953C233.878 535.693 234.018 535.313 237.219 532.773C240.551 530.134 240.601 529.974 240.601 522.194C240.601 514.845 240.351 513.895 236.929 508.376C234.908 505.126 231.767 498.856 229.936 494.457L226.625 486.457C226.425 437.322 226.065 431.822 223.233 410.464C221.483 397.265 219.142 380.837 218.031 373.967C216.921 367.088 214.9 356.629 213.549 350.719C212.199 344.81 211.108 338.96 211.138 337.72C211.178 336.251 212.999 334.011 216.391 331.251L221.593 327.041C224.984 334.351 225.995 337.71 226.035 339.22C226.065 340.73 225.704 342.98 225.214 344.22C224.734 345.46 224.064 348.829 223.714 351.719C223.193 356.149 223.363 357.079 224.844 357.649C225.805 358.029 227.155 359.159 227.845 360.148C228.536 361.148 229.886 361.948 230.847 361.928C232.407 361.888 232.437 362.048 231.097 363.498C229.766 364.948 229.766 365.228 231.097 366.028C231.917 366.528 232.817 366.818 233.098 366.668C233.378 366.528 236.189 365.188 239.35 363.688C242.511 362.188 245.493 360.178 245.973 359.219C246.453 358.259 247.183 354.089 247.594 349.969C248.014 345.84 248.324 339.99 248.304 336.97C248.274 333.951 248.274 326.521 248.284 320.472C248.314 311.353 248.744 308.283 250.805 302.474C252.876 296.634 253.236 294.054 252.946 286.955C252.616 278.746 252.356 277.916 245.413 263.457C239.78 251.738 237.319 245.109 234.138 232.98C231.897 224.45 228.055 212.301 225.604 205.982C223.153 199.663 219.062 191.103 216.511 186.984C213.97 182.854 210.848 177.454 209.578 174.985C208.307 172.515 205.996 169.275 204.426 167.805C202.625 166.095 199.033 164.466 194.582 163.316C190.73 162.336 186.568 160.726 185.328 159.756C184.087 158.786 182.657 156.296 182.146 154.236C181.626 152.177 180.616 149.967 179.895 149.327C179.165 148.687 177.224 148.007 175.574 147.827C172.953 147.527 172.532 147.047 172.242 143.987C172.052 142.058 171.382 139.908 170.742 139.198C170.101 138.478 168.781 137.918 167.82 137.948C166.86 137.968 165.85 137.308 165.569 136.488C165.289 135.668 166.43 132.848 168.09 130.239C169.751 127.629 171.102 125.149 171.092 124.739C171.082 124.329 171.412 124.159 171.822 124.369C172.232 124.569 172.912 126.369 173.323 128.369C173.733 130.359 174.763 132.328 175.614 132.738C176.454 133.148 177.574 133.038 178.095 132.488C178.695 131.848 178.185 130.229 176.654 127.989C175.344 126.069 174.003 122.799 173.673 120.739L173.073 116.99C180.075 116.99 182.597 116.36 183.507 115.49C184.367 114.66 185.078 112.41 185.078 110.49C185.078 108.571 183.987 104.631 182.667 101.741C181.336 98.8513 179.935 94.6917 179.565 92.4919C179.185 90.2921 177.835 86.4624 176.574 83.9926C175.303 81.5229 173.213 78.5031 171.922 77.3032C170.632 76.0933 167.32 74.0935 164.569 72.8636C160.998 71.2638 156.986 70.4838 150.563 70.1639C143.64 69.8239 140.169 70.1439 135.557 71.5637C131.585 72.7936 128.074 74.7835 125.183 77.4532C122.782 79.673 119.97 83.1827 118.93 85.2425C117.9 87.3024 116.769 90.902 116.429 93.2418C116.089 95.5816 115.188 98.5014 114.428 99.7413C113.558 101.161 113.028 105.041 113.008 110.24C112.978 115.77 113.388 118.87 114.258 119.66C114.968 120.299 117.119 120.969 119.04 121.159C121.631 121.399 122.612 122.009 122.832 123.489C122.992 124.589 123.302 126.389 123.522 127.489C123.732 128.589 124.842 129.829 125.983 130.239C127.644 130.839 128.004 131.728 127.804 134.738C127.574 138.238 127.324 138.508 124.052 138.818C122.121 139.008 119.94 139.678 119.19 140.318C118.44 140.958 117.189 143.057 116.399 144.987L114.968 148.487C105.765 147.097 104.754 147.277 103.043 148.987C101.483 150.547 101.153 151.877 101.543 154.986C102.013 158.716 101.873 158.986 99.5419 158.986C97.9813 158.986 97.0409 158.416 97.0409 157.486C97.0409 156.666 97.7112 155.986 98.5415 155.986C99.672 155.986 100.042 154.766 100.042 150.987C100.042 147.207 99.672 145.987 98.5415 145.987C97.371 145.987 97.0409 144.657 97.0409 139.988C97.0409 136.658 97.4811 133.988 98.0413 133.988C98.5915 133.988 99.0417 132.868 99.0417 131.488C99.0417 130.119 98.5915 128.989 98.0413 128.989C97.4111 128.989 97.0409 121.659 97.0409 108.99C97.0409 96.3216 97.4111 88.9922 98.0413 88.9922C98.5915 88.9922 99.0217 87.0824 99.0017 84.7426C98.9717 82.1028 99.5519 79.923 100.542 78.9931C101.463 78.1232 102.113 75.9234 102.083 73.7435C102.053 70.7138 101.463 69.6139 99.0417 67.994C96.2606 66.1442 96.0405 65.5543 96.0405 59.9948C96.0405 54.2653 95.9304 53.9953 93.5394 53.9953C91.7087 53.9953 91.0384 53.4653 91.0384 51.9954C91.0384 50.6622 90.3715 49.9956 89.0376 49.9956C87.0868 49.9956 87.0367 49.3257 87.0367 24.9978V0H81.0342V25.4978ZM88.0171 58.7449C88.0272 58.3349 89.1576 57.9949 90.5382 57.9949C92.369 57.9949 93.0392 58.5249 93.0392 59.9948C93.0392 61.0947 92.479 62.0046 91.7887 62.0146C91.0984 62.0246 89.968 61.4546 89.2677 60.7647C88.5774 60.0647 88.0071 59.1548 88.0171 58.7449ZM94.5399 69.6539C95.0001 69.2939 96.2206 69.7739 97.241 70.7438C98.2714 71.7037 99.1118 73.1636 99.1118 73.9935C99.1118 74.8234 98.3014 76.2833 97.321 77.2432C96.3406 78.2132 95.1901 78.6631 94.76 78.2431C94.3298 77.8332 93.9196 75.8834 93.8496 73.9135C93.7695 71.9437 94.0797 70.0239 94.5399 69.6539ZM104.504 150.677C104.944 150.327 107.265 150.127 109.656 150.237C112.047 150.337 114.018 150.887 114.038 151.457C114.068 152.027 113.538 153.047 112.868 153.737C112.197 154.426 109.936 154.986 107.845 154.986C104.884 154.986 104.004 154.576 103.874 153.157C103.784 152.147 104.074 151.037 104.504 150.677ZM171.072 151.907C171.892 151.417 173.813 151.007 175.324 151.007C177.334 150.987 178.345 151.657 179.075 153.487C179.625 154.866 180.075 156.666 180.075 157.486C180.075 158.306 179.395 158.986 178.575 158.986C177.755 158.986 176.394 157.856 175.574 156.486C174.753 155.106 173.063 153.717 171.822 153.387C169.981 152.897 169.841 152.627 171.072 151.907ZM198.253 279.226C198.053 277.846 198.443 276.986 199.253 277.006C199.984 277.016 201.384 277.806 202.365 278.756C203.345 279.696 204.135 280.815 204.115 281.225C204.095 281.635 202.845 281.865 201.334 281.725C199.343 281.545 198.493 280.855 198.253 279.226ZM205.196 289.615C205.346 287.065 205.646 286.825 207.977 287.405C209.418 287.755 211.509 289.045 212.639 290.265C213.9 291.614 214.97 294.604 215.41 297.974C215.8 300.994 215.89 303.703 215.61 303.973C215.33 304.243 214.13 303.573 212.949 302.474C211.769 301.374 209.498 298.674 207.907 296.474C206.126 294.004 205.096 291.384 205.196 289.615ZM218.101 311.973C218.151 308.643 218.231 308.573 219.642 310.473C220.462 311.573 221.103 314.043 221.083 315.972C221.033 319.302 220.952 319.372 219.542 317.472C218.722 316.372 218.081 313.903 218.101 311.973ZM229.676 347.22C229.926 345.98 230.797 344.97 231.617 344.97C232.427 344.97 234.238 345.98 235.639 347.22C237.92 349.229 238.08 349.819 237.139 352.719C236.329 355.239 235.539 355.969 233.598 355.969C232.217 355.969 230.416 356.199 229.596 356.469C228.376 356.879 228.205 356.259 228.656 353.219C228.976 351.159 229.426 348.459 229.676 347.22ZM1454.61 162.516C1448.27 163.306 1437.48 165.116 1430.6 166.555C1423.72 167.985 1412.69 170.945 1406.09 173.125C1399.48 175.305 1389.58 179.354 1384.08 182.124C1378.57 184.894 1371.15 189.213 1367.57 191.723C1363.99 194.233 1358.66 198.353 1355.71 200.882C1352.76 203.412 1347.46 209.082 1343.93 213.481C1340.4 217.881 1335.77 224.86 1333.65 228.98C1331.51 233.11 1328.65 239.629 1327.27 243.479C1325.9 247.328 1323.95 254.298 1322.94 258.977C1321.54 265.467 1321.11 271.746 1321.11 285.475C1321.11 298.324 1321.6 305.903 1322.8 311.973C1323.73 316.652 1325.68 324.072 1327.13 328.471C1328.59 332.871 1331.51 339.85 1333.65 343.97C1335.77 348.1 1340.38 355.069 1343.89 359.469C1347.4 363.868 1353.37 369.988 1357.18 373.057C1360.97 376.137 1366.1 380.007 1368.57 381.677C1371.04 383.346 1376.9 386.626 1381.58 388.966C1386.25 391.316 1393.91 394.685 1398.58 396.465C1403.25 398.255 1412.04 401.085 1418.09 402.765C1424.14 404.455 1434.5 406.964 1441.1 408.354C1447.7 409.734 1462.33 412.664 1473.61 414.854C1484.9 417.054 1498.17 420.023 1503.13 421.463C1508.08 422.913 1514.83 425.263 1518.13 426.703C1521.43 428.143 1527.06 431.192 1530.64 433.492C1534.75 436.142 1538.24 439.372 1540.14 442.281C1541.79 444.811 1543.81 446.881 1544.64 446.881C1545.47 446.881 1568.65 442.271 1596.17 436.652C1645.5 426.563 1646.19 426.383 1646.48 423.943C1646.63 422.583 1645.61 416.964 1644.21 411.464C1642.79 405.964 1640.17 398.095 1638.38 393.966C1636.59 389.846 1632.89 383.146 1630.15 379.087C1627.42 375.027 1621.81 368.338 1617.67 364.228C1613.55 360.128 1606.57 354.379 1602.17 351.469C1597.77 348.569 1590.45 344.34 1585.91 342.08C1581.37 339.82 1572.37 336.151 1565.9 333.921C1559.44 331.701 1548.98 328.571 1542.64 326.971C1536.31 325.382 1518.76 321.782 1503.63 318.982C1488.5 316.182 1472.06 312.953 1467.11 311.803C1462.16 310.653 1454.28 308.383 1449.6 306.753C1444.93 305.133 1439.07 302.654 1436.6 301.254C1434.13 299.864 1430.37 297.084 1428.27 295.094C1426.15 293.104 1423.5 289.675 1422.38 287.475C1420.69 284.175 1420.41 282.165 1420.8 275.976C1421.12 270.786 1421.98 267.097 1423.59 263.977C1424.87 261.497 1428.22 257.287 1431.01 254.608C1433.81 251.928 1439.25 248.238 1443.1 246.408C1446.95 244.569 1454.16 242.039 1459.11 240.779C1467.23 238.709 1470.36 238.489 1491.12 238.509C1511.68 238.539 1515.68 238.819 1528.64 241.209C1536.61 242.669 1550.12 245.668 1558.65 247.868C1567.18 250.058 1580.69 253.968 1588.66 256.538C1596.64 259.117 1609.02 263.417 1616.17 266.107C1623.33 268.806 1629.4 270.996 1629.68 270.986C1629.96 270.986 1629.2 251.738 1628 228.23C1626.8 204.722 1625.8 184.354 1625.77 182.984C1625.73 180.734 1624.96 180.264 1617.94 178.284C1613.67 177.065 1604.09 174.735 1596.67 173.095C1589.24 171.445 1577.54 169.145 1570.65 167.965C1563.78 166.795 1551.4 164.926 1543.14 163.826C1531.69 162.296 1520.79 161.736 1497.12 161.456C1474.27 161.176 1463.08 161.456 1454.61 162.516ZM281.128 354.459L281.118 536.953C291.582 537.723 313.531 538.863 336.641 539.993C359.75 541.113 383.72 542.352 389.913 542.742L401.168 543.452L400.667 172.485L281.138 171.965L281.128 354.459ZM506.681 173.235C506.411 173.925 506.311 258.407 506.451 360.968L506.711 547.452C537.724 548.412 564.846 549.092 586.995 549.572L627.262 550.452V420.963C725.613 420.323 729.584 420.163 741.309 418.033C748.182 416.794 758.987 414.074 765.319 412.004C771.642 409.934 780.646 406.314 785.327 403.965C789.999 401.615 797.202 397.435 801.334 394.675C805.456 391.906 812.229 386.236 816.38 382.057C820.532 377.887 826.315 371.098 829.226 366.968C832.147 362.848 836.059 356.429 837.939 352.719C839.81 349.009 842.681 342.03 844.302 337.22C845.923 332.411 847.974 324.422 848.864 319.472C849.804 314.243 850.475 305.033 850.475 297.474C850.475 289.915 849.804 280.715 848.864 275.476C847.974 270.526 845.693 261.757 843.782 255.978C841.881 250.208 838.28 241.879 835.779 237.479C833.287 233.08 828.846 226.33 825.904 222.481C822.963 218.631 817.471 212.581 813.699 209.042C809.928 205.502 803.005 200.122 798.333 197.093C793.651 194.063 786.228 189.903 781.826 187.844C777.424 185.784 769.771 182.774 764.819 181.144C759.867 179.514 750.973 177.234 745.061 176.085C739.148 174.935 726.993 173.545 718.049 172.995C709.106 172.455 657.994 172.005 604.472 171.995C527.54 171.985 507.062 172.245 506.681 173.235ZM627.552 248.698L652.662 249.258C669.679 249.638 680.844 250.378 687.287 251.528C692.509 252.468 699.262 254.098 702.293 255.148C705.314 256.208 709.816 258.357 712.297 259.947C714.768 261.537 718.35 264.997 720.24 267.657C722.141 270.306 724.592 274.956 725.703 277.976C727.343 282.475 727.713 286.035 727.753 297.474C727.793 308.823 727.423 312.613 725.823 317.472C724.732 320.772 722.461 325.272 720.781 327.471C719.09 329.671 715.258 332.951 712.257 334.761C709.246 336.571 704.544 338.71 701.793 339.52C699.042 340.33 694.31 341.46 691.288 342.04C688.257 342.62 672.621 343.29 627.262 343.97L627.402 296.334L627.552 248.698ZM926.886 172.655C926.426 173.025 926.126 254.918 926.226 354.639C926.366 515.075 926.556 535.953 927.887 535.953C928.717 535.953 944.804 534.593 963.652 532.933C982.5 531.273 1007.15 529.024 1018.42 527.954C1029.71 526.874 1040.84 525.764 1043.18 525.474L1047.44 524.954V420.963C1145.8 420.323 1149.77 420.163 1161.48 418.043C1168.37 416.794 1179.17 414.084 1185.49 412.004C1191.83 409.934 1200.83 406.314 1205.5 403.965C1210.18 401.615 1217.39 397.435 1221.51 394.685C1225.64 391.926 1232.61 386.026 1237.02 381.567C1241.42 377.107 1247.56 369.638 1250.66 364.968C1253.76 360.298 1257.53 353.999 1259.04 350.969C1260.55 347.95 1263.1 341.42 1264.7 336.471C1266.31 331.521 1268.28 323.652 1269.09 318.972C1269.89 314.302 1270.55 304.623 1270.55 297.474C1270.55 290.215 1269.86 280.505 1268.99 275.476C1268.13 270.526 1265.87 261.757 1263.97 255.978C1262.06 250.208 1258.45 241.879 1255.96 237.479C1253.47 233.08 1249.02 226.33 1246.08 222.481C1243.15 218.631 1237.66 212.591 1233.87 209.042C1230.1 205.502 1223.19 200.122 1218.51 197.093C1213.84 194.063 1206.4 189.903 1202 187.844C1197.6 185.794 1189.95 182.774 1184.99 181.144C1180.04 179.514 1171.15 177.244 1165.24 176.085C1159.32 174.935 1147.17 173.545 1138.22 172.995C1129.28 172.455 1078.26 172.005 1024.85 171.995C971.425 171.995 927.347 172.285 926.886 172.655ZM1047.73 248.698L1072.85 249.258C1089.13 249.618 1101.12 250.388 1106.96 251.428C1111.91 252.308 1118.67 253.908 1121.97 254.988C1125.27 256.058 1130.08 258.407 1132.66 260.207C1135.24 262.007 1138.7 265.277 1140.36 267.477C1142.01 269.676 1144.33 274.176 1145.5 277.476C1146.87 281.335 1147.84 287.065 1148.2 293.474C1148.54 299.504 1148.27 306.263 1147.54 310.473C1146.87 314.322 1145.12 319.902 1143.65 322.862C1142.18 325.821 1139.51 329.531 1137.72 331.111C1135.93 332.681 1132.11 335.161 1129.22 336.611C1126.33 338.06 1119.92 340.13 1114.96 341.21C1107.48 342.85 1101.03 343.25 1047.44 343.97L1047.59 296.334L1047.73 248.698ZM2043.06 265.487C2017.36 316.902 1996.55 359.229 1996.83 359.539C1997.1 359.849 2019.16 356.929 2045.85 353.039C2072.53 349.149 2096.81 345.63 2099.81 345.22L2105.26 344.48C2124.73 303.063 2130.68 291.365 2131.04 291.764C2131.4 292.154 2136.06 302.604 2141.4 314.982C2146.74 327.351 2151.18 337.57 2151.26 337.69C2151.33 337.81 2166.02 335.881 2183.91 333.401C2201.79 330.931 2223.18 327.981 2231.43 326.841C2239.68 325.711 2249.07 324.492 2252.29 324.132C2255.52 323.772 2258.33 323.142 2258.54 322.732C2258.76 322.322 2242.61 288.225 2222.68 246.958L2186.41 171.935L2089.79 171.995L2043.06 265.487ZM2251.44 331.131C2248.14 331.651 2226.31 335.001 2202.92 338.58C2179.54 342.16 2159.2 345.4 2157.73 345.78L2155.07 346.48C2185.96 417.773 2194.75 438.592 2194.54 438.732C2194.32 438.872 2164.16 438.872 2127.52 438.732L2060.89 438.472C2091.14 374.157 2099.8 355.409 2099.65 355.309C2099.49 355.219 2080.25 358.489 2056.86 362.568C2033.48 366.648 2008.65 370.998 2001.7 372.237L1989.06 374.477C1913.68 525.204 1891.79 569.19 1891.79 569.46C1891.79 569.74 1915.95 569.85 1945.47 569.71L1999.14 569.46L2029.35 505.036L2224.23 505.466C2229.52 517.865 2235.86 532.393 2241.74 545.752L2252.44 570.04C2364.76 569.97 2377.98 569.7 2377.96 568.71C2377.94 568.02 2352.13 514.145 2320.6 448.971C2264.46 332.951 2263.21 330.481 2260.36 330.331C2258.75 330.251 2254.74 330.601 2251.44 331.131ZM1903.49 370.218C1898.7 373.657 1894.9 376.557 1895.04 376.657C1895.18 376.747 1897.32 376.407 1899.79 375.897C1902.85 375.257 1905.89 373.547 1909.3 370.558C1912.84 367.438 1914 365.838 1913.26 365.058C1912.51 364.278 1909.74 365.738 1903.49 370.218ZM1864.78 398.125C1863.41 398.685 1859.67 401.015 1856.48 403.305C1852.56 406.134 1850.73 408.114 1850.81 409.474C1850.87 410.574 1851.53 413.054 1852.27 414.974C1853.34 417.753 1853.63 418.003 1853.69 416.224C1853.74 414.984 1854.33 412.794 1855.02 411.364C1855.71 409.924 1859.42 406.464 1863.28 403.685C1867.13 400.895 1870.71 398.245 1871.23 397.795C1871.76 397.335 1871.11 397.005 1869.73 397.035C1868.38 397.075 1866.16 397.565 1864.78 398.125ZM1773.74 463.569C1757.51 475.358 1744.12 485.448 1743.98 485.987C1743.84 486.527 1744.18 487.197 1744.73 487.467C1745.28 487.747 1747.19 487.157 1748.98 486.167C1750.77 485.168 1763.48 476.248 1777.24 466.329C1791 456.42 1803.26 447.781 1804.5 447.141C1805.74 446.501 1807.76 445.991 1809 446.001C1811.16 446.041 1811.14 445.961 1808.5 444.001C1806.99 442.891 1805.19 442.001 1804.5 442.051C1803.81 442.091 1789.98 451.77 1773.74 463.569ZM1637.18 449.561C1632.23 450.901 1609.5 456.98 1586.66 463.069L1545.14 474.148C1538.17 481.928 1534.12 485.418 1531.64 486.917C1529.17 488.417 1524.44 490.647 1521.13 491.877C1517.83 493.107 1512.21 494.787 1508.63 495.617C1504.35 496.607 1494.42 497.296 1479.62 497.626L1457.11 498.126C1413.69 508.786 1387.36 515.005 1370.57 518.825C1353.79 522.644 1337.46 526.374 1334.29 527.114C1328.82 528.394 1328.52 528.624 1328.57 531.464C1328.6 533.113 1329.06 540.543 1329.59 547.962C1330.12 555.391 1330.67 561.561 1330.81 561.671C1330.94 561.791 1334.89 563.021 1339.56 564.411C1344.24 565.8 1355.71 568.51 1365.07 570.42C1374.42 572.33 1389.06 574.82 1397.58 575.95C1406.12 577.069 1421.19 578.629 1431.1 579.409C1441 580.189 1458.79 581.119 1470.61 581.489C1483.51 581.879 1498.73 581.699 1508.63 581.029C1517.71 580.409 1529.87 579.209 1535.64 578.349C1541.42 577.499 1551.33 575.46 1557.65 573.82C1563.98 572.18 1573.44 569.07 1578.66 566.9C1583.89 564.741 1591.7 560.831 1596.04 558.211C1600.37 555.601 1607.96 549.642 1612.92 544.962C1618.23 539.943 1624.26 532.983 1627.61 527.964C1630.72 523.294 1634.68 516.095 1636.41 511.965C1638.13 507.846 1640.72 500.416 1642.16 495.467C1643.6 490.517 1645.42 482.198 1646.19 476.968C1646.95 471.749 1647.84 462.86 1648.16 457.22C1648.6 449.271 1648.45 446.991 1647.46 447.041C1646.76 447.081 1642.13 448.211 1637.18 449.561ZM1324.9 468.129C1325.26 473.269 1325.56 479.718 1325.57 482.468C1325.58 485.218 1325.91 488.017 1326.32 488.697C1326.88 489.637 1332.48 488.997 1350.31 485.947C1363.11 483.758 1374.02 481.968 1374.57 481.968C1375.12 481.968 1375.58 481.628 1375.59 481.218C1375.6 480.808 1372.56 479.378 1368.84 478.048C1365.12 476.718 1356.22 473.179 1349.06 470.189C1341.91 467.199 1333.4 463.409 1330.15 461.77L1324.24 458.78L1324.9 468.129ZM281.278 565.341L281.118 569.97C322.985 569.97 335.19 569.62 335.24 569.19C335.3 568.76 324.606 566.9 311.48 565.07C298.355 563.241 286.23 561.501 284.529 561.221C281.458 560.711 281.428 560.741 281.278 565.341Z"/>
	</mask>
	<path fill-rule="evenodd" clip-rule="evenodd" d="M81.0342 25.4978C81.0342 41.8263 80.6741 50.9955 80.0338 50.9955C79.4836 50.9955 79.0334 51.8955 79.0334 52.9954C79.0334 54.1053 79.7037 54.9952 80.534 54.9952C81.3644 54.9952 82.0547 55.7851 82.0747 56.745C82.1047 57.7049 81.3644 59.1648 80.444 59.9948C78.9234 61.3546 78.7833 64.6643 79.0134 94.4917C79.1535 112.64 78.8733 128.999 78.3931 130.849C77.9229 132.698 76.9525 134.728 76.2422 135.348C75.5019 135.998 74.9617 138.548 74.9917 141.238C75.0217 145.177 74.6916 146.077 73.0309 146.487C71.5603 146.857 71.0201 147.837 70.9901 150.237C70.96 152.027 71.6603 154.167 72.5307 154.986C73.5811 155.976 74.1114 158.196 74.1014 161.486C74.0914 165.825 73.7612 166.645 71.5603 167.735C69.5395 168.735 69.0192 169.735 68.9992 172.735C68.9792 174.795 68.2989 177.384 67.4786 178.484C66.6583 179.584 65.998 181.494 66.008 182.734C66.018 184.314 64.5274 186.034 61.0259 188.484C57.8146 190.733 55.7937 192.963 55.3736 194.733C55.0234 196.243 53.1126 200.602 51.1218 204.422C47.8804 210.662 47.5303 212.101 47.5903 218.921C47.6403 223.75 48.4907 229.19 49.9513 233.98C51.2118 238.109 53.1626 242.829 54.2931 244.479C55.4236 246.128 57.2844 248.288 58.4348 249.278C59.5853 250.258 61.6562 251.568 63.0267 252.168C64.4073 252.778 68.9092 253.548 73.0309 253.878L80.534 254.478C80.2939 262.227 79.9238 265.827 79.5536 267.477C78.9934 270.016 79.6737 271.596 83.9655 277.726C86.7566 281.715 90.048 285.485 91.2885 286.105C92.559 286.745 95.1701 286.965 97.291 286.605C100.862 286.005 101.043 286.105 101.063 288.725C101.069 290.558 99.5319 293.308 96.4507 296.974C93.8996 299.994 90.1981 305.403 88.2272 308.973C86.2664 312.543 84.6457 316.602 84.6357 317.972C84.6257 319.352 86.0563 322.382 87.8271 324.722L91.0384 328.971C91.0384 364.698 90.9984 365.008 88.5374 367.968C87.1668 369.618 86.0163 372.207 85.9963 373.717C85.9663 375.227 85.326 378.267 84.5757 380.467C83.3752 383.936 83.4052 384.996 84.7658 388.466C85.7862 391.086 86.5365 397.505 86.9267 407.054C87.5169 421.173 87.627 421.773 90.5382 425.963C93.4094 430.092 93.5595 430.832 93.8696 442.371C94.0597 449.021 93.7595 460.76 93.2193 468.459C92.3389 480.778 91.7787 483.658 88.4973 492.457L84.7758 502.456C87.2868 510.205 88.0171 514.595 88.0272 517.205C88.0372 521.284 88.4273 522.204 90.7883 523.734C92.2989 524.714 95.2302 526.294 97.291 527.234C99.3519 528.184 101.943 528.954 103.043 528.954C104.604 528.954 105.044 529.624 105.044 531.953C105.044 533.603 105.554 536.863 106.165 539.203C107.085 542.662 106.995 544.432 105.664 548.702C104.774 551.592 104.054 555.411 104.074 557.201C104.094 559.701 103.514 560.741 101.573 561.701C100.182 562.391 98.3715 562.951 97.5411 562.951C96.7108 562.951 95.3702 564.301 94.5399 565.95C93.7095 567.6 93.0392 570.97 93.0392 573.45V577.949C101.953 577.929 107.245 577.269 110.547 576.47C113.848 575.67 120.941 575.01 126.303 574.99L136.057 574.95C136.057 564.311 135.507 561.131 134.547 559.701C133.716 558.461 132.606 554.971 132.085 551.952C131.565 548.932 130.695 544.202 130.155 541.453C129.614 538.703 129.154 533.973 129.124 530.953C129.104 527.934 129.414 524.934 129.825 524.284C130.225 523.644 131.805 522.744 133.336 522.284C134.857 521.834 136.287 521.004 136.497 520.454C136.717 519.904 136.167 512.475 135.287 503.956C133.976 491.317 133.896 487.167 134.867 481.458C135.517 477.608 136.817 466.809 137.758 457.46C138.698 448.111 139.489 436.792 139.509 432.302C139.549 425.593 139.939 423.633 141.679 421.303C142.84 419.743 144.271 416.894 144.861 414.964C145.441 413.034 147.062 408.764 148.462 405.465C149.873 402.165 151.013 398.335 151.013 396.965V394.465C154.975 398.345 156.756 401.485 157.536 403.965C158.316 406.444 159.287 411.614 159.687 415.464C160.237 420.663 161.378 424.263 164.129 429.462C166.17 433.312 170.652 443.211 174.083 451.46C179.565 464.619 180.416 467.559 181.056 475.458C181.576 481.968 182.506 485.977 184.387 489.957C185.828 492.977 188.149 497.476 189.549 499.956C191.47 503.356 192.09 505.916 192.12 510.455C192.141 513.755 192.811 520.054 193.621 524.454C194.431 528.854 195.652 533.023 196.342 533.713C197.023 534.413 199.834 535.083 202.575 535.213L207.577 535.453C208.857 543.272 208.797 548.722 208.247 552.952C207.717 557.081 206.587 562.251 205.736 564.451C204.566 567.47 204.416 569.37 205.136 572.2C205.896 575.2 206.737 576.15 209.338 576.969C211.128 577.529 213.94 577.959 215.59 577.939C217.241 577.919 219.382 577.239 220.342 576.419C221.883 575.12 222.443 575.13 225.094 576.45C227.255 577.529 233.498 578.159 247.454 578.699C263.99 579.339 267.072 579.229 268.512 577.949C269.443 577.119 270.173 575.1 270.133 573.45C270.093 571.74 268.892 569.05 267.332 567.18C265.351 564.791 263.53 563.751 260.609 563.361C258.408 563.061 255.597 562.621 254.356 562.391C253.116 562.151 249.134 559.361 245.503 556.201C241.861 553.042 238.07 549.102 237.059 547.452C236.049 545.802 234.908 542.432 234.528 539.953C233.878 535.693 234.018 535.313 237.219 532.773C240.551 530.134 240.601 529.974 240.601 522.194C240.601 514.845 240.351 513.895 236.929 508.376C234.908 505.126 231.767 498.856 229.936 494.457L226.625 486.457C226.425 437.322 226.065 431.822 223.233 410.464C221.483 397.265 219.142 380.837 218.031 373.967C216.921 367.088 214.9 356.629 213.549 350.719C212.199 344.81 211.108 338.96 211.138 337.72C211.178 336.251 212.999 334.011 216.391 331.251L221.593 327.041C224.984 334.351 225.995 337.71 226.035 339.22C226.065 340.73 225.704 342.98 225.214 344.22C224.734 345.46 224.064 348.829 223.714 351.719C223.193 356.149 223.363 357.079 224.844 357.649C225.805 358.029 227.155 359.159 227.845 360.148C228.536 361.148 229.886 361.948 230.847 361.928C232.407 361.888 232.437 362.048 231.097 363.498C229.766 364.948 229.766 365.228 231.097 366.028C231.917 366.528 232.817 366.818 233.098 366.668C233.378 366.528 236.189 365.188 239.35 363.688C242.511 362.188 245.493 360.178 245.973 359.219C246.453 358.259 247.183 354.089 247.594 349.969C248.014 345.84 248.324 339.99 248.304 336.97C248.274 333.951 248.274 326.521 248.284 320.472C248.314 311.353 248.744 308.283 250.805 302.474C252.876 296.634 253.236 294.054 252.946 286.955C252.616 278.746 252.356 277.916 245.413 263.457C239.78 251.738 237.319 245.109 234.138 232.98C231.897 224.45 228.055 212.301 225.604 205.982C223.153 199.663 219.062 191.103 216.511 186.984C213.97 182.854 210.848 177.454 209.578 174.985C208.307 172.515 205.996 169.275 204.426 167.805C202.625 166.095 199.033 164.466 194.582 163.316C190.73 162.336 186.568 160.726 185.328 159.756C184.087 158.786 182.657 156.296 182.146 154.236C181.626 152.177 180.616 149.967 179.895 149.327C179.165 148.687 177.224 148.007 175.574 147.827C172.953 147.527 172.532 147.047 172.242 143.987C172.052 142.058 171.382 139.908 170.742 139.198C170.101 138.478 168.781 137.918 167.82 137.948C166.86 137.968 165.85 137.308 165.569 136.488C165.289 135.668 166.43 132.848 168.09 130.239C169.751 127.629 171.102 125.149 171.092 124.739C171.082 124.329 171.412 124.159 171.822 124.369C172.232 124.569 172.912 126.369 173.323 128.369C173.733 130.359 174.763 132.328 175.614 132.738C176.454 133.148 177.574 133.038 178.095 132.488C178.695 131.848 178.185 130.229 176.654 127.989C175.344 126.069 174.003 122.799 173.673 120.739L173.073 116.99C180.075 116.99 182.597 116.36 183.507 115.49C184.367 114.66 185.078 112.41 185.078 110.49C185.078 108.571 183.987 104.631 182.667 101.741C181.336 98.8513 179.935 94.6917 179.565 92.4919C179.185 90.2921 177.835 86.4624 176.574 83.9926C175.303 81.5229 173.213 78.5031 171.922 77.3032C170.632 76.0933 167.32 74.0935 164.569 72.8636C160.998 71.2638 156.986 70.4838 150.563 70.1639C143.64 69.8239 140.169 70.1439 135.557 71.5637C131.585 72.7936 128.074 74.7835 125.183 77.4532C122.782 79.673 119.97 83.1827 118.93 85.2425C117.9 87.3024 116.769 90.902 116.429 93.2418C116.089 95.5816 115.188 98.5014 114.428 99.7413C113.558 101.161 113.028 105.041 113.008 110.24C112.978 115.77 113.388 118.87 114.258 119.66C114.968 120.299 117.119 120.969 119.04 121.159C121.631 121.399 122.612 122.009 122.832 123.489C122.992 124.589 123.302 126.389 123.522 127.489C123.732 128.589 124.842 129.829 125.983 130.239C127.644 130.839 128.004 131.728 127.804 134.738C127.574 138.238 127.324 138.508 124.052 138.818C122.121 139.008 119.94 139.678 119.19 140.318C118.44 140.958 117.189 143.057 116.399 144.987L114.968 148.487C105.765 147.097 104.754 147.277 103.043 148.987C101.483 150.547 101.153 151.877 101.543 154.986C102.013 158.716 101.873 158.986 99.5419 158.986C97.9813 158.986 97.0409 158.416 97.0409 157.486C97.0409 156.666 97.7112 155.986 98.5415 155.986C99.672 155.986 100.042 154.766 100.042 150.987C100.042 147.207 99.672 145.987 98.5415 145.987C97.371 145.987 97.0409 144.657 97.0409 139.988C97.0409 136.658 97.4811 133.988 98.0413 133.988C98.5915 133.988 99.0417 132.868 99.0417 131.488C99.0417 130.119 98.5915 128.989 98.0413 128.989C97.4111 128.989 97.0409 121.659 97.0409 108.99C97.0409 96.3216 97.4111 88.9922 98.0413 88.9922C98.5915 88.9922 99.0217 87.0824 99.0017 84.7426C98.9717 82.1028 99.5519 79.923 100.542 78.9931C101.463 78.1232 102.113 75.9234 102.083 73.7435C102.053 70.7138 101.463 69.6139 99.0417 67.994C96.2606 66.1442 96.0405 65.5543 96.0405 59.9948C96.0405 54.2653 95.9304 53.9953 93.5394 53.9953C91.7087 53.9953 91.0384 53.4653 91.0384 51.9954C91.0384 50.6622 90.3715 49.9956 89.0376 49.9956C87.0868 49.9956 87.0367 49.3257 87.0367 24.9978V0H81.0342V25.4978ZM88.0171 58.7449C88.0272 58.3349 89.1576 57.9949 90.5382 57.9949C92.369 57.9949 93.0392 58.5249 93.0392 59.9948C93.0392 61.0947 92.479 62.0046 91.7887 62.0146C91.0984 62.0246 89.968 61.4546 89.2677 60.7647C88.5774 60.0647 88.0071 59.1548 88.0171 58.7449ZM94.5399 69.6539C95.0001 69.2939 96.2206 69.7739 97.241 70.7438C98.2714 71.7037 99.1118 73.1636 99.1118 73.9935C99.1118 74.8234 98.3014 76.2833 97.321 77.2432C96.3406 78.2132 95.1901 78.6631 94.76 78.2431C94.3298 77.8332 93.9196 75.8834 93.8496 73.9135C93.7695 71.9437 94.0797 70.0239 94.5399 69.6539ZM104.504 150.677C104.944 150.327 107.265 150.127 109.656 150.237C112.047 150.337 114.018 150.887 114.038 151.457C114.068 152.027 113.538 153.047 112.868 153.737C112.197 154.426 109.936 154.986 107.845 154.986C104.884 154.986 104.004 154.576 103.874 153.157C103.784 152.147 104.074 151.037 104.504 150.677ZM171.072 151.907C171.892 151.417 173.813 151.007 175.324 151.007C177.334 150.987 178.345 151.657 179.075 153.487C179.625 154.866 180.075 156.666 180.075 157.486C180.075 158.306 179.395 158.986 178.575 158.986C177.755 158.986 176.394 157.856 175.574 156.486C174.753 155.106 173.063 153.717 171.822 153.387C169.981 152.897 169.841 152.627 171.072 151.907ZM198.253 279.226C198.053 277.846 198.443 276.986 199.253 277.006C199.984 277.016 201.384 277.806 202.365 278.756C203.345 279.696 204.135 280.815 204.115 281.225C204.095 281.635 202.845 281.865 201.334 281.725C199.343 281.545 198.493 280.855 198.253 279.226ZM205.196 289.615C205.346 287.065 205.646 286.825 207.977 287.405C209.418 287.755 211.509 289.045 212.639 290.265C213.9 291.614 214.97 294.604 215.41 297.974C215.8 300.994 215.89 303.703 215.61 303.973C215.33 304.243 214.13 303.573 212.949 302.474C211.769 301.374 209.498 298.674 207.907 296.474C206.126 294.004 205.096 291.384 205.196 289.615ZM218.101 311.973C218.151 308.643 218.231 308.573 219.642 310.473C220.462 311.573 221.103 314.043 221.083 315.972C221.033 319.302 220.952 319.372 219.542 317.472C218.722 316.372 218.081 313.903 218.101 311.973ZM229.676 347.22C229.926 345.98 230.797 344.97 231.617 344.97C232.427 344.97 234.238 345.98 235.639 347.22C237.92 349.229 238.08 349.819 237.139 352.719C236.329 355.239 235.539 355.969 233.598 355.969C232.217 355.969 230.416 356.199 229.596 356.469C228.376 356.879 228.205 356.259 228.656 353.219C228.976 351.159 229.426 348.459 229.676 347.22ZM1454.61 162.516C1448.27 163.306 1437.48 165.116 1430.6 166.555C1423.72 167.985 1412.69 170.945 1406.09 173.125C1399.48 175.305 1389.58 179.354 1384.08 182.124C1378.57 184.894 1371.15 189.213 1367.57 191.723C1363.99 194.233 1358.66 198.353 1355.71 200.882C1352.76 203.412 1347.46 209.082 1343.93 213.481C1340.4 217.881 1335.77 224.86 1333.65 228.98C1331.51 233.11 1328.65 239.629 1327.27 243.479C1325.9 247.328 1323.95 254.298 1322.94 258.977C1321.54 265.467 1321.11 271.746 1321.11 285.475C1321.11 298.324 1321.6 305.903 1322.8 311.973C1323.73 316.652 1325.68 324.072 1327.13 328.471C1328.59 332.871 1331.51 339.85 1333.65 343.97C1335.77 348.1 1340.38 355.069 1343.89 359.469C1347.4 363.868 1353.37 369.988 1357.18 373.057C1360.97 376.137 1366.1 380.007 1368.57 381.677C1371.04 383.346 1376.9 386.626 1381.58 388.966C1386.25 391.316 1393.91 394.685 1398.58 396.465C1403.25 398.255 1412.04 401.085 1418.09 402.765C1424.14 404.455 1434.5 406.964 1441.1 408.354C1447.7 409.734 1462.33 412.664 1473.61 414.854C1484.9 417.054 1498.17 420.023 1503.13 421.463C1508.08 422.913 1514.83 425.263 1518.13 426.703C1521.43 428.143 1527.06 431.192 1530.64 433.492C1534.75 436.142 1538.24 439.372 1540.14 442.281C1541.79 444.811 1543.81 446.881 1544.64 446.881C1545.47 446.881 1568.65 442.271 1596.17 436.652C1645.5 426.563 1646.19 426.383 1646.48 423.943C1646.63 422.583 1645.61 416.964 1644.21 411.464C1642.79 405.964 1640.17 398.095 1638.38 393.966C1636.59 389.846 1632.89 383.146 1630.15 379.087C1627.42 375.027 1621.81 368.338 1617.67 364.228C1613.55 360.128 1606.57 354.379 1602.17 351.469C1597.77 348.569 1590.45 344.34 1585.91 342.08C1581.37 339.82 1572.37 336.151 1565.9 333.921C1559.44 331.701 1548.98 328.571 1542.64 326.971C1536.31 325.382 1518.76 321.782 1503.63 318.982C1488.5 316.182 1472.06 312.953 1467.11 311.803C1462.16 310.653 1454.28 308.383 1449.6 306.753C1444.93 305.133 1439.07 302.654 1436.6 301.254C1434.13 299.864 1430.37 297.084 1428.27 295.094C1426.15 293.104 1423.5 289.675 1422.38 287.475C1420.69 284.175 1420.41 282.165 1420.8 275.976C1421.12 270.786 1421.98 267.097 1423.59 263.977C1424.87 261.497 1428.22 257.287 1431.01 254.608C1433.81 251.928 1439.25 248.238 1443.1 246.408C1446.95 244.569 1454.16 242.039 1459.11 240.779C1467.23 238.709 1470.36 238.489 1491.12 238.509C1511.68 238.539 1515.68 238.819 1528.64 241.209C1536.61 242.669 1550.12 245.668 1558.65 247.868C1567.18 250.058 1580.69 253.968 1588.66 256.538C1596.64 259.117 1609.02 263.417 1616.17 266.107C1623.33 268.806 1629.4 270.996 1629.68 270.986C1629.96 270.986 1629.2 251.738 1628 228.23C1626.8 204.722 1625.8 184.354 1625.77 182.984C1625.73 180.734 1624.96 180.264 1617.94 178.284C1613.67 177.065 1604.09 174.735 1596.67 173.095C1589.24 171.445 1577.54 169.145 1570.65 167.965C1563.78 166.795 1551.4 164.926 1543.14 163.826C1531.69 162.296 1520.79 161.736 1497.12 161.456C1474.27 161.176 1463.08 161.456 1454.61 162.516ZM281.128 354.459L281.118 536.953C291.582 537.723 313.531 538.863 336.641 539.993C359.75 541.113 383.72 542.352 389.913 542.742L401.168 543.452L400.667 172.485L281.138 171.965L281.128 354.459ZM506.681 173.235C506.411 173.925 506.311 258.407 506.451 360.968L506.711 547.452C537.724 548.412 564.846 549.092 586.995 549.572L627.262 550.452V420.963C725.613 420.323 729.584 420.163 741.309 418.033C748.182 416.794 758.987 414.074 765.319 412.004C771.642 409.934 780.646 406.314 785.327 403.965C789.999 401.615 797.202 397.435 801.334 394.675C805.456 391.906 812.229 386.236 816.38 382.057C820.532 377.887 826.315 371.098 829.226 366.968C832.147 362.848 836.059 356.429 837.939 352.719C839.81 349.009 842.681 342.03 844.302 337.22C845.923 332.411 847.974 324.422 848.864 319.472C849.804 314.243 850.475 305.033 850.475 297.474C850.475 289.915 849.804 280.715 848.864 275.476C847.974 270.526 845.693 261.757 843.782 255.978C841.881 250.208 838.28 241.879 835.779 237.479C833.287 233.08 828.846 226.33 825.904 222.481C822.963 218.631 817.471 212.581 813.699 209.042C809.928 205.502 803.005 200.122 798.333 197.093C793.651 194.063 786.228 189.903 781.826 187.844C777.424 185.784 769.771 182.774 764.819 181.144C759.867 179.514 750.973 177.234 745.061 176.085C739.148 174.935 726.993 173.545 718.049 172.995C709.106 172.455 657.994 172.005 604.472 171.995C527.54 171.985 507.062 172.245 506.681 173.235ZM627.552 248.698L652.662 249.258C669.679 249.638 680.844 250.378 687.287 251.528C692.509 252.468 699.262 254.098 702.293 255.148C705.314 256.208 709.816 258.357 712.297 259.947C714.768 261.537 718.35 264.997 720.24 267.657C722.141 270.306 724.592 274.956 725.703 277.976C727.343 282.475 727.713 286.035 727.753 297.474C727.793 308.823 727.423 312.613 725.823 317.472C724.732 320.772 722.461 325.272 720.781 327.471C719.09 329.671 715.258 332.951 712.257 334.761C709.246 336.571 704.544 338.71 701.793 339.52C699.042 340.33 694.31 341.46 691.288 342.04C688.257 342.62 672.621 343.29 627.262 343.97L627.402 296.334L627.552 248.698ZM926.886 172.655C926.426 173.025 926.126 254.918 926.226 354.639C926.366 515.075 926.556 535.953 927.887 535.953C928.717 535.953 944.804 534.593 963.652 532.933C982.5 531.273 1007.15 529.024 1018.42 527.954C1029.71 526.874 1040.84 525.764 1043.18 525.474L1047.44 524.954V420.963C1145.8 420.323 1149.77 420.163 1161.48 418.043C1168.37 416.794 1179.17 414.084 1185.49 412.004C1191.83 409.934 1200.83 406.314 1205.5 403.965C1210.18 401.615 1217.39 397.435 1221.51 394.685C1225.64 391.926 1232.61 386.026 1237.02 381.567C1241.42 377.107 1247.56 369.638 1250.66 364.968C1253.76 360.298 1257.53 353.999 1259.04 350.969C1260.55 347.95 1263.1 341.42 1264.7 336.471C1266.31 331.521 1268.28 323.652 1269.09 318.972C1269.89 314.302 1270.55 304.623 1270.55 297.474C1270.55 290.215 1269.86 280.505 1268.99 275.476C1268.13 270.526 1265.87 261.757 1263.97 255.978C1262.06 250.208 1258.45 241.879 1255.96 237.479C1253.47 233.08 1249.02 226.33 1246.08 222.481C1243.15 218.631 1237.66 212.591 1233.87 209.042C1230.1 205.502 1223.19 200.122 1218.51 197.093C1213.84 194.063 1206.4 189.903 1202 187.844C1197.6 185.794 1189.95 182.774 1184.99 181.144C1180.04 179.514 1171.15 177.244 1165.24 176.085C1159.32 174.935 1147.17 173.545 1138.22 172.995C1129.28 172.455 1078.26 172.005 1024.85 171.995C971.425 171.995 927.347 172.285 926.886 172.655ZM1047.73 248.698L1072.85 249.258C1089.13 249.618 1101.12 250.388 1106.96 251.428C1111.91 252.308 1118.67 253.908 1121.97 254.988C1125.27 256.058 1130.08 258.407 1132.66 260.207C1135.24 262.007 1138.7 265.277 1140.36 267.477C1142.01 269.676 1144.33 274.176 1145.5 277.476C1146.87 281.335 1147.84 287.065 1148.2 293.474C1148.54 299.504 1148.27 306.263 1147.54 310.473C1146.87 314.322 1145.12 319.902 1143.65 322.862C1142.18 325.821 1139.51 329.531 1137.72 331.111C1135.93 332.681 1132.11 335.161 1129.22 336.611C1126.33 338.06 1119.92 340.13 1114.96 341.21C1107.48 342.85 1101.03 343.25 1047.44 343.97L1047.59 296.334L1047.73 248.698ZM2043.06 265.487C2017.36 316.902 1996.55 359.229 1996.83 359.539C1997.1 359.849 2019.16 356.929 2045.85 353.039C2072.53 349.149 2096.81 345.63 2099.81 345.22L2105.26 344.48C2124.73 303.063 2130.68 291.365 2131.04 291.764C2131.4 292.154 2136.06 302.604 2141.4 314.982C2146.74 327.351 2151.18 337.57 2151.26 337.69C2151.33 337.81 2166.02 335.881 2183.91 333.401C2201.79 330.931 2223.18 327.981 2231.43 326.841C2239.68 325.711 2249.07 324.492 2252.29 324.132C2255.52 323.772 2258.33 323.142 2258.54 322.732C2258.76 322.322 2242.61 288.225 2222.68 246.958L2186.41 171.935L2089.79 171.995L2043.06 265.487ZM2251.44 331.131C2248.14 331.651 2226.31 335.001 2202.92 338.58C2179.54 342.16 2159.2 345.4 2157.73 345.78L2155.07 346.48C2185.96 417.773 2194.75 438.592 2194.54 438.732C2194.32 438.872 2164.16 438.872 2127.52 438.732L2060.89 438.472C2091.14 374.157 2099.8 355.409 2099.65 355.309C2099.49 355.219 2080.25 358.489 2056.86 362.568C2033.48 366.648 2008.65 370.998 2001.7 372.237L1989.06 374.477C1913.68 525.204 1891.79 569.19 1891.79 569.46C1891.79 569.74 1915.95 569.85 1945.47 569.71L1999.14 569.46L2029.35 505.036L2224.23 505.466C2229.52 517.865 2235.86 532.393 2241.74 545.752L2252.44 570.04C2364.76 569.97 2377.98 569.7 2377.96 568.71C2377.94 568.02 2352.13 514.145 2320.6 448.971C2264.46 332.951 2263.21 330.481 2260.36 330.331C2258.75 330.251 2254.74 330.601 2251.44 331.131ZM1903.49 370.218C1898.7 373.657 1894.9 376.557 1895.04 376.657C1895.18 376.747 1897.32 376.407 1899.79 375.897C1902.85 375.257 1905.89 373.547 1909.3 370.558C1912.84 367.438 1914 365.838 1913.26 365.058C1912.51 364.278 1909.74 365.738 1903.49 370.218ZM1864.78 398.125C1863.41 398.685 1859.67 401.015 1856.48 403.305C1852.56 406.134 1850.73 408.114 1850.81 409.474C1850.87 410.574 1851.53 413.054 1852.27 414.974C1853.34 417.753 1853.63 418.003 1853.69 416.224C1853.74 414.984 1854.33 412.794 1855.02 411.364C1855.71 409.924 1859.42 406.464 1863.28 403.685C1867.13 400.895 1870.71 398.245 1871.23 397.795C1871.76 397.335 1871.11 397.005 1869.73 397.035C1868.38 397.075 1866.16 397.565 1864.78 398.125ZM1773.74 463.569C1757.51 475.358 1744.12 485.448 1743.98 485.987C1743.84 486.527 1744.18 487.197 1744.73 487.467C1745.28 487.747 1747.19 487.157 1748.98 486.167C1750.77 485.168 1763.48 476.248 1777.24 466.329C1791 456.42 1803.26 447.781 1804.5 447.141C1805.74 446.501 1807.76 445.991 1809 446.001C1811.16 446.041 1811.14 445.961 1808.5 444.001C1806.99 442.891 1805.19 442.001 1804.5 442.051C1803.81 442.091 1789.98 451.77 1773.74 463.569ZM1637.18 449.561C1632.23 450.901 1609.5 456.98 1586.66 463.069L1545.14 474.148C1538.17 481.928 1534.12 485.418 1531.64 486.917C1529.17 488.417 1524.44 490.647 1521.13 491.877C1517.83 493.107 1512.21 494.787 1508.63 495.617C1504.35 496.607 1494.42 497.296 1479.62 497.626L1457.11 498.126C1413.69 508.786 1387.36 515.005 1370.57 518.825C1353.79 522.644 1337.46 526.374 1334.29 527.114C1328.82 528.394 1328.52 528.624 1328.57 531.464C1328.6 533.113 1329.06 540.543 1329.59 547.962C1330.12 555.391 1330.67 561.561 1330.81 561.671C1330.94 561.791 1334.89 563.021 1339.56 564.411C1344.24 565.8 1355.71 568.51 1365.07 570.42C1374.42 572.33 1389.06 574.82 1397.58 575.95C1406.12 577.069 1421.19 578.629 1431.1 579.409C1441 580.189 1458.79 581.119 1470.61 581.489C1483.51 581.879 1498.73 581.699 1508.63 581.029C1517.71 580.409 1529.87 579.209 1535.64 578.349C1541.42 577.499 1551.33 575.46 1557.65 573.82C1563.98 572.18 1573.44 569.07 1578.66 566.9C1583.89 564.741 1591.7 560.831 1596.04 558.211C1600.37 555.601 1607.96 549.642 1612.92 544.962C1618.23 539.943 1624.26 532.983 1627.61 527.964C1630.72 523.294 1634.68 516.095 1636.41 511.965C1638.13 507.846 1640.72 500.416 1642.16 495.467C1643.6 490.517 1645.42 482.198 1646.19 476.968C1646.95 471.749 1647.84 462.86 1648.16 457.22C1648.6 449.271 1648.45 446.991 1647.46 447.041C1646.76 447.081 1642.13 448.211 1637.18 449.561ZM1324.9 468.129C1325.26 473.269 1325.56 479.718 1325.57 482.468C1325.58 485.218 1325.91 488.017 1326.32 488.697C1326.88 489.637 1332.48 488.997 1350.31 485.947C1363.11 483.758 1374.02 481.968 1374.57 481.968C1375.12 481.968 1375.58 481.628 1375.59 481.218C1375.6 480.808 1372.56 479.378 1368.84 478.048C1365.12 476.718 1356.22 473.179 1349.06 470.189C1341.91 467.199 1333.4 463.409 1330.15 461.77L1324.24 458.78L1324.9 468.129ZM281.278 565.341L281.118 569.97C322.985 569.97 335.19 569.62 335.24 569.19C335.3 568.76 324.606 566.9 311.48 565.07C298.355 563.241 286.23 561.501 284.529 561.221C281.458 560.711 281.428 560.741 281.278 565.341Z" fill="url(#paint0_linear_715_827)" stroke="#FFCB08" stroke-width="30" mask="url(#path-4-inside-1_715_827)"/>
	<path d="M2272 321L2149 338C2149 338 2149.5 340.5 2150.5 343C2151.5 345.5 2154.5 345.5 2154.5 345.5C2154.5 345.5 2252 330.5 2275.5 327.5C2299 324.5 2396.5 312 2396.5 312C2396.5 312 2398.5 312 2398.5 309C2398.5 306 2396.5 306 2396.5 306L2272 321Z" fill="url(#paint1_linear_715_827)"/>
	<path d="M380 541.5C459.5 546.5 743 548 743 548L744.5 610.5C744.5 610.5 522.5 625.5 366 627.5C209.5 629.5 0 623.5 0 623.5V593C0 593 142 586.5 186.5 584.5C231 582.5 372 572 372 572C372 572 52.5 525.5 39.5 524C26.5 522.5 16 519 16 519C16 519 43.5666 520.329 88.5 523C174.5 529.5 300.5 536.5 380 541.5Z" fill="url(#paint2_linear_715_827)"/>
	<defs>
		<linearGradient id="paint0_linear_715_827" x1="1331.5" y1="547" x2="1342.5" y2="155.5" gradientUnits="userSpaceOnUse">
			<stop stop-color="#29252C"/>
			<stop offset="0.0416131" stop-color="#757479"/>
			<stop offset="0.543351" stop-color="#FFFFFD"/>
			<stop offset="1" stop-color="#FED73C"/>
		</linearGradient>
		<linearGradient id="paint1_linear_715_827" x1="2149" y1="325.75" x2="2399" y2="308" gradientUnits="userSpaceOnUse">
			<stop stop-color="#F1C321"/>
			<stop offset="1" stop-color="#4B411A"/>
		</linearGradient>
		<linearGradient id="paint2_linear_715_827" x1="0" y1="573.454" x2="738" y2="573.454" gradientUnits="userSpaceOnUse">
			<stop stop-color="#4B411A"/>
			<stop offset="1" stop-color="#F8C609"/>
		</linearGradient>
	</defs>
</svg>
