<svg width="196" height="50" viewBox="0 0 196 50" fill="none" xmlns="http://www.w3.org/2000/svg">
<path d="M7.33065 24.6733C6.68293 23.7885 6.143 22.9288 5.70715 22.1015C5.97257 22.0692 6.2343 21.9782 6.47813 21.8234C6.6757 21.6977 6.84677 21.5396 6.98908 21.358C7.34533 22.0177 7.78096 22.7109 8.29826 23.4344C9.34466 22.1811 10.5873 20.9393 11.9936 19.7602C12.1754 17.7545 12.4851 15.8828 12.901 14.2039C8.25751 13.2486 5.74246 14.5892 5.76279 17.4031C5.27868 17.281 4.76226 17.348 4.30817 17.6366L4.30645 17.6377C4.05478 13.5714 7.3644 11.2985 13.3454 12.6116C16.2976 3.17548 22.5142 3.34531 25.7875 12.9515C26.7737 12.7876 27.6891 12.7191 28.5301 12.7366C28.4248 13.0231 28.3693 13.3403 28.375 13.6757C28.3792 13.9264 28.4172 14.1685 28.4841 14.3971C27.8137 14.3929 27.0807 14.4487 26.286 14.5697C26.759 16.2729 27.1322 18.1635 27.3822 20.1807C28.8293 21.4376 30.1154 22.7486 31.205 24.0602C34.0699 20.0213 34.2209 16.8346 32.0911 15.3343C32.4022 14.9252 32.5853 14.3857 32.5753 13.7905L32.5746 13.7664C35.7797 15.709 35.977 20.1814 32.2154 25.3531C38.0915 33.3774 35.1035 39.3687 26.2004 37.4149C25.8691 38.4747 25.4976 39.4136 25.0944 40.2327C24.9273 39.9869 24.717 39.7712 24.4676 39.6028C24.2662 39.4666 24.0539 39.3717 23.8387 39.3156C24.1562 38.6524 24.4563 37.893 24.7345 37.0357C23.2152 36.5858 21.5992 35.9374 19.9432 35.0987C18.3139 35.8476 16.7185 36.4082 15.213 36.7754C16.9754 41.7724 19.3408 43.6343 21.4725 42.3367C21.6358 42.8697 21.9615 43.3478 22.4224 43.6648C19.4596 45.7542 15.9612 43.542 13.7583 37.075C4.91233 38.5441 1.72085 32.3857 7.33065 24.6733ZM16.7685 13.6606L16.7455 12.2979C15.7863 12.2592 15.7584 10.6113 16.7173 10.6251L22.3456 10.7788C23.3047 10.8174 23.3326 12.4654 22.3738 12.4516L22.3968 13.8144C23.0556 13.5932 23.702 13.4049 24.333 13.2508C21.5788 5.43289 17.304 5.31611 14.8115 12.9907C15.448 13.1794 16.1018 13.4032 16.7685 13.6606ZM27.6081 22.4771C27.7426 24.3105 27.7737 26.1525 27.701 27.9802C28.654 27.1042 29.5102 26.2034 30.2551 25.2996C29.479 24.354 28.5916 23.4057 27.6081 22.4771ZM27.5525 30.2664C27.3704 32.272 27.0607 34.1437 26.6448 35.8226C33.9121 37.3189 35.9677 33.1902 31.2477 26.5921C30.2014 27.8454 28.9585 29.0873 27.5525 30.2664ZM12.1638 29.8459C10.7164 28.5889 9.43069 27.278 8.341 25.9663C3.83942 32.3123 6.03654 36.5574 13.2598 35.4569C12.7867 33.7538 12.4136 31.8634 12.1638 29.8459ZM11.9379 27.5495C11.8031 25.7162 11.772 23.8742 11.845 22.0465C10.8915 22.9224 10.0356 23.8228 9.29062 24.7268C10.0668 25.6722 10.9539 26.6207 11.9379 27.5495ZM13.6256 18.4758C14.654 17.716 15.7198 17.0156 16.8144 16.3788L16.7982 15.4183C15.9609 15.0772 15.1445 14.7925 14.3581 14.5656C14.0531 15.7666 13.8059 17.0782 13.6256 18.4758ZM13.4004 20.7103C13.2007 23.4327 13.2483 26.2361 13.5399 28.9719C15.526 30.6316 17.6886 32.0911 19.9124 33.2745C22.0979 32.2121 24.2139 30.8686 26.1453 29.3163C26.3452 26.5944 26.2978 23.79 26.0059 21.0546C24.4189 19.7288 22.729 18.5401 20.986 17.5111C20.9573 15.8111 20.9286 14.1115 20.8999 12.4115L18.2194 12.3383C18.2481 14.0382 18.2768 15.7379 18.3055 17.4378C16.5954 18.3728 14.9443 19.4695 13.4004 20.7103ZM13.8407 31.2207C14.0687 32.6296 14.3601 33.956 14.706 35.1746C15.7869 34.919 16.9212 34.556 18.0854 34.0866C16.6235 33.2346 15.2024 32.2745 13.8407 31.2207ZM25.9202 31.5507C24.5931 32.531 23.203 33.4144 21.7686 34.1872C22.9495 34.7206 24.0975 35.1461 25.1878 35.4609C25.4927 34.26 25.74 32.9485 25.9202 31.5507ZM25.7051 18.8058C25.4775 17.3971 25.1856 16.0703 24.8399 14.852C24.0604 15.0361 23.2529 15.2766 22.4265 15.5723L22.4427 16.5326C23.5595 17.2298 24.65 17.9889 25.7051 18.8058Z" fill="#11005E"/>
<path d="M19.8981 31.7853C21.6527 30.918 23.3977 29.8044 24.9559 28.5562C25.0946 26.5834 25.0787 24.5105 24.9112 22.508C23.1015 21.5326 21.7398 22.2 20.2897 22.9105C20.1146 22.9963 19.9383 23.0828 19.7597 23.167C19.7656 23.2077 19.7689 23.249 19.7696 23.2908C19.7772 23.7412 19.4576 24.1518 18.9924 24.1391C18.6969 24.131 18.452 23.9521 18.3127 23.7093C17.7402 23.846 17.136 23.8754 16.4861 23.699C15.8713 23.5321 15.2321 23.1856 14.5514 22.5993C14.4755 24.4783 14.5347 26.4173 14.7269 28.2756C16.3288 29.6105 18.1125 30.8209 19.8981 31.7853ZM17.9654 25.8564C18.364 25.8673 18.6431 26.2327 18.6494 26.6075C18.6557 26.9825 18.3887 27.333 17.99 27.3221C17.5912 27.3111 17.3124 26.9456 17.3061 26.5706C17.2998 26.1959 17.5667 25.8454 17.9654 25.8564ZM20.7567 20.8898C20.7524 20.6347 20.5745 20.4767 20.4201 20.4725C20.2662 20.4683 20.0934 20.6165 20.0977 20.8717C20.102 21.1273 20.2799 21.285 20.4339 21.2892C20.5882 21.2935 20.761 21.1453 20.7567 20.8898ZM19.7098 17.1109C19.7072 16.9554 19.6015 16.8804 19.535 16.8786C19.4685 16.8768 19.3652 16.9461 19.3678 17.1015C19.3704 17.257 19.4763 17.3322 19.5427 17.334C19.609 17.3358 19.7124 17.2665 19.7098 17.1109ZM18.8297 19.969C18.8223 19.5285 18.5104 19.2171 18.1936 19.2084C17.8774 19.1997 17.5754 19.4943 17.5828 19.9348C17.5902 20.3754 17.9024 20.6868 18.2186 20.6955C18.5354 20.7042 18.8371 20.4096 18.8297 19.969ZM19.6189 28.2604C20.193 28.2761 20.6161 28.8075 20.6258 29.3818C20.6354 29.9561 20.2297 30.4646 19.6557 30.4488C19.0819 30.4331 18.6584 29.9019 18.6488 29.3276C18.6391 28.7532 19.0451 28.2446 19.6189 28.2604ZM21.5062 24.3529C22.3839 24.3769 23.0583 25.1959 23.0738 26.1167C23.0893 27.0375 22.4417 27.8198 21.5641 27.7957C20.6864 27.7717 20.0117 26.9531 19.9963 26.0322C19.9808 25.1114 20.6285 24.3288 21.5062 24.3529Z" fill="#F4EF89" stroke="#11005E" stroke-width="0.5"/>
<path d="M24.4583 42.449L24.4583 42.449C24.8014 41.7648 24.5666 40.883 23.9701 40.4823C23.3931 40.0948 22.6526 40.2814 22.3165 40.9521L22.3165 40.9521C21.9733 41.6364 22.2082 42.5185 22.8043 42.9189L22.8044 42.9189C23.3812 43.3064 24.1219 43.1199 24.4583 42.449ZM6.33127 19.1608L6.33126 19.1607C5.97195 18.471 5.22407 18.2441 4.65989 18.6004C4.07657 18.9689 3.87169 19.8388 4.23804 20.5425C4.5976 21.2323 5.34517 21.4592 5.9095 21.1029C6.4928 20.7341 6.69777 19.8641 6.33127 19.1608ZM31.6558 13.9046C31.6421 13.0939 31.0556 12.4708 30.4028 12.453C29.7497 12.4353 29.1839 13.0271 29.1976 13.8378C29.2114 14.6484 29.7978 15.2717 30.4509 15.2894C31.1037 15.3072 31.6696 14.7152 31.6558 13.9046Z" fill="#F4EF89" stroke="#11005E" stroke-width="0.5"/>
<path d="M189.537 14.8242C193.817 14.8242 195.94 18.6508 195.94 21.4338V33.9921H192.445V21.4338C192.445 19.938 191.334 18.2682 189.537 18.2682C187.674 18.2682 186.596 19.9032 186.596 21.4338V33.9921H183.1V21.4338C183.1 19.9032 181.99 18.2334 180.127 18.2334C178.33 18.2334 177.187 19.938 177.187 21.4338V33.9921H173.724V21.4338C173.724 18.6161 175.847 14.8242 180.127 14.8242C182.088 14.8242 183.721 15.7635 184.832 16.9463C185.91 15.7287 187.576 14.8242 189.537 14.8242Z" fill="#11005E"/>
<path d="M167.511 14.8242H171.006V27.4521C171.006 30.2699 168.817 33.9921 164.537 33.9921C160.29 33.9921 158.134 30.2351 158.134 27.4521V14.8242H161.597V27.4521C161.597 28.9132 162.741 30.6525 164.537 30.6525C166.334 30.6525 167.511 28.9479 167.511 27.4521V14.8242Z" fill="#11005E"/>
<path d="M143.127 14.8594H155.412V18.2338H151.034V33.9925H147.538V18.2338H143.127V14.8594Z" fill="#11005E"/>
<path d="M134.756 14.8242C139.036 14.8242 141.225 18.6508 141.225 21.4338V33.9921H137.729V21.4338C137.729 19.9032 136.618 18.2334 134.756 18.2334C132.959 18.2334 131.816 19.938 131.816 21.4338V33.9921H128.353V21.4338C128.353 18.6508 130.509 14.8242 134.756 14.8242Z" fill="#11005E"/>
<path d="M117.423 18.2338C117.423 18.2685 117.39 18.3381 117.39 18.3381V21.0863H122.421V24.4259H117.39V30.479C117.39 30.5137 117.423 30.5833 117.423 30.6181H125.591V33.9925H117.39C115.038 33.9925 113.927 31.94 113.927 30.479V18.3381C113.927 16.9118 115.038 14.8594 117.39 14.8594H125.591V18.2338H117.423Z" fill="#11005E"/>
<path d="M104.255 14.8242C108.535 14.8242 110.658 18.6508 110.658 21.4338V33.9921H107.162V21.4338C107.162 19.938 106.051 18.2682 104.255 18.2682C102.392 18.2682 101.314 19.9032 101.314 21.4338V33.9921H97.8182V21.4338C97.8182 19.9032 96.7074 18.2334 94.8451 18.2334C93.0481 18.2334 91.9046 19.938 91.9046 21.4338V33.9921H88.4414V21.4338C88.4414 18.6161 90.5651 14.8242 94.8451 14.8242C96.8054 14.8242 98.439 15.7635 99.5498 16.9463C100.628 15.7287 102.294 14.8242 104.255 14.8242Z" fill="#11005E"/>
<path d="M76.4165 14.8594C82.5588 14.8594 85.6953 20.2862 85.6953 24.4259C85.6953 28.5309 82.5588 33.9925 76.4165 33.9925C70.2415 33.9925 67.1377 28.5309 67.1377 24.4259C67.1377 20.2862 70.2415 14.8594 76.4165 14.8594ZM76.4165 30.6181C80.1084 30.6181 82.2321 27.2785 82.2321 24.4259C82.2321 21.5734 80.1084 18.2338 76.4165 18.2338C72.7246 18.2338 70.6009 21.5734 70.6009 24.4259C70.6009 27.2785 72.7246 30.6181 76.4165 30.6181Z" fill="#11005E"/>
<path d="M57.9948 14.8242C62.2748 14.8242 64.3984 18.6508 64.3984 21.4338V33.9921H60.9026V21.4338C60.9026 19.938 59.7917 18.2682 57.9948 18.2682C56.1325 18.2682 55.0543 19.9032 55.0543 21.4338V33.9921H51.5584V21.4338C51.5584 19.9032 50.4476 18.2334 48.5853 18.2334C46.7884 18.2334 45.6448 19.938 45.6448 21.4338V33.9921H42.1816V21.4338C42.1816 18.6161 44.3053 14.8242 48.5853 14.8242C50.5456 14.8242 52.1792 15.7635 53.29 16.9463C54.3682 15.7287 56.0345 14.8242 57.9948 14.8242Z" fill="#11005E"/>
</svg>
