<svg width="212" height="48" viewBox="0 0 212 48" fill="none" xmlns="http://www.w3.org/2000/svg">
    <path d="M7.6432 24.0111C6.94385 23.1669 6.36316 22.3442 5.89689 21.5504C6.19084 21.5119 6.4818 21.4163 6.75417 21.2591C6.97486 21.1315 7.16689 20.9729 7.32755 20.7924C7.70897 21.4252 8.1775 22.0885 8.73572 22.7792C9.91557 21.5311 11.3121 20.289 12.8883 19.1036C13.1267 17.146 13.5039 15.3154 13.9949 13.6698C8.8807 12.8632 6.07607 14.2353 6.04604 16.9744C5.51329 16.8685 4.94128 16.9474 4.43405 17.2404L4.43212 17.2416C4.22984 13.2893 7.93002 10.9884 14.5157 12.1077C17.9545 2.84205 24.8219 2.84205 28.2603 12.1077C29.3534 11.9219 30.3663 11.8308 31.2955 11.8255C31.1738 12.1073 31.1065 12.4176 31.1065 12.744C31.1065 12.988 31.144 13.2227 31.2137 13.4434C30.4728 13.4572 29.6617 13.531 28.7811 13.67C29.2721 15.3156 29.6493 17.1464 29.8879 19.1037C31.4639 20.289 32.8607 21.5311 34.0405 22.7792C37.2821 18.7707 37.5085 15.664 35.1826 14.2599C35.5341 13.8534 35.7465 13.3233 35.7465 12.744L35.7463 12.7205C39.2522 14.5266 39.3869 18.8758 35.1331 24.0111C41.4777 31.6673 38.0635 37.58 28.2603 35.9146C27.8744 36.9552 27.4462 37.8792 26.9854 38.6874C26.8053 38.4526 26.5769 38.2481 26.3044 38.0909C26.0843 37.9636 25.8515 37.8769 25.6147 37.8279C25.978 37.1738 26.3238 36.4264 26.6473 35.5844C24.9765 35.1868 23.2026 34.5984 21.3881 33.8259C19.5734 34.5984 17.7998 35.1867 16.129 35.5842C17.9836 40.4025 20.563 42.1524 22.9432 40.8322C23.1138 41.3468 23.4648 41.8037 23.9682 42.1001C20.6548 44.2131 16.8297 42.1524 14.5157 35.9146C4.71171 37.5802 1.29938 31.6692 7.6432 24.0111ZM18.2794 13.038L18.2794 11.7118C17.2199 11.6997 17.2199 10.096 18.2794 10.0839L24.4969 10.0839C25.5562 10.096 25.5562 11.6997 24.4969 11.7118L24.4969 13.038C25.2291 12.8051 25.947 12.6046 26.6473 12.4378C23.7491 4.89943 19.0269 4.89943 16.129 12.4378C16.829 12.6046 17.5474 12.8051 18.2794 13.038ZM30.0948 21.3335C30.2092 23.1149 30.2092 24.9075 30.0948 26.6889C31.1644 25.8107 32.1274 24.9109 32.9675 24.0111C32.1274 23.1111 31.1644 22.2114 30.0948 21.3335ZM29.8879 28.9187C29.6493 30.8763 29.2721 32.7069 28.7811 34.3525C36.7851 35.616 39.1339 31.5416 34.0405 25.2431C32.8607 26.4912 31.4639 27.7333 29.8879 28.9187ZM12.8883 28.9187C11.3121 27.7333 9.91557 26.4912 8.73572 25.2431C3.64219 31.5414 5.99125 35.616 13.9949 34.3525C13.5039 32.7069 13.1267 30.8763 12.8883 28.9187ZM12.6815 26.6889C12.5667 24.9075 12.5667 23.1149 12.6815 21.3335C11.6113 22.2117 10.6486 23.1111 9.80836 24.0111C10.6486 24.9109 11.6113 25.8107 12.6815 26.6889ZM14.7159 17.8097C15.8668 17.0426 17.0578 16.3323 18.2794 15.6832L18.2794 14.7485C17.3603 14.4387 16.4634 14.1832 15.5985 13.9832C15.239 15.1606 14.9414 16.4442 14.7159 17.8097ZM14.4255 19.9912C14.154 22.6471 14.1542 25.3752 14.4255 28.0311C16.5895 29.5942 18.9524 30.9577 21.3881 32.0507C23.8233 30.9582 26.1869 29.5938 28.3505 28.0311C28.6222 25.3758 28.6222 22.6467 28.3505 19.9912C26.6213 18.7426 24.7759 17.6301 22.8687 16.6747C22.8687 15.0203 22.8687 13.3663 22.8687 11.712L19.9076 11.712C19.9076 13.3663 19.9076 15.0203 19.9076 16.6747C18.0002 17.6304 16.1548 18.7422 14.4255 19.9912ZM14.7159 30.2126C14.9416 31.5783 15.239 32.8619 15.5985 34.0391C16.7979 33.7615 18.0583 33.3779 19.3537 32.89C17.7539 32.0993 16.2012 31.2023 14.7159 30.2126ZM28.0601 30.2126C26.5751 31.2023 25.0222 32.0993 23.4225 32.89C24.7177 33.3779 25.9785 33.7615 27.1777 34.0391C27.537 32.8617 27.8348 31.5783 28.0601 30.2126ZM28.0601 17.8097C27.8348 16.4442 27.537 15.1602 27.1777 13.9832C26.3127 14.1832 25.4157 14.4388 24.4969 14.7487L24.4969 15.6832C25.7181 16.3323 26.9093 17.0424 28.0601 17.8097Z" fill="#11005E"/>
    <path fill-rule="evenodd" clip-rule="evenodd" d="M27.3149 27.4531C27.5206 25.4442 27.5415 23.3313 27.3781 21.3013C24.8494 20.079 22.9833 21.2919 21.0733 22.0981C21.1089 22.1749 21.1285 22.2607 21.1285 22.351C21.1285 22.6829 20.8594 22.9521 20.5275 22.9521C20.2477 22.9521 20.012 22.7606 19.9454 22.5015C18.5945 22.8739 17.157 22.7873 15.3987 21.3013C15.2352 23.3313 15.2562 25.4442 15.4618 27.4531C17.286 28.7708 19.3351 29.9538 21.3884 30.875C23.4413 29.9538 25.4909 28.7708 27.3149 27.4531ZM19.358 25.1357C19.6163 25.1357 19.826 25.3452 19.826 25.6035C19.826 25.8621 19.6163 26.0717 19.358 26.0717C19.0997 26.0717 18.8902 25.8621 18.8902 25.6035C18.8902 25.3452 19.0997 25.1357 19.358 25.1357ZM22.1772 19.3515C22.531 19.3515 22.8179 19.6383 22.8179 19.9917C22.8179 20.3456 22.531 20.6323 22.1772 20.6323C21.8236 20.6323 21.5369 20.3456 21.5369 19.9917C21.5369 19.6383 21.8236 19.3515 22.1772 19.3515ZM21.2637 15.883C21.5203 15.883 21.7286 16.0911 21.7286 16.3479C21.7286 16.6045 21.5203 16.8129 21.2637 16.8129C21.0071 16.8129 20.7987 16.6045 20.7987 16.3479C20.7987 16.0911 21.0071 15.883 21.2637 15.883ZM19.7346 18.1825C20.2684 18.1825 20.7006 18.6149 20.7006 19.1484C20.7006 19.682 20.2684 20.1144 19.7346 20.1144C19.2014 20.1144 18.7689 19.682 18.7689 19.1484C18.7689 18.6149 19.2014 18.1825 19.7346 18.1825ZM21.1447 27.4275C21.5971 27.4275 21.9634 27.7943 21.9634 28.2465C21.9634 28.6987 21.5971 29.0654 21.1447 29.0654C20.6926 29.0654 20.326 28.6987 20.326 28.2465C20.326 27.7943 20.6926 27.4275 21.1447 27.4275ZM23.3079 23.5805C24.0964 23.5805 24.7357 24.22 24.7357 25.0087C24.7357 25.7973 24.0964 26.4366 23.3079 26.4366C22.5192 26.4366 21.8798 25.7973 21.8798 25.0087C21.8798 24.22 22.5192 23.5805 23.3079 23.5805Z" fill="#827723"/>
    <path fill-rule="evenodd" clip-rule="evenodd" d="M26.5549 40.9159C26.1051 41.6949 25.1087 41.9617 24.3298 41.512C23.5509 41.0625 23.2838 40.0658 23.7338 39.2869C24.1833 38.508 25.1796 38.2412 25.9587 38.6909C26.7378 39.1407 27.0049 40.1369 26.5549 40.9159ZM4.18315 20.0653C3.73368 19.2863 4.00046 18.29 4.77953 17.8403C5.55838 17.3907 6.55499 17.6574 7.00469 18.4364C7.45445 19.2152 7.18738 20.2116 6.40853 20.6616C5.62947 21.1111 4.63312 20.8444 4.18315 20.0653ZM33.4263 11.1163C34.3257 11.1163 35.0551 11.8456 35.0551 12.7452C35.0551 13.6446 34.3257 14.3741 33.4263 14.3741C32.5266 14.3741 31.7973 13.6446 31.7973 12.7452C31.7973 11.8456 32.5266 11.1163 33.4263 11.1163Z" fill="#827723"/>
    <path d="M202.203 30.7461H207.772C208.459 30.7461 209.01 30.9394 209.425 31.326C209.841 31.7049 210.049 32.2075 210.049 32.8338C210.049 33.2823 209.954 33.6419 209.764 33.9125C209.574 34.1832 209.281 34.3997 208.883 34.562C209.317 34.6239 209.683 34.8327 209.981 35.1884C210.279 35.5441 210.428 35.9307 210.428 36.3482C210.428 36.9823 210.216 37.4926 209.791 37.8793C209.367 38.2581 208.806 38.4476 208.111 38.4476H202.203V30.7461ZM208.111 37.7053C208.535 37.7053 208.87 37.5893 209.114 37.3573C209.357 37.1176 209.479 36.7851 209.479 36.3598C209.479 35.9346 209.353 35.5982 209.1 35.3508C208.856 35.0956 208.526 34.968 208.111 34.968H203.138V37.7053H208.111ZM207.772 34.2257C208.197 34.2257 208.526 34.1097 208.761 33.8777C208.996 33.638 209.114 33.3055 209.114 32.8802C209.114 32.4627 208.992 32.1263 208.748 31.8712C208.504 31.616 208.179 31.4884 207.772 31.4884H203.138V34.2257H207.772Z" fill="#827723"/>
    <path fill-rule="evenodd" clip-rule="evenodd" d="M201.818 30.3633H207.772C208.533 30.3633 209.185 30.5797 209.685 31.0449C210.189 31.5052 210.433 32.1154 210.433 32.8355C210.433 33.3354 210.327 33.7801 210.079 34.1349C209.988 34.2639 209.881 34.3803 209.76 34.4851C209.949 34.6058 210.121 34.759 210.275 34.9431C210.624 35.3598 210.812 35.8318 210.812 36.3499C210.812 37.0796 210.563 37.6977 210.05 38.1652L210.048 38.1665L210.047 38.1678C209.537 38.6228 208.879 38.8337 208.111 38.8337H201.818V30.3633ZM209.199 33.9503C209.304 33.8696 209.386 33.7834 209.449 33.6935C209.58 33.507 209.664 33.2326 209.664 32.8355C209.664 32.3036 209.492 31.9091 209.166 31.6118L209.164 31.6105L209.163 31.6092C208.955 31.4153 208.698 31.2761 208.384 31.1998C208.626 31.2808 208.842 31.4151 209.025 31.6072C209.35 31.9467 209.498 32.3847 209.498 32.8819C209.498 33.2856 209.406 33.6509 209.199 33.9503ZM202.753 31.1322H202.587V38.0648H202.753V31.1322ZM209.558 35.3001C209.767 35.5991 209.864 35.9607 209.864 36.3615C209.864 36.8633 209.717 37.3044 209.383 37.6332L209.381 37.6354L209.378 37.6376C209.221 37.7871 209.04 37.8967 208.841 37.9706C209.115 37.8917 209.343 37.7647 209.533 37.5953C209.868 37.2898 210.043 36.8876 210.043 36.3499C210.043 36.0329 209.933 35.7317 209.686 35.437C209.644 35.3876 209.602 35.342 209.558 35.3001ZM203.522 31.8746V33.8429H207.772C208.124 33.8429 208.345 33.749 208.489 33.608C208.634 33.4581 208.729 33.233 208.729 32.8819C208.729 32.544 208.633 32.3093 208.469 32.1385C208.309 31.9709 208.091 31.8746 207.772 31.8746H203.522ZM203.522 35.3541V37.3225H208.111C208.462 37.3225 208.691 37.2288 208.846 37.0826C208.998 36.9319 209.095 36.7086 209.095 36.3615C209.095 36.0172 208.995 35.7881 208.831 35.6273L208.826 35.6227L208.822 35.6181C208.663 35.4522 208.441 35.3541 208.111 35.3541H203.522Z" fill="#827723"/>
    <path d="M186.926 38.447L190.76 30.6875H191.858L195.828 38.447H194.825L193.755 36.3244H188.945L187.901 38.447H186.926ZM193.497 35.5937L191.302 31.3138L189.243 35.5937H193.497Z" fill="#827723"/>
    <path fill-rule="evenodd" clip-rule="evenodd" d="M190.521 30.3047H192.093L196.456 38.8331H194.588L193.518 36.7106H189.184L188.141 38.8331H186.307L190.521 30.3047ZM190.726 31.6263L187.544 38.0642H187.662L188.686 35.9799H188.631L190.726 31.6263ZM194.011 35.9799L195.062 38.0642H195.199L191.623 31.0736H191.61L194.127 35.9799H194.011ZM191.313 32.1794L189.854 35.2109H192.868L191.313 32.1794Z" fill="#827723"/>
    <path d="M174.741 30.7461H175.676V37.7053H181.137V38.4476H174.741V30.7461Z" fill="#827723"/>
    <path fill-rule="evenodd" clip-rule="evenodd" d="M174.357 30.3633H176.061V37.3225H181.522V38.8337H174.357V30.3633ZM175.126 31.1322V38.0648H175.292V31.1322H175.126Z" fill="#827723"/>
    <path d="M150.403 30.7461H151.338V34.2257H157.68V30.7461H158.628V38.4476H157.68V34.968H151.338V38.4476H150.403V30.7461Z" fill="#827723"/>
    <path fill-rule="evenodd" clip-rule="evenodd" d="M150.019 30.3633H151.722V33.8429H157.295V30.3633H159.012V38.8337H157.295V35.3541H151.722V38.8337H150.019V30.3633ZM150.788 31.1322V38.0648H150.954V31.1322H150.788ZM158.064 38.0648H158.243V31.1322H158.064V38.0648Z" fill="#827723"/>
    <path d="M139.548 38.6199C138.735 38.6199 138.004 38.4459 137.353 38.098C136.703 37.75 136.193 37.2706 135.822 36.6597C135.452 36.0489 135.267 35.3607 135.267 34.5952C135.267 33.8297 135.452 33.1415 135.822 32.5306C136.193 31.9197 136.703 31.4442 137.353 31.104C138.004 30.756 138.735 30.582 139.548 30.582C140.56 30.582 141.441 30.8411 142.191 31.3591C142.94 31.8695 143.442 32.5615 143.695 33.4353H142.624C142.389 32.809 141.992 32.3141 141.432 31.9507C140.881 31.5795 140.248 31.3939 139.535 31.3939C138.93 31.3939 138.379 31.5331 137.882 31.8115C137.394 32.0899 137.01 32.4726 136.73 32.9598C136.45 33.4469 136.31 33.9882 136.31 34.5836C136.31 35.1867 136.45 35.7318 136.73 36.219C137.01 36.7061 137.394 37.0889 137.882 37.3672C138.379 37.6379 138.93 37.7732 139.535 37.7732C140.257 37.7732 140.894 37.5915 141.445 37.2281C142.005 36.8646 142.398 36.3698 142.624 35.7434H143.695C143.433 36.6249 142.927 37.3247 142.177 37.8428C141.436 38.3609 140.56 38.6199 139.548 38.6199Z" fill="#827723"/>
    <path fill-rule="evenodd" clip-rule="evenodd" d="M139.548 30.9682C138.792 30.9682 138.123 31.1295 137.534 31.4447L137.533 31.4455L137.531 31.4463C136.941 31.755 136.484 32.1824 136.151 32.7316C135.819 33.278 135.651 33.8964 135.651 34.5968C135.651 35.2973 135.819 35.9156 136.151 36.4621C136.484 37.012 136.943 37.4441 137.534 37.7606C138.123 38.0758 138.792 38.2371 139.548 38.2371C140.491 38.2371 141.288 37.997 141.956 37.5294L141.957 37.5288L141.958 37.5282C142.489 37.1616 142.882 36.6975 143.141 36.1296H142.883C142.619 36.7167 142.208 37.1929 141.656 37.5515C141.036 37.9597 140.325 38.1593 139.535 38.1593C138.87 38.1593 138.255 38.0101 137.698 37.7066L137.694 37.7047L137.691 37.7028C137.144 37.3906 136.71 36.9587 136.396 36.4123C136.08 35.8625 135.925 35.2505 135.925 34.5852C135.925 33.9268 136.081 33.3188 136.396 32.7698C136.71 32.2234 137.144 31.7915 137.691 31.4792L137.692 31.4785L137.694 31.4777C138.251 31.1652 138.868 31.0111 139.535 31.0111C140.318 31.0111 141.025 31.2157 141.644 31.6316C142.195 31.9902 142.609 32.466 142.88 33.0525H143.144C142.891 32.494 142.502 32.0382 141.974 31.6786L141.973 31.6779L141.972 31.6771C141.293 31.2083 140.491 30.9682 139.548 30.9682ZM137.173 30.7658C137.885 30.3856 138.679 30.1992 139.548 30.1992C140.628 30.1992 141.587 30.4769 142.408 31.0437C143.231 31.6045 143.786 32.371 144.064 33.3301L144.206 33.8214H142.357L142.264 33.572C142.058 33.0225 141.713 32.5934 141.222 32.2749L141.219 32.2731L141.217 32.2712C140.734 31.946 140.178 31.7801 139.535 31.7801C138.991 31.7801 138.506 31.9042 138.071 32.1478C137.643 32.3922 137.309 32.7256 137.063 33.153C136.819 33.5784 136.694 34.0529 136.694 34.5852C136.694 35.1262 136.819 35.6045 137.063 36.029C137.308 36.4558 137.642 36.7888 138.069 37.0331C138.504 37.2697 138.99 37.3904 139.535 37.3904C140.189 37.3904 140.751 37.2269 141.233 36.9088L141.235 36.908L141.236 36.9072C141.726 36.5893 142.065 36.1618 142.262 35.6147L142.354 35.3606H144.21L144.063 35.8546C143.776 36.819 143.218 37.5918 142.396 38.1602C141.584 38.7283 140.628 39.0061 139.548 39.0061C138.678 39.0061 137.883 38.8194 137.172 38.4386C136.463 38.0593 135.9 37.5325 135.493 36.8607C135.084 36.1854 134.882 35.4274 134.882 34.5968C134.882 33.7663 135.084 33.0082 135.493 32.3329C135.901 31.6609 136.463 31.1375 137.173 30.7658Z" fill="#827723"/>
    <path d="M120.719 38.4476V30.7461H126.83C127.516 30.7461 128.067 30.9394 128.483 31.326C128.898 31.7126 129.106 32.2269 129.106 32.8686C129.106 33.464 128.925 33.9551 128.564 34.3417C128.212 34.7206 127.729 34.9255 127.114 34.9564L126.477 34.9796L128.781 38.4476H127.738L125.448 34.968H121.654V38.4476H120.719ZM126.83 34.2257C127.254 34.2257 127.584 34.1097 127.819 33.8777C128.054 33.638 128.171 33.3055 128.171 32.8802C128.171 32.4627 128.049 32.1263 127.805 31.8712C127.561 31.616 127.236 31.4884 126.83 31.4884H121.654V34.2257H126.83Z" fill="#827723"/>
    <path fill-rule="evenodd" clip-rule="evenodd" d="M120.334 30.3633H126.829C127.592 30.3633 128.243 30.5801 128.744 31.0462C129.249 31.5154 129.49 32.1371 129.49 32.8703C129.49 33.5498 129.281 34.1386 128.845 34.6055C128.421 35.0613 127.852 35.2971 127.177 35.3396L129.498 38.8337H127.53L125.24 35.3541H122.038V38.8337H120.334V30.3633ZM121.103 31.1322V38.0648H121.269V31.1322H121.103ZM127.442 31.1998C127.683 31.2808 127.899 31.4151 128.083 31.6072C128.408 31.9467 128.555 32.3847 128.555 32.8819C128.555 33.3796 128.416 33.819 128.093 34.1485L128.091 34.1507L128.089 34.1529C127.898 34.3416 127.668 34.4668 127.411 34.5381C127.784 34.4692 128.068 34.3123 128.282 34.0815L128.283 34.0808C128.569 33.7745 128.721 33.3814 128.721 32.8703C128.721 32.3199 128.547 31.9132 128.221 31.6092C128.012 31.4153 127.756 31.2761 127.442 31.1998ZM126.057 34.6118H125.672L127.945 38.0648H128.064L125.777 34.622L126.057 34.6118ZM122.038 31.8746V33.8429H126.829C127.181 33.8429 127.402 33.749 127.546 33.608C127.692 33.4581 127.786 33.233 127.786 32.8819C127.786 32.544 127.69 32.3093 127.527 32.1385C127.367 31.9709 127.148 31.8746 126.829 31.8746H122.038Z" fill="#827723"/>
    <path d="M105.441 38.447L109.276 30.6875H110.374L114.344 38.447H113.341L112.271 36.3244H107.46L106.417 38.447H105.441ZM112.013 35.5937L109.818 31.3138L107.758 35.5937H112.013Z" fill="#827723"/>
    <path fill-rule="evenodd" clip-rule="evenodd" d="M109.038 30.3047H110.609L114.973 38.8331H113.105L112.035 36.7106H107.7L106.657 38.8331H104.823L109.038 30.3047ZM109.242 31.6265L106.061 38.0642H106.178L107.203 35.9799H107.147L109.242 31.6265ZM112.527 35.9799L113.578 38.0642H113.716L110.139 31.0736H110.127L112.643 35.9799H112.527ZM109.83 32.1794L108.371 35.2109H111.385L109.83 32.1794Z" fill="#827723"/>
    <path d="M91.3125 30.7461H99.334V31.4884H92.2474V34.2257H97.5319V34.968H92.2474V37.7053H99.334V38.4476H91.3125V30.7461Z" fill="#827723"/>
    <path fill-rule="evenodd" clip-rule="evenodd" d="M90.9277 30.3633H99.7182V31.8746H92.6316V33.8429H97.9161V35.3541H92.6316V37.3225H99.7182V38.8337H90.9277V30.3633ZM91.6967 31.1322V38.0648H91.8627V31.1322H91.6967Z" fill="#827723"/>
    <path d="M80.9035 38.6199C79.7743 38.6199 78.8394 38.4459 78.0986 38.098C77.3579 37.7423 76.9243 37.2706 76.7979 36.6829H77.7463C77.8818 37.0464 78.2206 37.3363 78.7626 37.5528C79.3136 37.7693 79.9776 37.8776 80.7544 37.8776C81.6397 37.8776 82.3443 37.7345 82.8682 37.4484C83.4012 37.1623 83.6676 36.7796 83.6676 36.3002C83.6676 35.844 83.4102 35.4921 82.8953 35.2447C82.3894 34.9973 81.6577 34.8735 80.7002 34.8735C79.3814 34.8735 78.4238 34.715 77.8276 34.398C77.2405 34.081 76.9469 33.5668 76.9469 32.8554C76.9469 32.1363 77.254 31.5795 77.8683 31.1852C78.4826 30.7831 79.3452 30.582 80.4563 30.582C81.5493 30.582 82.4436 30.756 83.1392 31.104C83.8438 31.4442 84.2593 31.912 84.3858 32.5074H83.4238C83.2973 32.144 82.9766 31.8579 82.4617 31.6491C81.9468 31.4326 81.3145 31.3243 80.5647 31.3243C79.7427 31.3243 79.0878 31.4597 78.6 31.7303C78.1212 31.9932 77.8818 32.3489 77.8818 32.7974C77.8818 33.2304 78.1167 33.5629 78.5864 33.7949C79.0562 34.0191 79.7337 34.1312 80.6189 34.1312C82.01 34.1312 83.0218 34.3013 83.6541 34.6416C84.2955 34.9741 84.6161 35.5076 84.6161 36.2422C84.6161 36.9922 84.2864 37.576 83.627 37.9936C82.9766 38.4111 82.0688 38.6199 80.9035 38.6199Z" fill="#827723"/>
    <path fill-rule="evenodd" clip-rule="evenodd" d="M79.472 31.0327C78.8886 31.1165 78.4282 31.2795 78.0783 31.5085L78.0769 31.5095L78.0755 31.5104C77.5693 31.8353 77.3308 32.2712 77.3308 32.857C77.3308 33.1593 77.3929 33.3972 77.5004 33.5856C77.6071 33.7724 77.7707 33.932 78.0087 34.0608C78.3054 34.2183 78.7271 34.3382 79.2852 34.4109C78.958 34.3501 78.6685 34.262 78.4203 34.1435L78.4179 34.1424L78.4157 34.1413C78.1394 34.0048 77.9069 33.8264 77.7434 33.595C77.5772 33.3596 77.4968 33.0896 77.4968 32.799C77.4968 32.1776 77.8441 31.7083 78.4137 31.3954C78.7205 31.2252 79.0749 31.1061 79.472 31.0327ZM82.5861 31.2863C82.5934 31.2893 82.6007 31.2924 82.6079 31.2954C83.0753 31.4853 83.4502 31.7542 83.6672 32.1246H83.8133C83.6438 31.8711 83.3719 31.6452 82.9715 31.4519L82.9691 31.4507L82.9666 31.4495C82.8473 31.3898 82.7205 31.3353 82.5861 31.2863ZM82.1076 34.6025C82.4707 34.6693 82.7902 34.7674 83.0625 34.9004C83.3593 35.0432 83.6087 35.2287 83.7843 35.4688C83.9636 35.7138 84.0516 35.9961 84.0516 36.3018C84.0516 36.9613 83.6693 37.4558 83.0507 37.7882C82.6988 37.9801 82.2872 38.1103 81.8217 38.1853C82.4932 38.1035 83.0207 37.9272 83.4187 37.6717L83.4198 37.6711L83.4208 37.6704C83.9744 37.3199 84.2311 36.8558 84.2311 36.2438C84.2311 35.9337 84.1639 35.6878 84.0456 35.4908C83.9274 35.2942 83.7445 35.1234 83.4766 34.9846L83.474 34.9832L83.4714 34.9818C83.1528 34.8104 82.7021 34.6807 82.1076 34.6025ZM78.364 37.7979C77.9933 37.6144 77.6948 37.3761 77.5073 37.0691H77.3793C77.5556 37.3189 77.84 37.549 78.263 37.7523C78.2962 37.7679 78.3299 37.7831 78.364 37.7979ZM77.6586 30.8642C78.3598 30.4058 79.3065 30.1992 80.4558 30.1992C81.5846 30.1992 82.5425 30.3781 83.3083 30.7606C84.0852 31.1364 84.6035 31.6862 84.7613 32.4292L84.86 32.8936H83.1499L83.0601 32.6354C82.9838 32.4162 82.7757 32.1932 82.3167 32.0071L82.3144 32.0062L82.3121 32.0052C81.8576 31.8141 81.2793 31.7105 80.5642 31.7105C79.7787 31.7105 79.196 31.8407 78.786 32.0682L78.7845 32.069C78.3969 32.2818 78.2658 32.5237 78.2658 32.799C78.2658 32.9415 78.3029 33.0542 78.3715 33.1514C78.4426 33.252 78.5617 33.3554 78.7539 33.4507C79.1477 33.638 79.7573 33.7484 80.6184 33.7484C82.0223 33.7484 83.1134 33.917 83.8331 34.3032C84.2054 34.4967 84.5026 34.7585 84.7046 35.0947C84.9069 35.4313 85.0001 35.8195 85.0001 36.2438C85.0001 37.1316 84.5978 37.8349 83.8331 38.3195C83.0969 38.7917 82.1064 39.0061 80.9029 39.0061C79.7374 39.0061 78.7421 38.8269 77.9346 38.4476L77.9331 38.4469L77.9317 38.4462C77.1258 38.0593 76.5813 37.5083 76.4214 36.7655L76.3213 36.3001H78.0128L78.1061 36.5503C78.188 36.7699 78.4121 37.0005 78.9037 37.1971C79.3982 37.3912 80.0114 37.4948 80.7539 37.4948C81.6035 37.4948 82.2368 37.3566 82.6834 37.1127L82.6846 37.112L82.6858 37.1114C83.1324 36.8716 83.2826 36.6008 83.2826 36.3018C83.2826 36.1513 83.2419 36.0297 83.1637 35.9229C83.0822 35.8114 82.9458 35.6974 82.7282 35.5929L82.727 35.5923L82.7258 35.5917C82.2972 35.3821 81.6343 35.2597 80.6997 35.2597C79.3671 35.2597 78.3298 35.1024 77.6466 34.7391L77.6455 34.7386L77.6444 34.738C77.2959 34.5498 77.0194 34.294 76.8327 33.9669C76.6466 33.641 76.5619 33.2661 76.5619 32.857C76.5619 32.0052 76.9371 31.328 77.6586 30.8642Z" fill="#827723"/>
    <path d="M62.3291 30.7461H70.3506V31.4884H63.264V34.2257H68.5485V34.968H63.264V37.7053H70.3506V38.4476H62.3291V30.7461Z" fill="#827723"/>
    <path fill-rule="evenodd" clip-rule="evenodd" d="M61.9443 30.3633H70.7348V31.8746H63.6482V33.8429H68.9327V35.3541H63.6482V37.3225H70.7348V38.8337H61.9443V30.3633ZM62.7133 31.1322V38.0648H62.8793V31.1322H62.7133Z" fill="#827723"/>
    <path d="M47.1631 38.4476V30.7461H53.2741C53.9606 30.7461 54.5116 30.9394 54.9272 31.326C55.3427 31.7126 55.5505 32.2269 55.5505 32.8686C55.5505 33.464 55.3698 33.9551 55.0085 34.3417C54.6562 34.7206 54.1729 34.9255 53.5586 34.9564L52.9218 34.9796L55.2253 38.4476H54.1819L51.892 34.968H48.098V38.4476H47.1631ZM53.2741 34.2257C53.6987 34.2257 54.0284 34.1097 54.2632 33.8777C54.4981 33.638 54.6155 33.3055 54.6155 32.8802C54.6155 32.4627 54.4936 32.1263 54.2497 31.8712C54.0058 31.616 53.6806 31.4884 53.2741 31.4884H48.098V34.2257H53.2741Z" fill="#827723"/>
    <path fill-rule="evenodd" clip-rule="evenodd" d="M46.7783 30.3633H53.2738C54.036 30.3633 54.6878 30.5801 55.1888 31.0462C55.6931 31.5154 55.9347 32.1371 55.9347 32.8703C55.9347 33.5499 55.7255 34.1387 55.2894 34.6056C54.8654 35.0613 54.2959 35.2971 53.6211 35.3396L55.9419 38.8337H53.9744L51.6845 35.3541H48.4822V38.8337H46.7783V30.3633ZM47.5473 31.1322V38.0648H47.7133V31.1322H47.5473ZM53.8859 31.1998C54.1275 31.2808 54.3438 31.4151 54.5273 31.6072C54.8519 31.9467 54.9997 32.3847 54.9997 32.8819C54.9997 33.3796 54.8604 33.819 54.5376 34.1485L54.5354 34.1507L54.5331 34.1529C54.3421 34.3416 54.1125 34.4668 53.8554 34.5381C54.2286 34.4692 54.512 34.3123 54.7266 34.0815L54.7273 34.0808C55.0136 33.7745 55.1657 33.3814 55.1657 32.8703C55.1657 32.3199 54.9917 31.9132 54.665 31.6092C54.4566 31.4153 54.2003 31.2761 53.8859 31.1998ZM52.5014 34.6118H52.1165L54.3889 38.0648H54.5081L52.2213 34.622L52.5014 34.6118ZM48.4822 31.8746V33.8429H53.2738C53.6256 33.8429 53.8465 33.749 53.9905 33.608C54.1362 33.4581 54.2308 33.233 54.2308 32.8819C54.2308 32.544 54.1347 32.3093 53.9715 32.1385C53.8113 31.9709 53.5927 31.8746 53.2738 31.8746H48.4822Z" fill="#827723"/>
    <path d="M205.008 8.79688C209.638 8.79688 211.935 12.4419 211.935 15.0929V27.0554H208.153V15.0929C208.153 13.668 206.952 12.0774 205.008 12.0774C202.994 12.0774 201.828 13.6349 201.828 15.0929V27.0554H198.047V15.0929C198.047 13.6349 196.845 12.0443 194.831 12.0443C192.887 12.0443 191.65 13.668 191.65 15.0929V27.0554H187.904V15.0929C187.904 12.4088 190.201 8.79688 194.831 8.79688C196.951 8.79688 198.718 9.69157 199.92 10.8182C201.086 9.65844 202.888 8.79688 205.008 8.79688Z" fill="#11005E"/>
    <path d="M181.185 8.79688H184.966V20.8256C184.966 23.5097 182.599 27.0554 177.969 27.0554C173.375 27.0554 171.043 23.4766 171.043 20.8256V8.79688H174.789V20.8256C174.789 22.2174 176.026 23.8742 177.969 23.8742C179.913 23.8742 181.185 22.2505 181.185 20.8256V8.79688Z" fill="#11005E"/>
    <path d="M154.811 8.82812H168.098V12.0424H163.363V27.0535H159.581V12.0424H154.811V8.82812Z" fill="#11005E"/>
    <path d="M145.756 8.79688C150.386 8.79688 152.754 12.4419 152.754 15.0929V27.0554H148.972V15.0929C148.972 13.6349 147.771 12.0443 145.756 12.0443C143.813 12.0443 142.576 13.668 142.576 15.0929V27.0554H138.83V15.0929C138.83 12.4419 141.162 8.79688 145.756 8.79688Z" fill="#11005E"/>
    <path d="M127.008 12.0424C127.008 12.0756 126.972 12.1418 126.972 12.1418V14.7596H132.415V17.9408H126.972V23.7066C126.972 23.7398 127.008 23.806 127.008 23.8392H135.843V27.0535H126.972C124.428 27.0535 123.227 25.0984 123.227 23.7066V12.1418C123.227 10.7832 124.428 8.82812 126.972 8.82812H135.843V12.0424H127.008Z" fill="#11005E"/>
    <path d="M112.765 8.79688C117.395 8.79688 119.692 12.4419 119.692 15.0929V27.0554H115.91V15.0929C115.91 13.668 114.709 12.0774 112.765 12.0774C110.751 12.0774 109.585 13.6349 109.585 15.0929V27.0554H105.803V15.0929C105.803 13.6349 104.602 12.0443 102.588 12.0443C100.644 12.0443 99.4071 13.668 99.4071 15.0929V27.0554H95.6611V15.0929C95.6611 12.4088 97.9582 8.79688 102.588 8.79688C104.708 8.79688 106.475 9.69157 107.676 10.8182C108.843 9.65844 110.645 8.79688 112.765 8.79688Z" fill="#11005E"/>
    <path d="M82.6544 8.82812C89.2981 8.82812 92.6906 13.9975 92.6906 17.9408C92.6906 21.851 89.2981 27.0535 82.6544 27.0535C75.9754 27.0535 72.6182 21.851 72.6182 17.9408C72.6182 13.9975 75.9754 8.82812 82.6544 8.82812ZM82.6544 23.8392C86.6477 23.8392 88.9447 20.658 88.9447 17.9408C88.9447 15.2236 86.6477 12.0424 82.6544 12.0424C78.6611 12.0424 76.3641 15.2236 76.3641 17.9408C76.3641 20.658 78.6611 23.8392 82.6544 23.8392Z" fill="#11005E"/>
    <path d="M62.729 8.79688C67.3584 8.79688 69.6554 12.4419 69.6554 15.0929V27.0554H65.8742V15.0929C65.8742 13.668 64.6726 12.0774 62.729 12.0774C60.7147 12.0774 59.5485 13.6349 59.5485 15.0929V27.0554H55.7673V15.0929C55.7673 13.6349 54.5657 12.0443 52.5514 12.0443C50.6078 12.0443 49.3709 13.668 49.3709 15.0929V27.0554H45.625V15.0929C45.625 12.4088 47.922 8.79688 52.5514 8.79688C54.6717 8.79688 56.4387 9.69157 57.6402 10.8182C58.8064 9.65844 60.6087 8.79688 62.729 8.79688Z" fill="#11005E"/>
</svg>
