<svg width="212" height="47" viewBox="0 0 212 47" fill="none" xmlns="http://www.w3.org/2000/svg">
<path d="M7.6432 23.1615C6.94385 22.3173 6.36316 21.4946 5.89689 20.7008C6.19084 20.6623 6.4818 20.5667 6.75417 20.4095C6.97486 20.2819 7.16689 20.1233 7.32755 19.9427C7.70897 20.5756 8.1775 21.2389 8.73572 21.9296C9.91557 20.6815 11.3121 19.4394 12.8883 18.254C13.1267 16.2964 13.5039 14.4658 13.9949 12.8202C8.8807 12.0136 6.07607 13.3857 6.04604 16.1248C5.51329 16.0188 4.94128 16.0978 4.43405 16.3908L4.43212 16.392C4.22984 12.4397 7.93002 10.1387 14.5157 11.2581C17.9545 1.99244 24.8219 1.99244 28.2603 11.2581C29.3534 11.0723 30.3663 10.9812 31.2955 10.9759C31.1738 11.2577 31.1065 11.5679 31.1065 11.8944C31.1065 12.1384 31.144 12.373 31.2137 12.5938C30.4728 12.6076 29.6617 12.6814 28.7811 12.8204C29.2721 14.466 29.6493 16.2968 29.8879 18.2541C31.4639 19.4394 32.8607 20.6815 34.0405 21.9296C37.2821 17.9211 37.5085 14.8144 35.1826 13.4103C35.5341 13.0038 35.7465 12.4737 35.7465 11.8944L35.7463 11.8709C39.2522 13.677 39.3869 18.0262 35.1331 23.1615C41.4777 30.8177 38.0635 36.7304 28.2603 35.065C27.8744 36.1056 27.4462 37.0296 26.9854 37.8378C26.8053 37.603 26.5769 37.3985 26.3044 37.2413C26.0843 37.1139 25.8515 37.0272 25.6147 36.9783C25.978 36.3242 26.3238 35.5768 26.6473 34.7348C24.9765 34.3372 23.2026 33.7488 21.3881 32.9763C19.5734 33.7488 17.7998 34.3371 16.129 34.7346C17.9836 39.5529 20.563 41.3028 22.9432 39.9826C23.1138 40.4972 23.4648 40.9541 23.9682 41.2505C20.6548 43.3635 16.8297 41.3028 14.5157 35.065C4.71171 36.7306 1.29938 30.8196 7.6432 23.1615ZM18.2794 12.1884L18.2794 10.8622C17.2199 10.8501 17.2199 9.24637 18.2794 9.23429L24.4969 9.23429C25.5562 9.24637 25.5562 10.8501 24.4969 10.8622L24.4969 12.1884C25.2291 11.9555 25.947 11.755 26.6473 11.5882C23.7491 4.04982 19.0269 4.04982 16.129 11.5882C16.829 11.755 17.5474 11.9555 18.2794 12.1884ZM30.0948 20.4839C30.2092 22.2653 30.2092 24.0579 30.0948 25.8393C31.1644 24.9611 32.1274 24.0613 32.9675 23.1615C32.1274 22.2615 31.1644 21.3618 30.0948 20.4839ZM29.8879 28.0691C29.6493 30.0267 29.2721 31.8572 28.7811 33.5029C36.7851 34.7664 39.1339 30.692 34.0405 24.3935C32.8607 25.6416 31.4639 26.8837 29.8879 28.0691ZM12.8883 28.0691C11.3121 26.8837 9.91557 25.6416 8.73572 24.3935C3.64219 30.6918 5.99125 34.7664 13.9949 33.5029C13.5039 31.8572 13.1267 30.0267 12.8883 28.0691ZM12.6815 25.8393C12.5667 24.0579 12.5667 22.2653 12.6815 20.4839C11.6113 21.3621 10.6486 22.2615 9.80836 23.1615C10.6486 24.0613 11.6113 24.9611 12.6815 25.8393ZM14.7159 16.9601C15.8668 16.193 17.0578 15.4827 18.2794 14.8336L18.2794 13.8989C17.3603 13.5891 16.4634 13.3336 15.5985 13.1336C15.239 14.311 14.9414 15.5946 14.7159 16.9601ZM14.4255 19.1416C14.154 21.7975 14.1542 24.5256 14.4255 27.1815C16.5895 28.7446 18.9524 30.1081 21.3881 31.2011C23.8233 30.1086 26.1869 28.7442 28.3505 27.1815C28.6222 24.5262 28.6222 21.7971 28.3505 19.1416C26.6213 17.893 24.7759 16.7805 22.8687 15.8251C22.8687 14.1707 22.8687 12.5167 22.8687 10.8623L19.9076 10.8623C19.9076 12.5167 19.9076 14.1707 19.9076 15.8251C18.0002 16.7808 16.1548 17.8925 14.4255 19.1416ZM14.7159 29.363C14.9416 30.7286 15.239 32.0123 15.5985 33.1895C16.7979 32.9119 18.0583 32.5283 19.3537 32.0404C17.7539 31.2497 16.2012 30.3527 14.7159 29.363ZM28.0601 29.363C26.5751 30.3527 25.0222 31.2497 23.4225 32.0404C24.7177 32.5283 25.9785 32.9119 27.1777 33.1895C27.537 32.0121 27.8348 30.7286 28.0601 29.363ZM28.0601 16.9601C27.8348 15.5946 27.537 14.3106 27.1777 13.1336C26.3127 13.3336 25.4157 13.5892 24.4969 13.8991L24.4969 14.8336C25.7181 15.4827 26.9093 16.1928 28.0601 16.9601Z" fill="#CBCAF4"/>
<path fill-rule="evenodd" clip-rule="evenodd" d="M27.3144 26.6035C27.5201 24.5946 27.541 22.4817 27.3776 20.4517C24.8489 19.2294 22.9828 20.4423 21.0728 21.2485C21.1084 21.3253 21.1281 21.4111 21.1281 21.5013C21.1281 21.8333 20.8589 22.1025 20.527 22.1025C20.2472 22.1025 20.0115 21.911 19.9449 21.6519C18.594 22.0243 17.1565 21.9377 15.3982 20.4517C15.2347 22.4817 15.2557 24.5946 15.4613 26.6035C17.2855 27.9212 19.3346 29.1042 21.3879 30.0254C23.4408 29.1042 25.4904 27.9212 27.3144 26.6035ZM19.3575 24.2861C19.6158 24.2861 19.8255 24.4956 19.8255 24.7539C19.8255 25.0125 19.6158 25.222 19.3575 25.222C19.0992 25.222 18.8897 25.0125 18.8897 24.7539C18.8897 24.4956 19.0992 24.2861 19.3575 24.2861ZM22.1767 18.5019C22.5306 18.5019 22.8174 18.7887 22.8174 19.1421C22.8174 19.496 22.5306 19.7826 22.1767 19.7826C21.8231 19.7826 21.5364 19.496 21.5364 19.1421C21.5364 18.7887 21.8231 18.5019 22.1767 18.5019ZM21.2632 15.0334C21.5199 15.0334 21.7281 15.2415 21.7281 15.4983C21.7281 15.7549 21.5199 15.9633 21.2632 15.9633C21.0066 15.9633 20.7982 15.7549 20.7982 15.4983C20.7982 15.2415 21.0066 15.0334 21.2632 15.0334ZM19.7341 17.3329C20.2679 17.3329 20.7001 17.7653 20.7001 18.2988C20.7001 18.8324 20.2679 19.2648 19.7341 19.2648C19.201 19.2648 18.7684 18.8324 18.7684 18.2988C18.7684 17.7653 19.201 17.3329 19.7341 17.3329ZM21.1442 26.5779C21.5966 26.5779 21.9629 26.9447 21.9629 27.3969C21.9629 27.8491 21.5966 28.2158 21.1442 28.2158C20.6921 28.2158 20.3255 27.8491 20.3255 27.3969C20.3255 26.9447 20.6921 26.5779 21.1442 26.5779ZM23.3074 22.7308C24.0959 22.7308 24.7352 23.3704 24.7352 24.1591C24.7352 24.9477 24.0959 25.587 23.3074 25.587C22.5187 25.587 21.8793 24.9477 21.8793 24.1591C21.8793 23.3704 22.5187 22.7308 23.3074 22.7308Z" fill="#F4EF89"/>
<path fill-rule="evenodd" clip-rule="evenodd" d="M26.5549 40.0653C26.1051 40.8443 25.1087 41.1111 24.3298 40.6614C23.5509 40.2119 23.2838 39.2152 23.7338 38.4363C24.1833 37.6574 25.1796 37.3906 25.9587 37.8403C26.7378 38.2901 27.0049 39.2863 26.5549 40.0653ZM4.18315 19.2147C3.73368 18.4358 4.00046 17.4394 4.77953 16.9897C5.55838 16.5401 6.55499 16.8069 7.00469 17.5858C7.45445 18.3646 7.18738 19.361 6.40853 19.811C5.62947 20.2606 4.63312 19.9938 4.18315 19.2147ZM33.4263 10.2657C34.3257 10.2657 35.0551 10.9951 35.0551 11.8946C35.0551 12.794 34.3257 13.5235 33.4263 13.5235C32.5266 13.5235 31.7973 12.794 31.7973 11.8946C31.7973 10.9951 32.5266 10.2657 33.4263 10.2657Z" fill="#F4EF89"/>
<path d="M202.203 29.8955H207.772C208.458 29.8955 209.009 30.0888 209.425 30.4754C209.84 30.8543 210.048 31.3569 210.048 31.9833C210.048 32.4317 209.953 32.7913 209.763 33.0619C209.574 33.3326 209.28 33.5491 208.883 33.7115C209.316 33.7733 209.682 33.9821 209.98 34.3378C210.278 34.6935 210.427 35.0801 210.427 35.4977C210.427 36.1317 210.215 36.6421 209.791 37.0287C209.366 37.4076 208.806 37.597 208.11 37.597H202.203V29.8955ZM208.11 36.8547C208.535 36.8547 208.869 36.7387 209.113 36.5067C209.357 36.267 209.479 35.9345 209.479 35.5093C209.479 35.084 209.352 34.7476 209.1 34.5002C208.856 34.245 208.526 34.1174 208.11 34.1174H203.138V36.8547H208.11ZM207.772 33.3751C208.196 33.3751 208.526 33.2591 208.761 33.0271C208.996 32.7874 209.113 32.4549 209.113 32.0297C209.113 31.6121 208.991 31.2757 208.747 31.0206C208.503 30.7654 208.178 30.6378 207.772 30.6378H203.138V33.3751H207.772Z" fill="#F4EF89"/>
<path fill-rule="evenodd" clip-rule="evenodd" d="M201.818 29.5107H207.772C208.533 29.5107 209.185 29.7271 209.685 30.1923C210.189 30.6527 210.433 31.2629 210.433 31.983C210.433 32.4828 210.327 32.9276 210.079 33.2823C209.988 33.4113 209.881 33.5278 209.76 33.6326C209.949 33.7533 210.121 33.9065 210.275 34.0905C210.624 34.5072 210.812 34.9793 210.812 35.4974C210.812 36.2271 210.563 36.8451 210.05 37.3127L210.048 37.314L210.047 37.3152C209.537 37.7702 208.879 37.9812 208.111 37.9812H201.818V29.5107ZM209.199 33.0978C209.304 33.0171 209.386 32.9309 209.449 32.841C209.58 32.6544 209.664 32.3801 209.664 31.983C209.664 31.4511 209.492 31.0566 209.166 30.7593L209.164 30.758L209.163 30.7566C208.955 30.5627 208.698 30.4236 208.384 30.3473C208.626 30.4283 208.842 30.5626 209.025 30.7546C209.35 31.0942 209.498 31.5322 209.498 32.0294C209.498 32.4331 209.406 32.7984 209.199 33.0978ZM202.753 30.2797H202.587V37.2122H202.753V30.2797ZM209.558 34.4476C209.767 34.7466 209.864 35.1081 209.864 35.509C209.864 36.0107 209.717 36.4519 209.383 36.7807L209.381 36.7829L209.378 36.785C209.221 36.9346 209.04 37.0441 208.841 37.1181C209.115 37.0392 209.343 36.9121 209.533 36.7428C209.868 36.4373 210.043 36.035 210.043 35.4974C210.043 35.1803 209.933 34.8792 209.686 34.5845C209.644 34.535 209.602 34.4894 209.558 34.4476ZM203.522 31.022V32.9903H207.772C208.124 32.9903 208.345 32.8964 208.489 32.7555C208.634 32.6055 208.729 32.3804 208.729 32.0294C208.729 31.6915 208.633 31.4567 208.469 31.286C208.309 31.1184 208.091 31.022 207.772 31.022H203.522ZM203.522 34.5016V36.4699H208.111C208.462 36.4699 208.691 36.3762 208.846 36.23C208.998 36.0794 209.095 35.8561 209.095 35.509C209.095 35.1647 208.995 34.9355 208.831 34.7747L208.826 34.7702L208.822 34.7655C208.663 34.5997 208.441 34.5016 208.111 34.5016H203.522Z" fill="#F4EF89"/>
<path d="M186.926 37.5974L190.761 29.8379H191.858L195.829 37.5974H194.826L193.755 35.4748H188.945L187.902 37.5974H186.926ZM193.498 34.7441L191.303 30.4642L189.243 34.7441H193.498Z" fill="#F4EF89"/>
<path fill-rule="evenodd" clip-rule="evenodd" d="M190.522 29.4531H192.093L196.457 37.9816H194.589L193.518 35.859H189.184L188.141 37.9816H186.307L190.522 29.4531ZM190.726 30.7748L187.545 37.2126H187.662L188.687 35.1283H188.631L190.726 30.7748ZM194.011 35.1283L195.062 37.2126H195.2L191.623 30.2221H191.611L194.127 35.1283H194.011ZM191.314 31.3278L189.855 34.3594H192.868L191.314 31.3278Z" fill="#F4EF89"/>
<path d="M174.742 29.8955H175.677V36.8547H181.137V37.597H174.742V29.8955Z" fill="#F4EF89"/>
<path fill-rule="evenodd" clip-rule="evenodd" d="M174.357 29.5107H176.061V36.4699H181.521V37.9812H174.357V29.5107ZM175.126 30.2797V37.2122H175.292V30.2797H175.126Z" fill="#F4EF89"/>
<path d="M150.403 29.8955H151.338V33.3751H157.679V29.8955H158.628V37.597H157.679V34.1174H151.338V37.597H150.403V29.8955Z" fill="#F4EF89"/>
<path fill-rule="evenodd" clip-rule="evenodd" d="M150.019 29.5107H151.722V32.9903H157.295V29.5107H159.012V37.9812H157.295V34.5016H151.722V37.9812H150.019V29.5107ZM150.788 30.2797V37.2122H150.954V30.2797H150.788ZM158.064 37.2122H158.243V30.2797H158.064V37.2122Z" fill="#F4EF89"/>
<path d="M139.548 37.7713C138.735 37.7713 138.004 37.5973 137.353 37.2493C136.703 36.9014 136.193 36.422 135.822 35.8111C135.452 35.2002 135.267 34.512 135.267 33.7465C135.267 32.981 135.452 32.2928 135.822 31.682C136.193 31.0711 136.703 30.5956 137.353 30.2553C138.004 29.9074 138.735 29.7334 139.548 29.7334C140.56 29.7334 141.441 29.9924 142.191 30.5105C142.94 31.0209 143.442 31.7129 143.695 32.5867H142.624C142.389 31.9603 141.992 31.4655 141.432 31.102C140.881 30.7309 140.248 30.5453 139.535 30.5453C138.93 30.5453 138.379 30.6845 137.882 30.9629C137.394 31.2412 137.01 31.624 136.73 32.1111C136.45 32.5983 136.31 33.1395 136.31 33.7349C136.31 34.3381 136.45 34.8832 136.73 35.3704C137.01 35.8575 137.394 36.2402 137.882 36.5186C138.379 36.7893 138.93 36.9246 139.535 36.9246C140.257 36.9246 140.894 36.7429 141.445 36.3794C142.005 36.016 142.398 35.5211 142.624 34.8948H143.695C143.433 35.7763 142.927 36.4761 142.177 36.9942C141.436 37.5122 140.56 37.7713 139.548 37.7713Z" fill="#F4EF89"/>
<path fill-rule="evenodd" clip-rule="evenodd" d="M139.548 30.1176C138.792 30.1176 138.123 30.2789 137.534 30.5941L137.533 30.5949L137.531 30.5957C136.941 30.9044 136.484 31.3318 136.151 31.881C135.819 32.4275 135.651 33.0458 135.651 33.7463C135.651 34.4467 135.819 35.065 136.151 35.6115C136.484 36.1614 136.943 36.5935 137.534 36.91C138.123 37.2252 138.792 37.3865 139.548 37.3865C140.491 37.3865 141.288 37.1464 141.956 36.6788L141.957 36.6782L141.958 36.6776C142.489 36.311 142.882 35.8469 143.141 35.279H142.883C142.619 35.8661 142.208 36.3423 141.656 36.7009C141.036 37.1091 140.325 37.3088 139.535 37.3088C138.87 37.3088 138.255 37.1595 137.698 36.856L137.694 36.8541L137.691 36.8523C137.144 36.54 136.71 36.1081 136.396 35.5617C136.08 35.012 135.925 34.3999 135.925 33.7347C135.925 33.0762 136.081 32.4682 136.396 31.9192C136.71 31.3728 137.144 30.9409 137.691 30.6286L137.692 30.6279L137.694 30.6272C138.251 30.3146 138.868 30.1605 139.535 30.1605C140.318 30.1605 141.025 30.3651 141.644 30.781C142.195 31.1396 142.609 31.6155 142.88 32.2019H143.144C142.891 31.6434 142.502 31.1876 141.974 30.8281L141.973 30.8273L141.972 30.8265C141.293 30.3577 140.491 30.1176 139.548 30.1176ZM137.173 29.9152C137.885 29.535 138.679 29.3486 139.548 29.3486C140.628 29.3486 141.587 29.6264 142.408 30.1932C143.231 30.754 143.786 31.5205 144.064 32.4795L144.206 32.9709H142.357L142.264 32.7214C142.058 32.1719 141.713 31.7428 141.222 31.4243L141.219 31.4225L141.217 31.4206C140.734 31.0954 140.178 30.9295 139.535 30.9295C138.991 30.9295 138.506 31.0536 138.071 31.2973C137.643 31.5416 137.309 31.875 137.063 32.3025C136.819 32.7278 136.694 33.2023 136.694 33.7347C136.694 34.2756 136.819 34.7539 137.063 35.1785C137.308 35.6052 137.642 35.9382 138.069 36.1825C138.504 36.4191 138.99 36.5398 139.535 36.5398C140.189 36.5398 140.751 36.3763 141.233 36.0582L141.235 36.0574L141.236 36.0566C141.726 35.7387 142.065 35.3112 142.262 34.7641L142.354 34.51H144.21L144.063 35.004C143.776 35.9684 143.218 36.7412 142.396 37.3096C141.584 37.8777 140.628 38.1555 139.548 38.1555C138.678 38.1555 137.883 37.9688 137.172 37.5881C136.463 37.2087 135.9 36.6819 135.493 36.0101C135.084 35.3349 134.882 34.5768 134.882 33.7463C134.882 32.9157 135.084 32.1576 135.493 31.4824C135.901 30.8103 136.463 30.2869 137.173 29.9152Z" fill="#F4EF89"/>
<path d="M120.719 37.597V29.8955H126.83C127.516 29.8955 128.067 30.0888 128.483 30.4754C128.898 30.8621 129.106 31.3763 129.106 32.0181C129.106 32.6135 128.925 33.1045 128.564 33.4911C128.212 33.87 127.729 34.0749 127.114 34.1058L126.477 34.129L128.781 37.597H127.738L125.448 34.1174H121.654V37.597H120.719ZM126.83 33.3751C127.254 33.3751 127.584 33.2591 127.819 33.0271C128.054 32.7874 128.171 32.4549 128.171 32.0297C128.171 31.6121 128.049 31.2757 127.805 31.0206C127.561 30.7654 127.236 30.6378 126.83 30.6378H121.654V33.3751H126.83Z" fill="#F4EF89"/>
<path fill-rule="evenodd" clip-rule="evenodd" d="M120.334 29.5107H126.829C127.592 29.5107 128.243 29.7275 128.744 30.1937C129.249 30.6629 129.49 31.2846 129.49 32.0178C129.49 32.6973 129.281 33.2861 128.845 33.7529C128.421 34.2088 127.852 34.4446 127.177 34.4871L129.498 37.9812H127.53L125.24 34.5016H122.038V37.9812H120.334V29.5107ZM121.103 30.2797V37.2122H121.269V30.2797H121.103ZM127.442 30.3473C127.683 30.4283 127.899 30.5626 128.083 30.7546C128.408 31.0942 128.555 31.5322 128.555 32.0294C128.555 32.5271 128.416 32.9665 128.093 33.2959L128.091 33.2982L128.089 33.3004C127.898 33.4891 127.668 33.6142 127.411 33.6855C127.784 33.6166 128.068 33.4598 128.282 33.229L128.283 33.2283C128.569 32.9219 128.721 32.5289 128.721 32.0178C128.721 31.4674 128.547 31.0607 128.221 30.7566C128.012 30.5627 127.756 30.4236 127.442 30.3473ZM126.057 33.7593H125.672L127.945 37.2122H128.064L125.777 33.7695L126.057 33.7593ZM122.038 31.022V32.9903H126.829C127.181 32.9903 127.402 32.8964 127.546 32.7555C127.692 32.6056 127.786 32.3805 127.786 32.0294C127.786 31.6915 127.69 31.4567 127.527 31.286C127.367 31.1184 127.148 31.022 126.829 31.022H122.038Z" fill="#F4EF89"/>
<path d="M105.442 37.5974L109.277 29.8379H110.374L114.344 37.5974H113.341L112.271 35.4748H107.461L106.417 37.5974H105.442ZM112.014 34.7441L109.819 30.4642L107.759 34.7441H112.014Z" fill="#F4EF89"/>
<path fill-rule="evenodd" clip-rule="evenodd" d="M109.038 29.4531H110.609L114.973 37.9816H113.105L112.035 35.859H107.7L106.657 37.9816H104.823L109.038 29.4531ZM109.242 30.7749L106.061 37.2126H106.178L107.203 35.1283H107.147L109.242 30.7749ZM112.527 35.1283L113.578 37.2126H113.716L110.139 30.2221H110.127L112.643 35.1283H112.527ZM109.83 31.3278L108.371 34.3594H111.385L109.83 31.3278Z" fill="#F4EF89"/>
<path d="M91.312 29.8955H99.3336V30.6378H92.247V33.3751H97.5314V34.1174H92.247V36.8547H99.3336V37.597H91.312V29.8955Z" fill="#F4EF89"/>
<path fill-rule="evenodd" clip-rule="evenodd" d="M90.9277 29.5107H99.7182V31.022H92.6316V32.9903H97.9161V34.5016H92.6316V36.4699H99.7182V37.9812H90.9277V29.5107ZM91.6967 30.2797V37.2122H91.8627V30.2797H91.6967Z" fill="#F4EF89"/>
<path d="M80.9035 37.7713C79.7743 37.7713 78.8394 37.5973 78.0986 37.2493C77.3579 36.8936 76.9243 36.422 76.7979 35.8343H77.7463C77.8818 36.1977 78.2206 36.4877 78.7626 36.7042C79.3136 36.9207 79.9776 37.029 80.7544 37.029C81.6397 37.029 82.3443 36.8859 82.8682 36.5998C83.4012 36.3137 83.6676 35.931 83.6676 35.4515C83.6676 34.9953 83.4102 34.6435 82.8953 34.3961C82.3894 34.1486 81.6577 34.0249 80.7002 34.0249C79.3814 34.0249 78.4238 33.8664 77.8276 33.5494C77.2405 33.2323 76.9469 32.7181 76.9469 32.0067C76.9469 31.2876 77.254 30.7309 77.8683 30.3365C78.4826 29.9344 79.3452 29.7334 80.4563 29.7334C81.5493 29.7334 82.4436 29.9074 83.1392 30.2553C83.8438 30.5956 84.2593 31.0634 84.3858 31.6588H83.4238C83.2973 31.2954 82.9766 31.0093 82.4617 30.8005C81.9468 30.584 81.3145 30.4757 80.5647 30.4757C79.7427 30.4757 79.0878 30.611 78.6 30.8817C78.1212 31.1446 77.8818 31.5003 77.8818 31.9487C77.8818 32.3818 78.1167 32.7143 78.5864 32.9462C79.0562 33.1705 79.7337 33.2826 80.6189 33.2826C82.01 33.2826 83.0218 33.4527 83.6541 33.7929C84.2955 34.1254 84.6161 34.659 84.6161 35.3935C84.6161 36.1436 84.2864 36.7274 83.627 37.1449C82.9766 37.5625 82.0688 37.7713 80.9035 37.7713Z" fill="#F4EF89"/>
<path fill-rule="evenodd" clip-rule="evenodd" d="M79.4725 30.1821C78.889 30.2659 78.4287 30.4289 78.0788 30.6579L78.0774 30.6589L78.076 30.6598C77.5698 30.9847 77.3313 31.4206 77.3313 32.0065C77.3313 32.3087 77.3934 32.5466 77.5009 32.735C77.6076 32.9218 77.7712 33.0814 78.0092 33.2102C78.3059 33.3677 78.7276 33.4876 79.2857 33.5603C78.9585 33.4995 78.669 33.4114 78.4207 33.2929L78.4184 33.2918L78.4161 33.2907C78.1399 33.1543 77.9074 32.9759 77.7439 32.7444C77.5776 32.509 77.4973 32.2391 77.4973 31.9485C77.4973 31.3271 77.8446 30.8578 78.4141 30.5448C78.721 30.3746 79.0754 30.2555 79.4725 30.1821ZM82.5866 30.4357C82.5939 30.4387 82.6012 30.4418 82.6084 30.4448C83.0758 30.6347 83.4507 30.9036 83.6677 31.274H83.8138C83.6443 31.0205 83.3724 30.7946 82.972 30.6013L82.9695 30.6001L82.9671 30.5989C82.8478 30.5392 82.721 30.4848 82.5866 30.4357ZM82.108 33.7519C82.4712 33.8187 82.7907 33.9168 83.063 34.0498C83.3598 34.1926 83.6092 34.3782 83.7848 34.6182C83.9641 34.8632 84.0521 35.1456 84.0521 35.4513C84.0521 36.1107 83.6698 36.6052 83.0512 36.9376C82.6993 37.1296 82.2877 37.2597 81.8222 37.3347C82.4937 37.2529 83.0212 37.0767 83.4192 36.8211L83.4202 36.8205L83.4213 36.8198C83.9748 36.4693 84.2316 36.0052 84.2316 35.3933C84.2316 35.0831 84.1644 34.8372 84.046 34.6402C83.9279 34.4437 83.7449 34.2728 83.4771 34.134L83.4745 34.1326L83.4719 34.1312C83.1533 33.9598 82.7026 33.8301 82.108 33.7519ZM78.3645 36.9473C77.9938 36.7638 77.6953 36.5255 77.5078 36.2185H77.3798C77.556 36.4684 77.8405 36.6984 78.2635 36.9017C78.2967 36.9173 78.3303 36.9325 78.3645 36.9473ZM77.6591 30.0136C78.3602 29.5552 79.307 29.3486 80.4563 29.3486C81.5851 29.3486 82.543 29.5276 83.3087 29.91C84.0857 30.2858 84.604 30.8357 84.7618 31.5786L84.8605 32.043H83.1504L83.0606 31.7849C82.9843 31.5656 82.7761 31.3426 82.3172 31.1565L82.3149 31.1556L82.3126 31.1546C81.8581 30.9635 81.2798 30.8599 80.5647 30.8599C79.7792 30.8599 79.1965 30.9901 78.7865 31.2176L78.785 31.2184C78.3974 31.4312 78.2663 31.6732 78.2663 31.9485C78.2663 32.0909 78.3034 32.2036 78.372 32.3008C78.4431 32.4014 78.5622 32.5048 78.7543 32.6001C79.1482 32.7874 79.7578 32.8978 80.6189 32.8978C82.0228 32.8978 83.1139 33.0664 83.8336 33.4527C84.2059 33.6462 84.5031 33.9079 84.7051 34.2441C84.9074 34.5807 85.0006 34.9689 85.0006 35.3933C85.0006 36.281 84.5983 36.9843 83.8336 37.4689C83.0974 37.9411 82.1069 38.1555 80.9034 38.1555C79.7379 38.1555 78.7426 37.9763 77.9351 37.597L77.9336 37.5963L77.9322 37.5956C77.1263 37.2087 76.5818 36.6577 76.4219 35.9149L76.3218 35.4495H78.0133L78.1065 35.6997C78.1884 35.9194 78.4126 36.1499 78.9042 36.3465C79.3987 36.5406 80.0119 36.6442 80.7544 36.6442C81.604 36.6442 82.2373 36.506 82.6839 36.2621L82.6851 36.2614L82.6863 36.2608C83.1329 36.021 83.2831 35.7502 83.2831 35.4513C83.2831 35.3007 83.2424 35.1791 83.1642 35.0723C83.0827 34.9608 82.9463 34.8469 82.7287 34.7423L82.7275 34.7417L82.7263 34.7412C82.2977 34.5315 81.6348 34.4091 80.7002 34.4091C79.3676 34.4091 78.3302 34.2518 77.6471 33.8885L77.646 33.888L77.6449 33.8874C77.2964 33.6992 77.0199 33.4434 76.8331 33.1163C76.6471 32.7904 76.5624 32.4155 76.5624 32.0065C76.5624 31.1546 76.9376 30.4774 77.6591 30.0136Z" fill="#F4EF89"/>
<path d="M62.3291 29.8955H70.3506V30.6378H63.264V33.3751H68.5485V34.1174H63.264V36.8547H70.3506V37.597H62.3291V29.8955Z" fill="#F4EF89"/>
<path fill-rule="evenodd" clip-rule="evenodd" d="M61.9448 29.5107H70.7353V31.022H63.6487V32.9903H68.9332V34.5016H63.6487V36.4699H70.7353V37.9812H61.9448V29.5107ZM62.7138 30.2797V37.2122H62.8798V30.2797H62.7138Z" fill="#F4EF89"/>
<path d="M47.1626 37.597V29.8955H53.2736C53.9601 29.8955 54.5112 30.0888 54.9267 30.4754C55.3422 30.8621 55.55 31.3763 55.55 32.0181C55.55 32.6135 55.3693 33.1045 55.008 33.4911C54.6557 33.87 54.1724 34.0749 53.5582 34.1058L52.9213 34.129L55.2248 37.597H54.1814L51.8915 34.1174H48.0975V37.597H47.1626ZM53.2736 33.3751C53.6982 33.3751 54.0279 33.2591 54.2627 33.0271C54.4976 32.7874 54.615 32.4549 54.615 32.0297C54.615 31.6121 54.4931 31.2757 54.2492 31.0206C54.0053 30.7654 53.6801 30.6378 53.2736 30.6378H48.0975V33.3751H53.2736Z" fill="#F4EF89"/>
<path fill-rule="evenodd" clip-rule="evenodd" d="M46.7783 29.5107H53.2738C54.036 29.5107 54.6878 29.7275 55.1888 30.1937C55.6931 30.6629 55.9347 31.2846 55.9347 32.0178C55.9347 32.6973 55.7255 33.2862 55.2894 33.753C54.8654 34.2088 54.2959 34.4446 53.6211 34.4871L55.9419 37.9812H53.9744L51.6845 34.5016H48.4822V37.9812H46.7783V29.5107ZM47.5473 30.2797V37.2122H47.7133V30.2797H47.5473ZM53.8859 30.3473C54.1275 30.4283 54.3438 30.5626 54.5273 30.7546C54.8519 31.0942 54.9997 31.5322 54.9997 32.0294C54.9997 32.5271 54.8604 32.9665 54.5376 33.2959L54.5354 33.2982L54.5331 33.3004C54.3421 33.4891 54.1125 33.6142 53.8554 33.6855C54.2286 33.6166 54.512 33.4598 54.7266 33.229L54.7273 33.2283C55.0136 32.9219 55.1657 32.5289 55.1657 32.0178C55.1657 31.4674 54.9917 31.0607 54.665 30.7566C54.4566 30.5627 54.2003 30.4236 53.8859 30.3473ZM52.5014 33.7593H52.1165L54.3889 37.2122H54.5081L52.2213 33.7695L52.5014 33.7593ZM48.4822 31.022V32.9903H53.2738C53.6256 32.9903 53.8465 32.8964 53.9905 32.7555C54.1362 32.6056 54.2308 32.3805 54.2308 32.0294C54.2308 31.6915 54.1347 31.4567 53.9715 31.286C53.8113 31.1184 53.5927 31.022 53.2738 31.022H48.4822Z" fill="#F4EF89"/>
<path d="M205.009 7.94629C209.638 7.94629 211.935 11.5914 211.935 14.2423V26.2048H208.154V14.2423C208.154 12.8174 206.952 11.2269 205.009 11.2269C202.994 11.2269 201.828 12.7843 201.828 14.2423V26.2048H198.047V14.2423C198.047 12.7843 196.846 11.1937 194.831 11.1937C192.888 11.1937 191.651 12.8174 191.651 14.2423V26.2048H187.905V14.2423C187.905 11.5582 190.202 7.94629 194.831 7.94629C196.952 7.94629 198.718 8.84099 199.92 9.96765C201.086 8.80785 202.888 7.94629 205.009 7.94629Z" fill="#CBCAF4"/>
<path d="M181.185 7.94629H184.966V19.975C184.966 22.6591 182.599 26.2048 177.969 26.2048C173.375 26.2048 171.043 22.626 171.043 19.975V7.94629H174.789V19.975C174.789 21.3668 176.026 23.0236 177.969 23.0236C179.913 23.0236 181.185 21.3999 181.185 19.975V7.94629Z" fill="#CBCAF4"/>
<path d="M154.811 7.97949H168.098V11.1938H163.363V26.2048H159.581V11.1938H154.811V7.97949Z" fill="#CBCAF4"/>
<path d="M145.756 7.94629C150.386 7.94629 152.754 11.5914 152.754 14.2423V26.2048H148.972V14.2423C148.972 12.7843 147.771 11.1937 145.756 11.1937C143.813 11.1937 142.576 12.8174 142.576 14.2423V26.2048H138.83V14.2423C138.83 11.5914 141.162 7.94629 145.756 7.94629Z" fill="#CBCAF4"/>
<path d="M127.008 11.1938C127.008 11.2269 126.972 11.2932 126.972 11.2932V13.911H132.415V17.0922H126.972V22.858C126.972 22.8911 127.008 22.9574 127.008 22.9906H135.843V26.2048H126.972C124.428 26.2048 123.227 24.2498 123.227 22.858V11.2932C123.227 9.93458 124.428 7.97949 126.972 7.97949H135.843V11.1938H127.008Z" fill="#CBCAF4"/>
<path d="M112.765 7.94629C117.395 7.94629 119.692 11.5914 119.692 14.2423V26.2048H115.91V14.2423C115.91 12.8174 114.709 11.2269 112.765 11.2269C110.751 11.2269 109.585 12.7843 109.585 14.2423V26.2048H105.803V14.2423C105.803 12.7843 104.602 11.1937 102.588 11.1937C100.644 11.1937 99.4071 12.8174 99.4071 14.2423V26.2048H95.6611V14.2423C95.6611 11.5582 97.9582 7.94629 102.588 7.94629C104.708 7.94629 106.475 8.84099 107.676 9.96765C108.843 8.80785 110.645 7.94629 112.765 7.94629Z" fill="#CBCAF4"/>
<path d="M82.6544 7.97949C89.2981 7.97949 92.6906 13.1489 92.6906 17.0922C92.6906 21.0023 89.2981 26.2048 82.6544 26.2048C75.9754 26.2048 72.6182 21.0023 72.6182 17.0922C72.6182 13.1489 75.9754 7.97949 82.6544 7.97949ZM82.6544 22.9906C86.6477 22.9906 88.9447 19.8094 88.9447 17.0922C88.9447 14.3749 86.6477 11.1938 82.6544 11.1938C78.6611 11.1938 76.3641 14.3749 76.3641 17.0922C76.3641 19.8094 78.6611 22.9906 82.6544 22.9906Z" fill="#CBCAF4"/>
<path d="M62.729 7.94629C67.3584 7.94629 69.6554 11.5914 69.6554 14.2423V26.2048H65.8742V14.2423C65.8742 12.8174 64.6726 11.2269 62.729 11.2269C60.7147 11.2269 59.5485 12.7843 59.5485 14.2423V26.2048H55.7673V14.2423C55.7673 12.7843 54.5657 11.1937 52.5514 11.1937C50.6078 11.1937 49.3709 12.8174 49.3709 14.2423V26.2048H45.625V14.2423C45.625 11.5582 47.922 7.94629 52.5514 7.94629C54.6717 7.94629 56.4387 8.84099 57.6402 9.96765C58.8064 8.80785 60.6087 7.94629 62.729 7.94629Z" fill="#CBCAF4"/>
</svg>
