<svg width="154" height="48" viewBox="0 0 154 48" xmlns="http://www.w3.org/2000/svg" fill="#101828">
<path d="M147.355 14.416C151.635 14.416 153.758 18.2426 153.758 21.0256V33.5839H150.262V21.0256C150.262 19.5298 149.152 17.86 147.355 17.86C145.492 17.86 144.414 19.495 144.414 21.0256V33.5839H140.918V21.0256C140.918 19.495 139.807 17.8252 137.945 17.8252C136.148 17.8252 135.005 19.5298 135.005 21.0256V33.5839H131.542V21.0256C131.542 18.2079 133.665 14.416 137.945 14.416C139.905 14.416 141.539 15.3553 142.65 16.5381C143.728 15.3205 145.394 14.416 147.355 14.416Z"/>
<path d="M125.329 14.416H128.825V27.0439C128.825 29.8617 126.636 33.5839 122.356 33.5839C118.109 33.5839 115.953 29.8269 115.953 27.0439V14.416H119.416V27.0439C119.416 28.505 120.559 30.2443 122.356 30.2443C124.153 30.2443 125.329 28.5397 125.329 27.0439V14.416Z"/>
<path d="M100.945 14.4509H113.23V17.8253H108.852V33.584H105.356V17.8253H100.945V14.4509Z"/>
<path d="M92.5741 14.416C96.8541 14.416 99.0431 18.2426 99.0431 21.0256V33.5839H95.5472V21.0256C95.5472 19.495 94.4364 17.8252 92.5741 17.8252C90.7771 17.8252 89.6336 19.5298 89.6336 21.0256V33.5839H86.1704V21.0256C86.1704 18.2426 88.3267 14.416 92.5741 14.416Z"/>
<path d="M75.241 17.8253C75.241 17.8601 75.2083 17.9297 75.2083 17.9297V20.6779H80.2398V24.0175H75.2083V30.0705C75.2083 30.1053 75.241 30.1749 75.241 30.2097H83.4089V33.584H75.2083C72.856 33.584 71.7451 31.5316 71.7451 30.0705V17.9297C71.7451 16.5034 72.856 14.4509 75.2083 14.4509H83.4089V17.8253H75.241Z"/>
<path d="M62.0729 14.416C66.3529 14.416 68.4766 18.2426 68.4766 21.0256V33.5839H64.9807V21.0256C64.9807 19.5298 63.8699 17.86 62.0729 17.86C60.2106 17.86 59.1324 19.495 59.1324 21.0256V33.5839H55.6366V21.0256C55.6366 19.495 54.5257 17.8252 52.6634 17.8252C50.8665 17.8252 49.723 19.5298 49.723 21.0256V33.5839H46.2598V21.0256C46.2598 18.2079 48.3834 14.416 52.6634 14.416C54.6237 14.416 56.2573 15.3553 57.3682 16.5381C58.4463 15.3205 60.1126 14.416 62.0729 14.416Z"/>
<path d="M34.2348 14.4509C40.3771 14.4509 43.5136 19.8778 43.5136 24.0175C43.5136 28.1224 40.3771 33.584 34.2348 33.584C28.0599 33.584 24.9561 28.1224 24.9561 24.0175C24.9561 19.8778 28.0599 14.4509 34.2348 14.4509ZM34.2348 30.2097C37.9268 30.2097 40.0504 26.8701 40.0504 24.0175C40.0504 21.1649 37.9268 17.8253 34.2348 17.8253C30.5429 17.8253 28.4193 21.1649 28.4193 24.0175C28.4193 26.8701 30.5429 30.2097 34.2348 30.2097Z"/>
<path d="M15.8131 14.416C20.0931 14.416 22.2168 18.2426 22.2168 21.0256V33.5839H18.7209V21.0256C18.7209 19.5298 17.6101 17.86 15.8131 17.86C13.9508 17.86 12.8727 19.495 12.8727 21.0256V33.5839H9.3768V21.0256C9.3768 19.495 8.26596 17.8252 6.40367 17.8252C4.60672 17.8252 3.46321 19.5298 3.46321 21.0256V33.5839H0V21.0256C0 18.2079 2.12367 14.416 6.40367 14.416C8.36397 14.416 9.99756 15.3553 11.1084 16.5381C12.1866 15.3205 13.8528 14.416 15.8131 14.416Z"/>
</svg>
