<?xml version="1.0" encoding="utf-8"?>
<!-- Generator: Adobe Illustrator 16.0.0, SVG Export Plug-In . SVG Version: 6.00 Build 0)  -->
<!DOCTYPE svg PUBLIC "-//W3C//DTD SVG 1.1//EN" "http://www.w3.org/Graphics/SVG/1.1/DTD/svg11.dtd">
<svg version="1.1" id="Layer_1" xmlns="http://www.w3.org/2000/svg" xmlns:xlink="http://www.w3.org/1999/xlink" x="0px" y="0px"
	 width="1732.519px" height="1732.52px" viewBox="0 0 1732.519 1732.52" enable-background="new 0 0 1732.519 1732.52"
	 xml:space="preserve">
<g id="Stratcom_x5F_Emblem">
	<path fill-rule="evenodd" clip-rule="evenodd" fill="#ABABA6" d="M860.916,30.593c461.606,0,835.812,374.198,835.812,835.796
		c0,461.596-374.205,835.793-835.812,835.793c-461.609,0-835.816-374.197-835.816-835.793
		C25.1,404.791,399.307,30.593,860.916,30.593"/>
	<path fill-rule="evenodd" clip-rule="evenodd" fill="#FDCE68" d="M322.508,1522.631c28.838,4.223,67.674-5.602,82.615,4.578
		c8.199,5.277,31.824,23.303,39.793,34.73c-20.563-0.539-68.667,12.413-92.729-0.867
		C342.873,1554.701,323.763,1530.599,322.508,1522.631z M1409.97,209.891c-28.838-4.223-67.674,5.602-82.612-4.578
		c-8.201-5.277-31.826-23.302-39.794-34.73c20.564,0.539,68.665-12.414,92.729,0.866
		C1389.604,177.821,1408.715,201.926,1409.97,209.891z M209.853,322.544c-4.223,28.836,5.604,67.671-4.578,82.61
		c-5.277,8.2-23.303,31.825-34.73,39.793c0.539-20.563-12.414-68.665,0.866-92.727C177.785,342.909,201.888,323.799,209.853,322.544
		z M1567.518,1350.703c1.697-29.097-11.479-66.924-2.643-82.696c4.548-8.628,20.442-33.733,31.133-42.669
		c1.255,20.533,18.349,67.32,7.221,92.452C1597.689,1327.619,1575.343,1348.76,1567.518,1350.703z M1607.069,1287.742
		c-0.843-29.135-17.266-65.672-9.837-82.152c3.775-8.991,17.424-35.389,27.296-45.221c3.039,20.346,24.146,65.467,15.249,91.47
		C1635.118,1262.115,1614.696,1285.121,1607.069,1287.742z M1522.625,1409.979c4.223-28.836-5.604-67.672,4.578-82.613
		c5.279-8.195,23.303-31.823,34.73-39.79c-0.534,20.561,12.413,68.664-0.864,92.727
		C1554.692,1389.613,1530.593,1408.723,1522.625,1409.979z M1472.738,1465.114c6.722-28.358,0.319-67.9,11.763-81.894
		c5.971-7.711,25.985-29.677,38.068-36.617c-2.332,20.438,6.377,69.484-8.948,92.302
		C1506.457,1447.622,1480.786,1464.561,1472.738,1465.114z M1418.237,1515.697c9.166-27.669,6.229-67.617,18.851-80.563
		c6.621-7.156,28.48-27.296,41.117-33.159c-4.101,20.159,0.3,69.777-16.956,91.169
		C1453.354,1501.209,1426.296,1515.843,1418.237,1515.697z M1359.531,1561.332c11.545-26.763,12.104-66.815,25.805-78.608
		c7.218-6.558,30.747-24.71,43.846-29.454c-5.843,19.729-5.782,69.542-24.837,89.349
		C1395.778,1549.96,1367.55,1562.183,1359.531,1561.332z M1297.073,1601.679c13.834-25.652,17.881-65.507,32.558-76.063
		c7.765-5.896,32.781-21.933,46.247-25.516c-7.538,19.142-11.821,68.77-32.53,86.841
		C1334.174,1593.511,1304.99,1603.227,1297.073,1601.679z M1231.338,1636.432c16.014-24.352,23.521-63.7,39.062-72.938
		c8.25-5.201,34.57-18.994,48.295-21.387c-9.18,18.409-17.77,67.476-39.977,83.672
		C1269.008,1631.526,1239.087,1638.66,1231.338,1636.432z M1091.311,1306.954l2.891-1.991 M1087.667,1302.775l5.785-3.837
		 M1084.9,1298.575c1.458-0.579,6.667-4.009,7.965-5.075 M1082.296,1294.663c2.571-1.146,7.592-4.278,9.711-5.856
		 M1079.845,1291.045c3.666-1.902,8.899-5.357,12.459-7.7 M1076.793,1287.148c6.319-3.339,15.341-9.131,20.856-13.232
		 M1073.739,1282.953c9.441-4.867,18.501-11.153,27.497-17.977 M267.369,1472.744c28.36,6.722,67.905,0.317,81.901,11.76
		c7.708,5.973,29.672,25.988,36.615,38.068c-20.439-2.329-69.488,6.38-92.302-8.945
		C284.861,1506.465,267.925,1480.79,267.369,1472.744z M216.788,1418.243c27.667,9.169,67.618,6.234,80.563,18.854
		c7.159,6.623,27.296,28.475,33.163,41.114c-20.16-4.103-69.783,0.3-91.175-16.956
		C231.275,1453.359,216.641,1426.307,216.788,1418.243z M171.149,1359.54c26.763,11.544,66.82,12.104,78.614,25.805
		c6.555,7.22,24.712,30.743,29.451,43.846c-19.725-5.841-69.539-5.782-89.348-24.837
		C182.523,1395.786,170.3,1367.561,171.149,1359.54z M130.05,1295.799c25.632,13.877,65.476,17.995,76.009,32.689
		c5.887,7.777,21.877,32.822,25.437,46.293c-19.128-7.574-68.751-11.943-86.787-32.683
		C138.157,1332.914,128.492,1303.71,130.05,1295.799z M95.414,1230.002c24.324,16.06,63.66,23.636,72.87,39.191
		c5.188,8.257,18.938,34.604,21.305,48.33c-18.394-9.21-67.448-17.886-83.606-40.119
		C100.253,1267.682,93.173,1237.748,95.414,1230.002z M1162.82,1665.318c18.076-22.86,28.983-61.403,45.271-69.254
		c8.671-4.461,36.094-15.909,49.976-17.099c-10.749,17.543-23.584,65.675-47.115,79.874
		C1200.777,1663.718,1170.346,1668.218,1162.82,1665.318z M1092.047,1688.128c20.002-21.201,34.228-58.649,51.135-65.047
		c9.027-3.688,37.345-12.703,51.277-12.678c-12.236,16.537-29.22,63.368-53.899,75.464
		C1129.999,1689.838,1099.293,1691.67,1092.047,1688.128z M1019.557,1704.68c21.772-19.377,39.209-55.44,56.609-60.342
		c9.313-2.889,38.307-9.402,52.187-8.16c-13.631,15.406-34.631,60.578-60.273,70.479
		C1057.213,1709.69,1026.467,1708.839,1019.557,1704.68z M945.899,1714.85c23.378-17.402,43.889-51.81,61.652-55.176
		c9.53-2.066,38.98-6.027,52.7-3.58c-14.924,14.161-39.781,57.328-66.186,64.955C982.975,1723.127,952.421,1719.596,945.899,1714.85
		z M871.632,1718.564c24.807-15.3,48.241-47.791,66.229-49.593c9.674-1.229,39.362-2.609,52.811,1.024
		c-16.1,12.807-44.623,53.645-71.594,58.941C907.849,1730.04,877.717,1723.859,871.632,1718.564z M797.328,1715.793
		c26.046-13.082,52.222-43.406,70.301-43.635c9.743-0.382,39.433,0.833,52.517,5.625c-17.154,11.354-49.127,49.552-76.457,52.476
		C832.406,1730.378,802.927,1721.598,797.328,1715.793z M723.546,1706.553c27.088-10.76,55.807-38.688,73.835-37.34
		c9.741,0.471,39.214,4.269,51.828,10.181c-18.076,9.814-53.258,45.08-80.74,45.614
		C757.219,1724.141,728.617,1712.825,723.546,1706.553z M650.852,1690.92c27.923-8.358,58.965-33.678,76.807-30.764
		c9.665,1.318,38.693,7.67,50.746,14.659c-18.867,8.203-56.988,40.266-84.412,38.401
		C682.863,1711.375,655.356,1697.607,650.852,1690.92z M579.796,1669.008c28.543-5.892,61.678-28.409,79.198-23.95
		c9.507,2.154,37.875,11.011,49.272,19.023c-19.509,6.529-60.281,35.149-87.438,30.901
		C609.902,1692.178,583.701,1676.065,579.796,1669.008z M510.921,1640.99c28.95-3.385,63.917-22.927,80.981-16.962
		c9.289,2.978,36.772,14.273,47.431,23.252c-20.005,4.799-63.114,29.758-89.798,23.16
		C538.893,1666.695,514.196,1648.36,510.921,1640.99z M444.749,1607.072c29.135-0.843,65.674-17.266,82.153-9.834
		c8.991,3.772,35.391,17.423,45.223,27.291c-20.348,3.041-65.469,24.148-91.475,15.249
		C470.375,1635.118,447.37,1614.702,444.749,1607.072z M381.785,1567.521c29.098,1.694,66.927-11.479,82.699-2.637
		c8.628,4.54,33.734,20.437,42.669,31.127c-20.533,1.258-67.323,18.351-92.455,7.221
		C404.869,1597.693,383.729,1575.349,381.785,1567.521z M1465.111,259.776c-28.363-6.72-67.905-0.315-81.901-11.758
		c-7.708-5.976-29.674-25.991-36.615-38.068c20.439,2.33,69.488-6.379,92.303,8.945
		C1447.616,226.054,1464.552,251.732,1465.111,259.776z M1515.689,314.279c-27.667-9.169-67.615-6.235-80.563-18.856
		c-7.159-6.618-27.294-28.473-33.16-41.112c20.157,4.101,69.78-0.3,91.172,16.958
		C1501.203,279.161,1515.837,306.215,1515.689,314.279z M1561.329,372.979c-26.763-11.542-66.818-12.101-78.611-25.802
		c-6.555-7.22-24.71-30.744-29.451-43.845c19.726,5.841,69.536,5.782,89.348,24.836
		C1549.957,336.735,1562.177,364.962,1561.329,372.979z M1601.679,435.438c-25.655-13.831-65.507-17.881-76.065-32.558
		c-5.899-7.762-21.936-32.781-25.519-46.246c19.142,7.54,68.77,11.821,86.843,32.529
		C1593.508,398.34,1603.223,427.521,1601.679,435.438z M1636.429,501.173c-24.354-16.016-63.703-23.523-72.94-39.062
		c-5.198-8.249-18.993-34.569-21.387-48.297c18.409,9.18,67.479,17.771,83.677,39.977
		C1631.525,463.501,1638.654,493.425,1636.429,501.173z M1665.32,569.686c-22.865-18.076-61.411-28.983-69.257-45.269
		c-4.466-8.671-15.909-36.094-17.098-49.976c17.54,10.749,65.669,23.584,79.871,47.117
		C1663.715,531.734,1668.212,562.16,1665.32,569.686z M1688.125,640.456c-21.199-20.002-58.647-34.224-65.045-51.132
		c-3.688-9.026-12.703-37.344-12.677-51.274c16.534,12.235,63.367,29.217,75.46,53.899
		C1689.837,602.508,1691.666,633.213,1688.125,640.456z M1704.68,712.947c-19.38-21.772-55.446-39.206-60.345-56.607
		c-2.891-9.313-9.4-38.31-8.16-52.186c15.406,13.63,60.583,34.628,70.481,60.268C1709.689,675.291,1708.841,706.039,1704.68,712.947
		z M1714.852,786.604c-17.408-23.379-51.813-43.889-55.182-61.653c-2.063-9.529-6.026-38.979-3.577-52.696
		c14.161,14.921,57.331,39.775,64.958,66.183C1723.124,749.529,1719.598,780.083,1714.852,786.604z M1718.562,860.866
		c-15.3-24.807-47.789-48.238-49.593-66.226c-1.229-9.673-2.606-39.356,1.026-52.81c12.805,16.101,53.647,44.623,58.941,71.595
		C1730.04,824.652,1723.86,854.784,1718.562,860.866z M1715.792,935.171c-13.079-26.046-43.403-52.22-43.638-70.298
		c-0.376-9.744,0.834-39.436,5.625-52.518c11.356,17.154,49.552,49.128,52.479,76.457
		C1730.38,900.093,1721.595,929.574,1715.792,935.171z M1706.555,1008.95c-10.763-27.086-38.693-55.805-37.342-73.833
		c0.467-9.74,4.268-39.211,10.178-51.828c9.816,18.079,45.085,53.262,45.613,80.74
		C1724.141,975.276,1712.824,1003.879,1706.555,1008.95z M1690.92,1081.645c-8.359-27.922-33.679-58.965-30.768-76.808
		c1.321-9.662,7.673-38.691,14.66-50.743c8.206,18.866,40.268,56.985,38.403,84.408
		C1711.376,1049.633,1697.606,1077.137,1690.92,1081.645z M1669.01,1152.697c-5.895-28.544-28.414-61.676-23.953-79.195
		c2.154-9.51,11.011-37.876,19.024-49.272c6.529,19.509,35.146,60.278,30.903,87.435
		C1692.18,1122.594,1676.063,1148.792,1669.01,1152.697z M1640.986,1221.57c-3.384-28.948-22.926-63.917-16.956-80.979
		c2.973-9.286,14.269-36.77,23.247-47.428c4.802,20.002,29.761,63.111,23.16,89.795
		C1666.692,1193.598,1648.359,1218.298,1640.986,1221.57z M640.433,44.394c-20.002,21.201-34.227,58.647-51.137,65.047
		c-9.027,3.689-37.342,12.703-51.277,12.675c12.238-16.537,29.219-63.365,53.901-75.461
		C602.479,42.684,633.187,40.853,640.433,44.394z M712.921,27.842c-21.771,19.377-39.207,55.441-56.61,60.342
		c-9.313,2.889-38.307,9.4-52.184,8.161c13.633-15.409,34.628-60.581,60.271-70.479C675.265,22.83,706.014,23.683,712.921,27.842z
		 M786.581,17.672c-23.379,17.403-43.889,51.811-61.653,55.174c-9.53,2.068-38.983,6.029-52.697,3.582
		c14.921-14.161,39.776-57.329,66.183-64.955C749.503,9.395,780.062,12.926,786.581,17.672z M860.845,13.958
		c-24.807,15.3-48.238,47.789-66.229,49.593c-9.674,1.229-39.359,2.606-52.809-1.026c16.1-12.805,44.623-53.643,71.594-58.939
		C824.631,2.482,854.763,8.663,860.845,13.958z M935.15,16.729c-26.043,13.082-52.219,43.406-70.296,43.635
		c-9.746,0.381-39.438-0.836-52.521-5.625c17.154-11.354,49.127-49.552,76.459-52.479C900.074,2.144,929.553,10.924,935.15,16.729z
		 M1008.932,25.97c-27.088,10.759-55.805,38.688-73.835,37.339c-9.738-0.47-39.212-4.268-51.828-10.18
		c18.079-9.817,53.261-45.08,80.74-45.614C975.259,8.378,1003.86,19.699,1008.932,25.97z M1081.628,41.604
		c-27.921,8.356-58.967,33.676-76.81,30.762c-9.659-1.319-38.691-7.67-50.744-14.66c18.864-8.201,56.986-40.268,84.409-38.403
		C1049.616,21.147,1077.124,34.915,1081.628,41.604z M1152.684,63.515c-28.546,5.892-61.676,28.409-79.198,23.95
		c-9.51-2.154-37.875-11.014-49.274-19.026c19.509-6.527,60.28-35.147,87.437-30.901
		C1122.577,40.344,1148.778,56.457,1152.684,63.515z M1221.56,91.532c-28.95,3.384-63.919,22.926-80.984,16.958
		c-9.286-2.975-36.771-14.273-47.428-23.249c20.002-4.799,63.116-29.761,89.795-23.16
		C1193.587,65.827,1218.284,84.162,1221.56,91.532z M1287.729,125.447c-29.131,0.846-65.672,17.269-82.153,9.837
		c-8.988-3.772-35.388-17.423-45.22-27.291c20.345-3.041,65.466-24.148,91.472-15.251
		C1262.104,97.401,1285.112,117.82,1287.729,125.447z M1350.695,165.001c-29.098-1.697-66.927,11.478-82.699,2.637
		c-8.628-4.542-33.736-20.437-42.672-31.13c20.536-1.255,67.323-18.348,92.455-7.218
		C1327.608,134.829,1348.749,157.174,1350.695,165.001z M259.74,267.405c-6.723,28.36-0.318,67.902-11.761,81.896
		c-5.97,7.71-25.988,29.674-38.068,36.617c2.33-20.439-6.379-69.485,8.946-92.302C226.018,284.897,251.693,267.961,259.74,267.405z
		 M314.243,216.824c-9.167,27.667-6.232,67.618-18.856,80.563c-6.618,7.16-28.473,27.296-41.112,33.16
		c4.103-20.16-0.3-69.78,16.956-91.172C279.125,231.313,306.179,216.68,314.243,216.824z M372.949,171.19
		c-11.547,26.76-12.104,66.813-25.805,78.609c-7.22,6.555-30.746,24.71-43.848,29.451c5.844-19.725,5.785-69.539,24.839-89.345
		C336.702,182.56,364.928,170.336,372.949,171.19z M435.407,130.84c-13.833,25.655-17.883,65.507-32.561,76.065
		c-7.761,5.899-32.781,21.933-46.244,25.515c7.538-19.141,11.819-68.769,32.53-86.84C398.306,139.011,427.49,129.296,435.407,130.84
		z M501.142,96.09c-16.016,24.352-23.521,63.7-39.062,72.938c-8.25,5.2-34.573,18.993-48.294,21.387
		c9.177-18.409,17.769-67.476,39.974-83.672C463.47,100.994,493.393,93.862,501.142,96.09z M569.66,67.204
		c-18.079,22.86-28.986,61.404-45.273,69.251c-8.668,4.461-36.092,15.909-49.976,17.098c10.749-17.54,23.584-65.672,47.118-79.871
		C531.703,68.804,562.132,64.305,569.66,67.204z M25.928,723.572c10.759,27.088,38.688,55.804,37.342,73.832
		c-0.473,9.741-4.271,39.212-10.183,51.826c-9.814-18.077-45.081-53.259-45.614-80.738C8.337,757.245,19.656,728.644,25.928,723.572
		z M41.561,650.878c8.358,27.921,33.681,58.965,30.764,76.808c-1.316,9.662-7.67,38.69-14.659,50.743
		c-8.201-18.866-40.269-56.985-38.404-84.409C21.104,682.89,34.871,655.383,41.561,650.878z M63.473,579.825
		c5.892,28.544,28.409,61.673,23.95,79.195c-2.154,9.51-11.011,37.875-19.024,49.272c-6.529-19.51-35.149-60.278-30.904-87.435
		C40.303,609.932,56.416,583.729,63.473,579.825z M91.491,510.952c3.384,28.947,22.929,63.914,16.961,80.979
		c-2.978,9.286-14.273,36.771-23.249,47.429c-4.802-20.003-29.761-63.111-23.165-89.795
		C65.788,538.922,84.121,514.225,91.491,510.952z M125.408,444.782c0.846,29.131,17.268,65.669,9.837,82.147
		c-3.775,8.994-17.423,35.391-27.293,45.223c-3.042-20.345-24.146-65.469-15.249-91.472
		C97.362,470.406,117.781,447.401,125.408,444.782z M164.962,381.818c-1.694,29.095,11.479,66.925,2.64,82.696
		c-4.542,8.626-20.441,33.734-31.132,42.67c-1.255-20.533-18.348-67.323-7.218-92.452
		C134.791,404.902,157.135,383.762,164.962,381.818z M66.644,1161.439c22.833,18.117,61.358,29.09,69.178,45.39
		c4.446,8.679,15.848,36.122,17.012,50.007c-17.525-10.779-65.634-23.698-79.795-47.255
		C68.184,1199.398,63.735,1168.962,66.644,1161.439z M43.961,1090.628c21.166,20.04,58.586,34.328,64.956,51.249
		c3.674,9.031,12.642,37.364,12.589,51.297c-16.517-12.264-63.317-29.329-75.37-54.028
		C42.183,1128.576,40.407,1097.868,43.961,1090.628z M27.534,1018.111c19.339,21.806,55.372,39.303,60.242,56.711
		c2.874,9.322,9.337,38.325,8.072,52.202c-15.383-13.658-60.522-34.735-70.375-60.393
		C22.458,1055.761,23.362,1025.014,27.534,1018.111z M17.491,944.437c17.365,23.409,51.736,43.98,55.072,61.747
		c2.048,9.534,5.958,38.992,3.488,52.704c-14.136-14.946-57.263-39.877-64.844-66.297C9.15,981.496,12.735,950.948,17.491,944.437z
		 M13.906,870.167c15.259,24.835,47.707,48.322,49.48,66.313c1.212,9.675,2.538,39.361-1.118,52.806
		C49.49,973.166,8.698,944.571,3.452,917.593C2.369,906.363,8.602,876.239,13.906,870.167z M16.81,795.867
		c13.036,26.069,43.312,52.299,43.513,70.375c0.363,9.745-0.904,39.433-5.716,52.509c-11.326-17.175-49.47-49.217-52.346-76.548
		C2.161,830.92,10.995,801.457,16.81,795.867z"/>
	<path fill-rule="evenodd" clip-rule="evenodd" fill="#00214D" d="M866.234,1636.701c425.504,0,770.444-344.932,770.444-770.426
		c0-425.497-344.939-770.429-770.444-770.429c-425.505,0-770.444,344.932-770.444,770.429
		C95.79,1291.77,440.729,1636.701,866.234,1636.701"/>
	<path fill-rule="evenodd" clip-rule="evenodd" fill="#FDCE68" d="M866.234,1415.074c303.101,0,548.812-245.706,548.812-548.799
		c0-303.097-245.711-548.8-548.812-548.8s-548.815,245.704-548.815,548.8C317.419,1169.368,563.133,1415.074,866.234,1415.074"/>
	
		<path fill="none" stroke="#625412" stroke-width="4.5194" stroke-linecap="round" stroke-linejoin="round" stroke-miterlimit="2.6131" d="
		M322.509,1522.631c28.838,4.223,67.674-5.602,82.615,4.578c8.199,5.277,31.824,23.303,39.793,34.73
		c-20.563-0.539-68.667,12.413-92.729-0.867C342.875,1554.701,323.764,1530.599,322.509,1522.631z M1409.971,209.891
		c-28.838-4.223-67.674,5.602-82.612-4.578c-8.201-5.277-31.826-23.302-39.794-34.73c20.564,0.539,68.665-12.414,92.729,0.866
		C1389.605,177.821,1408.716,201.926,1409.971,209.891z M209.854,322.544c-4.223,28.836,5.604,67.671-4.578,82.61
		c-5.277,8.2-23.303,31.825-34.73,39.793c0.539-20.563-12.414-68.665,0.866-92.727C177.787,342.909,201.889,323.799,209.854,322.544
		z M1567.519,1350.703c1.697-29.097-11.479-66.924-2.643-82.696c4.548-8.628,20.442-33.733,31.133-42.669
		c1.255,20.533,18.349,67.32,7.221,92.452C1597.69,1327.619,1575.344,1348.76,1567.519,1350.703z M1607.07,1287.742
		c-0.843-29.135-17.266-65.672-9.837-82.152c3.775-8.991,17.424-35.389,27.296-45.221c3.039,20.346,24.146,65.467,15.249,91.47
		C1635.119,1262.115,1614.697,1285.121,1607.07,1287.742z M1522.626,1409.979c4.223-28.836-5.604-67.672,4.578-82.613
		c5.279-8.195,23.303-31.823,34.73-39.79c-0.534,20.561,12.413,68.664-0.864,92.727
		C1554.693,1389.613,1530.594,1408.723,1522.626,1409.979z M1472.739,1465.114c6.722-28.358,0.319-67.9,11.763-81.894
		c5.971-7.711,25.985-29.677,38.068-36.617c-2.332,20.438,6.377,69.484-8.948,92.302
		C1506.458,1447.622,1480.787,1464.561,1472.739,1465.114z M1418.238,1515.697c9.166-27.669,6.229-67.617,18.851-80.563
		c6.621-7.156,28.48-27.296,41.117-33.159c-4.101,20.159,0.3,69.777-16.956,91.169
		C1453.354,1501.209,1426.297,1515.843,1418.238,1515.697z M1359.532,1561.332c11.545-26.763,12.104-66.815,25.805-78.608
		c7.218-6.558,30.747-24.71,43.846-29.454c-5.843,19.729-5.782,69.542-24.837,89.349
		C1395.779,1549.96,1367.551,1562.183,1359.532,1561.332z M1297.074,1601.679c13.834-25.652,17.881-65.507,32.558-76.063
		c7.765-5.896,32.781-21.933,46.247-25.516c-7.538,19.142-11.821,68.77-32.53,86.841
		C1334.175,1593.511,1304.991,1603.227,1297.074,1601.679z M1231.339,1636.432c16.014-24.352,23.521-63.7,39.062-72.938
		c8.25-5.201,34.57-18.994,48.295-21.387c-9.18,18.409-17.77,67.476-39.977,83.672
		C1269.009,1631.526,1239.088,1638.66,1231.339,1636.432z M267.371,1472.744c28.36,6.722,67.905,0.317,81.901,11.76
		c7.708,5.973,29.672,25.988,36.615,38.068c-20.439-2.329-69.488,6.38-92.302-8.945
		C284.862,1506.465,267.927,1480.79,267.371,1472.744z M216.79,1418.243c27.667,9.169,67.618,6.234,80.563,18.854
		c7.159,6.623,27.296,28.475,33.163,41.114c-20.16-4.103-69.783,0.3-91.175-16.956
		C231.276,1453.359,216.642,1426.307,216.79,1418.243z M171.15,1359.54c26.763,11.544,66.82,12.104,78.614,25.805
		c6.555,7.22,24.712,30.743,29.451,43.846c-19.725-5.841-69.539-5.782-89.348-24.837
		C182.525,1395.786,170.302,1367.561,171.15,1359.54z M130.051,1295.799c25.632,13.877,65.476,17.995,76.009,32.689
		c5.887,7.777,21.877,32.822,25.437,46.293c-19.128-7.574-68.751-11.943-86.787-32.683
		C138.158,1332.914,128.494,1303.71,130.051,1295.799z M95.415,1230.002c24.324,16.06,63.66,23.636,72.87,39.191
		c5.188,8.257,18.938,34.604,21.305,48.33c-18.394-9.21-67.448-17.886-83.606-40.119
		C100.255,1267.682,93.174,1237.748,95.415,1230.002z M1162.821,1665.318c18.076-22.86,28.983-61.403,45.271-69.254
		c8.671-4.461,36.094-15.909,49.976-17.099c-10.749,17.543-23.584,65.675-47.115,79.874
		C1200.778,1663.718,1170.347,1668.218,1162.821,1665.318z M1092.048,1688.128c20.002-21.201,34.228-58.649,51.135-65.047
		c9.027-3.688,37.345-12.703,51.277-12.678c-12.236,16.537-29.22,63.368-53.899,75.464
		C1130,1689.838,1099.294,1691.67,1092.048,1688.128z M1019.558,1704.68c21.772-19.377,39.209-55.44,56.609-60.342
		c9.313-2.889,38.307-9.402,52.187-8.16c-13.631,15.406-34.631,60.578-60.273,70.479
		C1057.214,1709.69,1026.468,1708.839,1019.558,1704.68z M945.901,1714.85c23.378-17.402,43.888-51.81,61.652-55.176
		c9.53-2.066,38.98-6.027,52.7-3.58c-14.924,14.161-39.781,57.328-66.186,64.955C982.976,1723.127,952.422,1719.596,945.901,1714.85
		z M871.634,1718.564c24.807-15.3,48.241-47.791,66.229-49.593c9.674-1.229,39.361-2.609,52.811,1.024
		c-16.1,12.807-44.622,53.645-71.593,58.941C907.85,1730.04,877.719,1723.859,871.634,1718.564z M797.329,1715.793
		c26.046-13.082,52.222-43.406,70.301-43.635c9.743-0.382,39.433,0.833,52.517,5.625c-17.154,11.354-49.127,49.552-76.457,52.476
		C832.407,1730.378,802.929,1721.598,797.329,1715.793z M723.547,1706.553c27.088-10.76,55.807-38.688,73.835-37.34
		c9.741,0.471,39.214,4.269,51.828,10.181c-18.076,9.814-53.258,45.08-80.74,45.614
		C757.221,1724.141,728.619,1712.825,723.547,1706.553z M650.854,1690.92c27.923-8.358,58.965-33.678,76.807-30.764
		c9.665,1.318,38.693,7.67,50.746,14.659c-18.867,8.203-56.988,40.266-84.412,38.401
		C682.865,1711.375,655.358,1697.607,650.854,1690.92z M579.798,1669.008c28.543-5.892,61.678-28.409,79.198-23.95
		c9.507,2.154,37.875,11.011,49.272,19.023c-19.509,6.529-60.281,35.149-87.438,30.901
		C609.904,1692.178,583.703,1676.065,579.798,1669.008z M510.922,1640.99c28.95-3.385,63.917-22.927,80.981-16.962
		c9.289,2.978,36.772,14.273,47.431,23.252c-20.005,4.799-63.114,29.758-89.798,23.16
		C538.895,1666.695,514.197,1648.36,510.922,1640.99z M444.75,1607.072c29.135-0.843,65.674-17.266,82.153-9.834
		c8.991,3.772,35.391,17.423,45.223,27.291c-20.348,3.041-65.469,24.148-91.475,15.249
		C470.377,1635.118,447.372,1614.702,444.75,1607.072z M381.786,1567.521c29.098,1.694,66.927-11.479,82.699-2.637
		c8.628,4.54,33.734,20.437,42.669,31.127c-20.533,1.258-67.323,18.351-92.455,7.221
		C404.87,1597.693,383.73,1575.349,381.786,1567.521z M1465.112,259.776c-28.363-6.72-67.905-0.315-81.901-11.758
		c-7.708-5.976-29.674-25.991-36.615-38.068c20.439,2.33,69.488-6.379,92.303,8.945
		C1447.617,226.054,1464.553,251.732,1465.112,259.776z M1515.69,314.279c-27.667-9.169-67.615-6.235-80.563-18.856
		c-7.159-6.618-27.294-28.473-33.16-41.112c20.157,4.101,69.78-0.3,91.172,16.958
		C1501.204,279.161,1515.838,306.215,1515.69,314.279z M1561.33,372.979c-26.763-11.542-66.818-12.101-78.611-25.802
		c-6.555-7.22-24.71-30.744-29.451-43.845c19.726,5.841,69.536,5.782,89.348,24.836
		C1549.958,336.735,1562.178,364.962,1561.33,372.979z M1601.68,435.438c-25.655-13.831-65.507-17.881-76.065-32.558
		c-5.899-7.762-21.936-32.781-25.519-46.246c19.142,7.54,68.77,11.821,86.843,32.529
		C1593.509,398.34,1603.224,427.521,1601.68,435.438z M1636.43,501.173c-24.354-16.016-63.703-23.523-72.94-39.062
		c-5.198-8.249-18.993-34.569-21.387-48.297c18.409,9.18,67.479,17.771,83.677,39.977
		C1631.526,463.501,1638.655,493.425,1636.43,501.173z M1665.321,569.686c-22.865-18.076-61.411-28.983-69.257-45.269
		c-4.466-8.671-15.909-36.094-17.098-49.976c17.54,10.749,65.669,23.584,79.871,47.117
		C1663.716,531.734,1668.213,562.16,1665.321,569.686z M1688.126,640.456c-21.199-20.002-58.647-34.224-65.045-51.132
		c-3.688-9.026-12.703-37.344-12.677-51.274c16.534,12.235,63.367,29.217,75.46,53.899
		C1689.838,602.508,1691.667,633.213,1688.126,640.456z M1704.681,712.947c-19.38-21.772-55.446-39.206-60.345-56.607
		c-2.891-9.313-9.4-38.31-8.16-52.186c15.406,13.63,60.583,34.628,70.481,60.268C1709.69,675.291,1708.842,706.039,1704.681,712.947
		z M1714.853,786.604c-17.408-23.379-51.813-43.889-55.182-61.653c-2.063-9.529-6.026-38.979-3.577-52.696
		c14.161,14.921,57.331,39.775,64.958,66.183C1723.125,749.529,1719.599,780.083,1714.853,786.604z M1718.563,860.866
		c-15.3-24.807-47.789-48.238-49.593-66.226c-1.229-9.673-2.606-39.356,1.026-52.81c12.805,16.101,53.647,44.623,58.941,71.595
		C1730.041,824.652,1723.861,854.784,1718.563,860.866z M1715.793,935.171c-13.079-26.046-43.403-52.22-43.638-70.298
		c-0.376-9.744,0.834-39.436,5.625-52.518c11.356,17.154,49.552,49.128,52.479,76.457
		C1730.381,900.093,1721.596,929.574,1715.793,935.171z M1706.556,1008.95c-10.763-27.086-38.693-55.805-37.342-73.833
		c0.467-9.74,4.268-39.211,10.178-51.828c9.816,18.079,45.085,53.262,45.613,80.74
		C1724.142,975.276,1712.825,1003.879,1706.556,1008.95z M1690.921,1081.645c-8.359-27.922-33.679-58.965-30.768-76.808
		c1.321-9.662,7.673-38.691,14.66-50.743c8.206,18.866,40.268,56.985,38.403,84.408
		C1711.377,1049.633,1697.607,1077.137,1690.921,1081.645z M1669.011,1152.697c-5.895-28.544-28.414-61.676-23.953-79.195
		c2.154-9.51,11.011-37.876,19.024-49.272c6.529,19.509,35.146,60.278,30.903,87.435
		C1692.181,1122.594,1676.063,1148.792,1669.011,1152.697z M1640.987,1221.57c-3.384-28.948-22.926-63.917-16.956-80.979
		c2.973-9.286,14.269-36.77,23.247-47.428c4.802,20.002,29.761,63.111,23.16,89.795
		C1666.693,1193.598,1648.36,1218.298,1640.987,1221.57z M640.435,44.394c-20.002,21.201-34.227,58.647-51.137,65.047
		c-9.027,3.689-37.342,12.703-51.277,12.675c12.238-16.537,29.219-63.365,53.901-75.461
		C602.48,42.684,633.188,40.853,640.435,44.394z M712.923,27.842c-21.771,19.377-39.207,55.441-56.61,60.342
		c-9.313,2.889-38.307,9.4-52.184,8.161c13.633-15.409,34.628-60.581,60.271-70.479C675.266,22.83,706.015,23.683,712.923,27.842z
		 M786.583,17.672c-23.379,17.403-43.889,51.811-61.653,55.174c-9.53,2.068-38.983,6.029-52.697,3.582
		c14.921-14.161,39.776-57.329,66.183-64.955C749.505,9.395,780.063,12.926,786.583,17.672z M860.847,13.958
		c-24.807,15.3-48.238,47.789-66.229,49.593c-9.674,1.229-39.359,2.606-52.809-1.026c16.1-12.805,44.623-53.643,71.594-58.939
		C824.633,2.482,854.764,8.663,860.847,13.958z M935.151,16.729c-26.043,13.082-52.219,43.406-70.296,43.635
		c-9.746,0.381-39.438-0.836-52.521-5.625c17.154-11.354,49.127-49.552,76.459-52.479C900.076,2.144,929.555,10.924,935.151,16.729z
		 M1008.933,25.97c-27.088,10.759-55.804,38.688-73.834,37.339c-9.738-0.47-39.212-4.268-51.828-10.18
		c18.079-9.817,53.261-45.08,80.74-45.614C975.26,8.378,1003.861,19.699,1008.933,25.97z M1081.629,41.604
		c-27.921,8.356-58.967,33.676-76.81,30.762c-9.659-1.319-38.69-7.67-50.743-14.66c18.863-8.201,56.985-40.268,84.408-38.403
		C1049.617,21.147,1077.125,34.915,1081.629,41.604z M1152.685,63.515c-28.546,5.892-61.676,28.409-79.198,23.95
		c-9.51-2.154-37.875-11.014-49.274-19.026c19.509-6.527,60.28-35.147,87.437-30.901
		C1122.578,40.344,1148.779,56.457,1152.685,63.515z M1221.561,91.532c-28.95,3.384-63.919,22.926-80.984,16.958
		c-9.286-2.975-36.771-14.273-47.428-23.249c20.002-4.799,63.116-29.761,89.795-23.16
		C1193.588,65.827,1218.285,84.162,1221.561,91.532z M1287.73,125.447c-29.131,0.846-65.672,17.269-82.153,9.837
		c-8.988-3.772-35.388-17.423-45.22-27.291c20.345-3.041,65.466-24.148,91.472-15.251
		C1262.105,97.401,1285.113,117.82,1287.73,125.447z M1350.696,165.001c-29.098-1.697-66.927,11.478-82.699,2.637
		c-8.628-4.542-33.736-20.437-42.672-31.13c20.536-1.255,67.323-18.348,92.455-7.218
		C1327.609,134.829,1348.75,157.174,1350.696,165.001z M259.741,267.405c-6.723,28.36-0.318,67.902-11.761,81.896
		c-5.97,7.71-25.988,29.674-38.068,36.617c2.33-20.439-6.379-69.485,8.946-92.302C226.02,284.897,251.695,267.961,259.741,267.405z
		 M314.245,216.824c-9.167,27.667-6.232,67.618-18.856,80.563c-6.618,7.16-28.473,27.296-41.112,33.16
		c4.103-20.16-0.3-69.78,16.956-91.172C279.126,231.313,306.181,216.68,314.245,216.824z M372.95,171.19
		c-11.547,26.76-12.104,66.813-25.805,78.609c-7.22,6.555-30.746,24.71-43.848,29.451c5.844-19.725,5.785-69.539,24.839-89.345
		C336.704,182.56,364.929,170.336,372.95,171.19z M435.408,130.84c-13.833,25.655-17.883,65.507-32.561,76.065
		c-7.761,5.899-32.781,21.933-46.244,25.515c7.538-19.141,11.819-68.769,32.53-86.84
		C398.308,139.011,427.492,129.296,435.408,130.84z M501.144,96.09c-16.016,24.352-23.521,63.7-39.062,72.938
		c-8.25,5.2-34.573,18.993-48.294,21.387c9.177-18.409,17.769-67.476,39.974-83.672C463.472,100.994,493.395,93.862,501.144,96.09z
		 M569.661,67.204c-18.079,22.86-28.986,61.404-45.273,69.251c-8.668,4.461-36.092,15.909-49.976,17.098
		c10.749-17.54,23.584-65.672,47.118-79.871C531.705,68.804,562.133,64.305,569.661,67.204z M25.93,723.572
		c10.759,27.088,38.688,55.804,37.342,73.832c-0.473,9.741-4.271,39.212-10.183,51.826c-9.814-18.077-45.081-53.259-45.614-80.738
		C8.339,757.245,19.657,728.644,25.93,723.572z M41.562,650.878c8.358,27.921,33.681,58.965,30.764,76.808
		c-1.316,9.662-7.67,38.69-14.659,50.743c-8.201-18.866-40.269-56.985-38.404-84.409C21.105,682.89,34.873,655.383,41.562,650.878z
		 M63.475,579.825c5.892,28.544,28.409,61.673,23.95,79.195c-2.154,9.51-11.011,37.875-19.024,49.272
		c-6.529-19.51-35.149-60.278-30.904-87.435C40.305,609.932,56.417,583.729,63.475,579.825z M91.493,510.952
		c3.384,28.947,22.929,63.914,16.961,80.979c-2.978,9.286-14.273,36.771-23.249,47.429c-4.802-20.003-29.761-63.111-23.165-89.795
		C65.789,538.922,84.122,514.225,91.493,510.952z M125.41,444.782c0.846,29.131,17.268,65.669,9.837,82.147
		c-3.775,8.994-17.423,35.391-27.293,45.223c-3.042-20.345-24.146-65.469-15.249-91.472
		C97.364,470.406,117.783,447.401,125.41,444.782z M164.964,381.818c-1.694,29.095,11.479,66.925,2.64,82.696
		c-4.542,8.626-20.441,33.734-31.132,42.67c-1.255-20.533-18.348-67.323-7.218-92.452
		C134.792,404.902,157.136,383.762,164.964,381.818z M66.646,1161.439c22.833,18.117,61.358,29.09,69.178,45.39
		c4.446,8.679,15.848,36.122,17.012,50.007c-17.525-10.779-65.634-23.698-79.795-47.255
		C68.185,1199.398,63.736,1168.962,66.646,1161.439z M43.963,1090.628c21.166,20.04,58.586,34.328,64.956,51.249
		c3.674,9.031,12.642,37.364,12.589,51.297c-16.517-12.264-63.317-29.329-75.37-54.028
		C42.185,1128.576,40.409,1097.868,43.963,1090.628z M27.536,1018.111c19.339,21.806,55.372,39.303,60.242,56.711
		c2.874,9.322,9.337,38.325,8.072,52.202c-15.383-13.658-60.522-34.735-70.375-60.393
		C22.459,1055.761,23.364,1025.014,27.536,1018.111z M17.493,944.437c17.365,23.409,51.736,43.98,55.072,61.747
		c2.048,9.534,5.958,38.992,3.488,52.704c-14.136-14.946-57.263-39.877-64.844-66.297C9.152,981.496,12.736,950.948,17.493,944.437z
		 M13.908,870.167c15.259,24.835,47.707,48.322,49.48,66.313c1.212,9.675,2.538,39.361-1.118,52.806
		C49.491,973.166,8.7,944.571,3.453,917.593C2.371,906.363,8.603,876.239,13.908,870.167z M16.812,795.867
		c13.036,26.069,43.312,52.299,43.513,70.375c0.363,9.745-0.904,39.433-5.716,52.509c-11.326-17.175-49.47-49.217-52.346-76.548
		C2.163,830.92,10.996,801.457,16.812,795.867z"/>
	<path fill-rule="evenodd" clip-rule="evenodd" fill="#003082" d="M866.234,1378.175c283.035,0,512.482-229.438,512.482-512.467
		c0-283.03-229.447-512.469-512.482-512.469c-283.033,0-512.479,229.438-512.479,512.469
		C353.754,1148.736,583.201,1378.175,866.234,1378.175"/>
	<path fill-rule="evenodd" clip-rule="evenodd" fill="#A5C2CC" d="M354.702,892.423c260.198-228.034,711.161-41.661,846.377,167.735
		l-167.74,289.43c-173.589,63.949-366.133,22.197-498.059-93.646C425.549,1170.977,357.713,1016.122,354.702,892.423"/>
	<path fill-rule="evenodd" clip-rule="evenodd" fill="#4EA702" d="M760.044,879.636c15.64-2.21,31.231-5.741,44.689-5.741
		l57.456-49.928c-57.232-23-175.189-44.542-271.77-33.503c-118.41,13.684-207.671,73.077-235.714,101.834
		c0.709,18.136,1.768,36.491,5.389,53.65c24.816-4.868,39.712-27.391,47.733-50.273c6.524,0,59.468-10.195,37.26,33.043
		c-5.198,10.122,1.598,25.729-3.315,38.479c-8.191,21.255-24.014,45.159-17.34,65.995c2.249,7.022,5.132,17.602,11.55,30.642
		c4.012,8.15,6.09,23.158,9.441,32.614c5.589,15.765,9.598,26.3,9.598,38.536c11.745,0,0.668-53.506,8.499-53.506
		c0,14.354,20.881,86.993,30.017,96.129c14.352,14.354,38.958,10.119,37.588,41.696c-20.8,4.108,5.945,40.228,14.967,45.637
		c16.616,13.333,33.233,25.335,49.849,35.688c0-31.321-33.488-52.551-33.488-77.347c0-23.49,35.485-44.038,35.485-67.529
		c-18.27,0-41.859,17.013-53.505-6.524c-12.842-25.951-18.47-34.999-1.623-44.65c7.403-4.24,7.848-11.842,17.182-14.689
		c6.999-2.135,21.752-7.078,31.422-6.103c9.672,0.973,16.173,2.162,24.781,1.798c7.527-0.317,11.206-7.492,17.08-9.29
		c7.553-2.313,16.966,0.67,23.988,0.67c0,11.745,13.054,28.712,13.054,40.457c18.12,0,5.777-26.948,5.218-30.018
		c-4.126-39.277-6.359-40.908,19.769-56.051c9.578-5.551,26.615-41.338,35.751-41.338v-5.218c-2.612,0-7.833,0-10.442,0
		c0-26.103,37.847-0.331,37.847-29.042c2.609,0,2.609-1.306,5.218-1.306c0-19.735-11.72-32.072-19.044-48.035L760.044,879.636z"/>
	
		<path fill="none" stroke="#185C2E" stroke-width="1.8611" stroke-linecap="round" stroke-linejoin="round" stroke-miterlimit="2.6131" d="
		M760.044,879.636c15.64-2.21,31.231-5.741,44.689-5.741l57.456-49.928c-57.232-23-175.189-44.542-271.77-33.503
		c-118.41,13.684-207.671,73.077-235.714,101.834c0.709,18.136,1.768,36.491,5.389,53.65c24.816-4.868,39.712-27.391,47.733-50.273
		c6.524,0,59.468-10.195,37.26,33.043c-5.198,10.122,1.598,25.729-3.315,38.479c-8.191,21.255-24.014,45.159-17.34,65.995
		c2.249,7.022,5.132,17.602,11.55,30.642c4.012,8.15,6.09,23.158,9.441,32.614c5.589,15.765,9.598,26.3,9.598,38.533
		c11.745,0,0.668-53.503,8.499-53.503c0,14.354,20.881,86.993,30.017,96.129c14.352,14.354,38.958,10.119,37.588,41.696
		c-20.8,4.108,5.945,40.226,14.967,45.637c16.616,13.333,33.233,25.335,49.849,35.688c0-31.321-33.488-52.551-33.488-77.347
		c0-23.49,35.485-44.041,35.485-67.529c-18.27,0-41.859,17.013-53.505-6.524c-12.842-25.951-18.47-34.999-1.623-44.65
		c7.403-4.24,7.848-11.842,17.182-14.689c6.999-2.135,21.752-7.078,31.422-6.103c9.672,0.973,16.173,2.162,24.781,1.798
		c7.527-0.317,11.206-7.492,17.08-9.29c7.553-2.313,16.966,0.67,23.988,0.67c0,11.745,13.054,28.712,13.054,40.457
		c18.12,0,5.777-26.948,5.218-30.018c-4.126-39.277-6.359-40.908,19.769-56.051c9.578-5.551,26.615-41.338,35.751-41.338v-5.218
		c-2.612,0-7.833,0-10.442,0c0-26.103,37.847-0.331,37.847-29.042c2.609,0,2.609-1.306,5.218-1.306
		c0-19.735-11.72-32.072-19.044-48.035L760.044,879.636z"/>
	<path fill-rule="evenodd" clip-rule="evenodd" fill="#FDCE68" d="M375.573,1013.784l-0.907-3.01
		c-0.036-0.114,0.038,0.035,0.091-0.071c94.533-202.633,202.338-362.935,313.899-463.642
		c107.741-97.252,219.106-139.088,325.661-110.12l0.33,0.109c78.281,28.722,121.486,102.076,143.899,188.391
		c36.196,139.37,17.683,314.465,5.899,386.318l-3.696-3.893l-2.909-3.068c-0.127-0.135,0.059-1.568,0.087-1.748
		c11.666-74.463,27.819-241.205-7.086-375.612c-21.788-83.903-63.5-155.119-138.739-182.824
		c-103.665-28.124-212.473,13.021-318.111,108.377C582.802,653.36,475.256,813.604,380.918,1016.351
		c-0.051,0.106-2.655,5.65-2.706,5.76L375.573,1013.784z"/>
	
		<path fill="none" stroke="#002C36" stroke-width="1.8608" stroke-linecap="round" stroke-linejoin="round" stroke-miterlimit="2.6131" d="
		M1061.423,922.395c59.435,41.355,108.13,88.931,139.656,137.754l-167.74,289.43c-173.589,63.949-366.133,22.197-498.059-93.644
		c-109.731-84.968-177.567-239.823-180.578-363.522"/>
	<path fill-rule="evenodd" clip-rule="evenodd" fill="#FDCE68" d="M376.554,714.4l2.904-9.029c0.023-0.066,0.051-0.051,0.099-0.099
		c87.592-86.917,191.276-144.156,299.981-169.227c112.68-25.988,230.734-17.414,341.835,28.487l0.046,0.016
		c110.741,47.255,195.1,128.442,243.163,228.071c47.217,97.88,58.703,214.673,26.452,333.375l-7.01-3.249
		c31.73-116.786,19.779-230.483-26.617-326.663c-47.237-97.917-130.188-177.725-239.108-224.202l0.048,0.018
		c-109.535-45.253-225.93-53.708-337.03-28.084c-110.999,25.6-216.739,85.225-305.105,176.163c-0.054,0.053-1.832,1.837-1.885,1.893
		L376.554,714.4z"/>
	<path fill-rule="evenodd" clip-rule="evenodd" fill="#FFFFFF" d="M571.349,754.428l-9.128-58.299l-50.919-14.589l50.919-14.585
		l9.128-58.299l9.123,58.299l50.919,14.585l-50.919,14.589L571.349,754.428z M866.881,612.73l-9.123-58.296l-50.921-14.586
		l50.921-14.585l9.123-58.302l9.126,58.302l50.921,14.585l-50.921,14.586L866.881,612.73z M1273.362,901.866l-9.124-58.299
		l-50.921-14.586l50.921-14.588l9.124-58.299l9.126,58.299l50.921,14.588l-50.921,14.586L1273.362,901.866z M1069.827,557.201
		l-9.126-58.297l-50.921-14.588l50.921-14.586l9.126-58.296l9.123,58.296l50.921,14.586l-50.921,14.588L1069.827,557.201z"/>
	
		<path fill="none" stroke="#58595B" stroke-width="1.8609" stroke-linecap="round" stroke-linejoin="round" stroke-miterlimit="2.6131" d="
		M571.349,754.428l-9.128-58.299l-50.919-14.589l50.919-14.585l9.128-58.299l9.123,58.299l50.919,14.585l-50.919,14.589
		L571.349,754.428z M866.881,612.73l-9.123-58.296l-50.921-14.586l50.921-14.585l9.123-58.302l9.126,58.302l50.921,14.585
		l-50.921,14.586L866.881,612.73z M1273.362,901.866l-9.124-58.299l-50.921-14.586l50.921-14.588l9.124-58.299l9.126,58.299
		l50.921,14.588l-50.921,14.586L1273.362,901.866z M1069.827,557.201l-9.126-58.297l-50.921-14.588l50.921-14.586l9.126-58.296
		l9.123,58.296l50.921,14.586l-50.921,14.588L1069.827,557.201z"/>
	<path fill-rule="evenodd" clip-rule="evenodd" fill="#4EA702" d="M1047.896,1273.269c-7.354,5.628-10.899,20.714-12.403,27.23
		c-5.076,21.986-28.038,30.553-15.937,54.074c26.826-8.474,52.575-19.86,78.212-32.487l-40.805-53.99L1047.896,1273.269z
		 M1149.013,1033.099c1.646-10.222,3.439-23.491,3.439-34.258c21.807,24.133,40.97,45.845,46.872,59.028l-8.856,7.467
		L1149.013,1033.099z"/>
	
		<path fill="none" stroke="#185C2E" stroke-width="1.8611" stroke-linecap="round" stroke-linejoin="round" stroke-miterlimit="2.6131" d="
		M1047.896,1273.269c-7.354,5.628-10.899,20.714-12.403,27.23c-5.076,21.986-28.038,30.551-15.937,54.074
		c26.826-8.474,52.575-19.86,78.212-32.487l-40.805-53.99L1047.896,1273.269z M1149.013,1033.099
		c1.646-10.222,3.439-23.491,3.439-34.258c21.807,24.133,40.97,45.845,46.872,59.028l-8.856,7.467L1149.013,1033.099z"/>
	<path fill-rule="evenodd" clip-rule="evenodd" fill="#4EA702" d="M1166.273,573.542l-30.386,51.143l-9.012,42.979
		c-0.673,6.72-4.101,14.499-7.954,19.309c2.66-7.279,0.655-13.926,2.253-17.81c2.635-1.301,6.751-10.666,1.542-14.091
		c-5.703-3.668-16.068,4.759-6.933,14.67c1.11,5.482-1.169,14.354-1.753,21.531c-2.478,2.543-6.228,10.602-9.34,15.901
		c9.578-29.631,1.561-43.561,1.388-59.615c-3.387,15.227-15.251,35.122-22.878,52.685c-4.297,12.068-5.201,33.048-0.809,44.479
		c-1.672,14.591-16.371,36.516-22.067,43.559c1.156-5.084,2.31-10.168,3.466-15.251c7.944-2.731,8.871-18.598,0.229-19.792
		c-12.271-1.107-12.459,13.27-6.291,19.161c-1.138,5.025-2.698,11.743-4.682,17.614c-2.368,6.063-6.642,12.762-13.674,22.221
		c12.487-30.635,6.742-38.562,9.052-60.284c0.005-9.377,0.861-18.965,1.502-25.365c-7.876,18.506-18.295,28.311-23.417,54.242
		c-1.577,15.286,0.658,28.879-4.313,49.049l-9.012,15.248l-0.693-7.624c7.383-9.54-4.736-18.229-9.223-14.616
		c-3.417,3.247-4.713,7.765-3.044,13.555c0.847,2.622,5.084,4.816,7.414,3.833c1.742,5.62-0.544,15.91-3.677,19.41l1.867,7.838
		l4.698,0.58c0.93-3.834,5.254-11.486,12.329-12.351c11.031,0.315,21.852-2.34,33.31-9.237c12.5-7.892,23.089-18.75,30.503-32.581
		c3.785-6.44,7.475-16.422,11.783-21.333c-14.654,11.461-26.341,14.862-39.514,22.721c-7.129,3.33-14.594,7.221-20.798,12.477
		l24.956-31.196c17.449-6.521,35.319-14.529,48.528-29.115c21.633-25.835,23.976-41.909,31.193-52.682
		c-9.873,9.375-33.947,20.233-50.606,32.581c3.943-8.715,9.792-18.49,15.638-24.873c3.983-5.068,10.302-8.439,14.924-10.752
		c7.269,7.493,17.926-6.445,11.631-12.318c-3.986-3.596-12.635,1.725-12.381,7.042c-4.621,2.434-9.245,4.443-14.077,8.785
		l12.69-19.082c4.172-2.137,11.732-4.911,17.601-6.623c5.417,7.04,14.226,2.621,14.134-2.432c0.043-9.723-8.607-9.05-11.11-6.253
		c-2.86,5.074-11.867,4.629-16.849,8.006c4.191-5.149,6.687-10.724,10.879-15.871c14.601-12.581,26.869-40.858,28.325-61.498
		C1164.078,598.572,1164.119,586.692,1166.273,573.542z"/>
	
		<path fill="none" stroke="#185C2E" stroke-width="1.8609" stroke-linecap="round" stroke-linejoin="round" stroke-miterlimit="2.6131" d="
		M1166.273,573.542l-30.386,51.143l-9.012,42.979c-0.673,6.717-4.101,14.499-7.954,19.309c2.66-7.279,0.655-13.926,2.253-17.81
		c2.635-1.301,6.751-10.666,1.542-14.091c-5.703-3.668-16.068,4.759-6.933,14.67c1.11,5.482-1.169,14.354-1.753,21.531
		c-2.478,2.543-6.228,10.602-9.34,15.901c9.578-29.631,1.561-43.563,1.388-59.615c-3.387,15.227-15.251,35.122-22.878,52.685
		c-4.297,12.065-5.201,33.048-0.809,44.479c-1.672,14.591-16.371,36.516-22.067,43.559c1.156-5.084,2.312-10.168,3.466-15.251
		c7.944-2.731,8.871-18.598,0.23-19.792c-12.273-1.107-12.461,13.27-6.293,19.161c-1.138,5.025-2.698,11.743-4.682,17.614
		c-2.368,6.063-6.642,12.762-13.674,22.221c12.487-30.635,6.742-38.562,9.052-60.284c0.005-9.377,0.861-18.965,1.502-25.365
		c-7.876,18.506-18.295,28.311-23.417,54.239c-1.577,15.289,0.658,28.882-4.313,49.052l-9.012,15.248l-0.693-7.624
		c7.383-9.54-4.736-18.229-9.223-14.616c-3.417,3.245-4.713,7.765-3.044,13.555c0.847,2.622,5.084,4.816,7.416,3.833
		c1.74,5.62-0.546,15.91-3.679,19.41l1.867,7.838l4.698,0.58c0.93-3.834,5.254-11.486,12.329-12.351
		c11.031,0.315,21.852-2.34,33.31-9.237c12.5-7.892,23.089-18.75,30.503-32.581c3.785-6.44,7.475-16.422,11.783-21.336
		c-14.654,11.464-26.341,14.865-39.514,22.724c-7.129,3.33-14.594,7.221-20.798,12.477l24.956-31.196
		c17.449-6.521,35.319-14.529,48.528-29.115c21.633-25.835,23.976-41.909,31.193-52.682c-9.873,9.375-33.947,20.233-50.606,32.581
		c3.943-8.715,9.792-18.49,15.638-24.873c3.983-5.068,10.302-8.439,14.924-10.752c7.269,7.493,17.926-6.445,11.631-12.318
		c-3.986-3.596-12.635,1.725-12.381,7.042c-4.621,2.434-9.245,4.443-14.077,8.785l12.69-19.082
		c4.172-2.137,11.732-4.911,17.601-6.623c5.417,7.04,14.226,2.621,14.134-2.432c0.043-9.723-8.607-9.05-11.11-6.255
		c-2.86,5.076-11.867,4.631-16.849,8.008c4.191-5.149,6.687-10.724,10.879-15.871c14.601-12.581,26.869-40.858,28.325-61.498
		C1164.078,598.572,1164.119,586.692,1166.273,573.542z"/>
	<path fill-rule="evenodd" clip-rule="evenodd" fill="#ABABA6" d="M1305.374,1134.399l-85.404-57.016
		c1.658-22.594-18.877-26.399-25.233-15.528l-82.816-56.772c2.396-5.958-1.674-15.957-7.359-17.065
		c-3.666-1.13-10.836-1.45-14.232,7.116c-0.623-10.162-3.672-25.985-11.567-31.297c4.006-8.12-10.19-36.227-17.307-41.812
		c2.446-8.33-15.315-32.019-24.185-34.696c2.798-4.935-15.419-21.184-23.129-22.078c-1.596-7.01-18.547-19.674-24.182-21.026
		c0.099-3.104-26.473-24.796-33.646-23.858c-4.639-5.658-27.756-9.058-40.479-9.865l3.557,7.108l-32.712,13.191l-13.824-13.249
		c-9.692,1.563-29.89,13.165-39.242,21.488l26.361,10.995l-34.113,25.731l-21.46-4.84c-11.011,7.137-7.114,30.987,1.563,40.584
		c-8.326,3.084-13.417,38.495,0.079,50.466c-7.973,6.423-10.287,41.94,7.604,49.171c-6.379,6.961-11.143,43.018,21.27,49.171
		c16.018,3.72,51.835,3.141,72.702,2.82l-17.642,35.002c5.849,4.483,15.968,8.452,26.14,12.077
		c4.833,4.314,22.594,11.86,33.889,10.514c1.916,5.988,13.531,21.671,17.873,25.233c-9.397,2.995-2.632,31.856,18.681,26.77
		l63.327,82.813c-10.1,4.02-3.227,27.437,16.58,25.798l31.137,42.361C1179.576,1285.608,1249.526,1217.686,1305.374,1134.399z"/>
	
		<path fill="none" stroke="#58595B" stroke-width="2.6583" stroke-linecap="round" stroke-linejoin="round" stroke-miterlimit="2.6131" d="
		M1304.062,1134.399l-85.404-57.016c1.658-22.594-18.877-26.399-25.233-15.528l-82.816-56.772
		c2.396-5.958-1.674-15.957-7.359-17.065c-3.666-1.13-10.836-1.45-14.232,7.116c-0.623-10.162-3.672-25.985-11.567-31.297
		c4.009-8.12-10.19-36.227-17.307-41.812c2.446-8.333-15.315-32.019-24.185-34.696c2.798-4.935-15.419-21.184-23.129-22.078
		c-1.596-7.01-18.547-19.674-24.182-21.026c0.099-3.104-26.473-24.796-33.646-23.858c-4.639-5.658-27.756-9.058-40.479-9.865
		l3.557,7.108l-32.712,13.188l-13.824-13.249c-9.692,1.565-29.89,13.168-39.242,21.491l26.361,10.995l-34.113,25.731l-21.46-4.84
		c-11.011,7.134-7.114,30.987,1.563,40.584c-8.326,3.084-13.417,38.495,0.079,50.466c-7.973,6.423-10.287,41.94,7.604,49.171
		c-6.379,6.961-11.143,43.018,21.27,49.171c16.018,3.72,51.835,3.141,72.702,2.82l-17.642,35.002
		c5.849,4.483,15.968,8.452,26.14,12.077c4.833,4.314,22.594,11.86,33.889,10.514c1.916,5.988,13.531,21.671,17.873,25.233
		c-9.397,2.995-2.632,31.856,18.681,26.77l63.327,82.813c-10.1,4.02-3.227,27.437,16.58,25.798l31.137,42.361
		C1178.264,1285.605,1248.214,1217.686,1304.062,1134.399z"/>
	<path fill="none" stroke="#58595B" stroke-width="1.0411" stroke-miterlimit="2.6131" d="M884.485,830.592
		c-5.523,2.381-20.152,12.955-25.675,19.091"/>
	<path fill="#58595B" d="M1045.216,1252.24c26.656-12.053,71.274-43.149,103.626-86.406c24.032-32.131,39.969-69.866,41.204-104.987
		l2.489,0.806l2.435-2.096c-1.263,35.845-17.604,76.894-41.983,109.486c-32.67,43.681-78.078,75.021-105.123,87.252
		L1045.216,1252.24z"/>
	<path fill="#58595B" d="M1121.939,1013.267c-4.369-0.771-11.168,0.767-11.572,4.807l-0.097,0.988
		c-3.102,31.214-18.257,58.878-37.174,83.857c-23.317,30.787-49.867,53.294-78.55,67.712c-0.455,0.227,0.754-0.233-0.897,0.389
		c-1.966,1.68-4.291,6.502-3.435,11.006l-9.118-10.401c2.665-1.044,7.437-3.427,10.186-4.726
		c26.195-12.37,55.829-36.14,78.756-66.413c18.604-24.57,34.016-53.256,37.06-83.873l0.132-1.342l1.773-11.063L1121.939,1013.267z"
		/>
	
		<path fill="none" stroke="#58595B" stroke-width="2.6585" stroke-linecap="round" stroke-linejoin="round" stroke-miterlimit="2.6131" d="
		M1158.934,1197.861l51.92,45.959 M1062.942,1112.889l76.291,67.534 M902.417,1062.94c10.493-1.929,21.313-12.378,22.4-17.927
		 M970.794,1065.636c4.703,4.824-2.169,27.21,0,42.164 M934.578,1080.94c6.26-8.91,11.679-16.425,10.866-20.836 M913.994,1109.972
		c4.18-6.832,10.34-14.926,16.06-22.738 M973.571,1018.129c6.672-5.945,20.508-11.382,29.063-17.053 M958.983,979.588
		c7.017-5.305,19.426-9.585,26.445-14.634 M960.266,941.334c1.799-0.348,21.974-18.025,21.311-19.255 M804.012,961.28
		c5.668-1.328,20.381,8.199,24.601,13.387c4.583,2.411,28.341,5.907,37.626,5.066c3.135-3.621,20.742-3.26,23.516-1.088
		c14.471,2.652,25.566,2.411,33.285-0.724 M811.248,1011.569c4.339-1.21,15.193,0.844,17.365,5.063
		c8.925,4.101,24.723,8.201,36.542,5.787c4.703-2.53,20.259-1.809,23.876,0c11.578-2.771,23.519-0.119,32.2-5.063 M802.564,911.355
		c7.959,0.844,21.707,6.028,27.497,12.662c8.803,1.689,24.646,12.058,35.982,11.577c1.687-3.62,23.47-2.172,24.799,2.17
		c13.265,0.361,31.956,1.446,36.539-3.257 M828.249,877.35c6.596,7.437,1.926,38.81-2.53,42.687
		c3.138,8.563,4.464,43.536-2.533,49.204c6.11,13.138,8.143,28.714,2.533,45.223c3.737,9.042,11.819,28.579,6.875,45.581
		 M873.475,893.627c-2.894,3.979-10.854,23.877-7.597,41.244c-0.241,6.029-4.101,35.213,0.361,45.22
		c-1.931,9.167-4.944,31.715-0.361,41.605c-2.414,6.392-4.825,29.425,0.361,41.968 M890.707,900.578
		c6.271,7.113,5.079,32.604,0.135,36.463c5.907,13.506,2.411,37.144-1.812,42.692c3.499,4.941,4.101,36.658-0.36,43.05
		c5.307,6.029,3.379,37.743-3.618,40.881 M924.142,865.032c-2.652-10.01-2.065-40.626-5.444-46.655 M883.396,831.229
		c8.948,5.915,14.68,35.386,23.363,42.502 M857.918,849.853c9.888,2.292,14.712,24.842,23.155,31.836 M1076.78,964.359
		c-3.473,19.792-21.081,27.741-32.542,41.78 M1058.709,921.124c0.483,8.439-25.807,26.287-35.093,38.348 M1034.98,886.539
		c0.602,15.678-20.988,34.625-28.311,39.707 M959.103,906.798c7.886-0.313,42.522-35.073,51.852-41.39 M941.014,891.49
		c10.175,0.066,21.956-13.025,31.564-25.589c7.475-9.776,12.253-20.106,15.576-21.32 M935.488,885.421
		c-0.686-28.493,20.853-51.531,18.303-64.509"/>
	<circle fill-rule="evenodd" clip-rule="evenodd" fill="#FDCE68" cx="990.794" cy="1037.438" r="4.337"/>
	
		<circle fill="none" stroke="#5E4A1D" stroke-width="1.8609" stroke-linecap="round" stroke-linejoin="round" stroke-miterlimit="2.6131" cx="990.794" cy="1037.437" r="4.338"/>
	<circle fill-rule="evenodd" clip-rule="evenodd" fill="#FDCE68" cx="1161.959" cy="1227.751" r="11.522"/>
	
		<path fill="none" stroke="#5E4A1D" stroke-width="1.8609" stroke-linecap="round" stroke-linejoin="round" stroke-miterlimit="2.6131" d="
		M1161.959,1216.229c6.364,0,11.521,5.157,11.521,11.524c0,6.361-5.157,11.52-11.521,11.52c-6.361,0-11.521-5.158-11.521-11.52
		C1150.438,1221.387,1155.598,1216.229,1161.959,1216.229z"/>
	<path fill-rule="evenodd" clip-rule="evenodd" fill="#FDCE68" d="M1103.035,1184.96c6.364,0,11.524,5.157,11.524,11.521
		c0,6.362-5.16,11.52-11.524,11.52c-6.361,0-11.521-5.157-11.521-11.52C1091.514,1190.117,1096.674,1184.96,1103.035,1184.96z"/>
	
		<path fill="none" stroke="#5E4A1D" stroke-width="1.8609" stroke-linecap="round" stroke-linejoin="round" stroke-miterlimit="2.6131" d="
		M1103.035,1184.96c6.364,0,11.524,5.157,11.524,11.521c0,6.362-5.16,11.52-11.524,11.52c-6.361,0-11.521-5.157-11.521-11.52
		C1091.514,1190.117,1096.674,1184.96,1103.035,1184.96z"/>
	<circle fill-rule="evenodd" clip-rule="evenodd" fill="#FDCE68" cx="1059.914" cy="1148.422" r="11.52"/>
	
		<circle fill="none" stroke="#5E4A1D" stroke-width="1.8609" stroke-linecap="round" stroke-linejoin="round" stroke-miterlimit="2.6131" cx="1059.914" cy="1148.422" r="11.52"/>
	<circle fill-rule="evenodd" clip-rule="evenodd" fill="#FDCE68" cx="1016.784" cy="1100.381" r="10.617"/>
	
		<circle fill="none" stroke="#5E4A1D" stroke-width="1.8612" stroke-linecap="round" stroke-linejoin="round" stroke-miterlimit="2.6131" cx="1016.784" cy="1100.381" r="10.617"/>
	<circle fill-rule="evenodd" clip-rule="evenodd" fill="#FDCE68" cx="1054.312" cy="1055.614" r="10.618"/>
	
		<circle fill="none" stroke="#5E4A1D" stroke-width="1.8612" stroke-linecap="round" stroke-linejoin="round" stroke-miterlimit="2.6131" cx="1054.312" cy="1055.614" r="10.618"/>
	<circle fill-rule="evenodd" clip-rule="evenodd" fill="#FDCE68" cx="811.723" cy="928.869" r="4.335"/>
	
		<circle fill="none" stroke="#5E4A1D" stroke-width="1.8609" stroke-linecap="round" stroke-linejoin="round" stroke-miterlimit="2.6131" cx="811.723" cy="928.869" r="4.335"/>
	<circle fill-rule="evenodd" clip-rule="evenodd" fill="#FDCE68" cx="816.893" cy="885.159" r="4.337"/>
	
		<circle fill="none" stroke="#5E4A1D" stroke-width="1.8609" stroke-linecap="round" stroke-linejoin="round" stroke-miterlimit="2.6131" cx="816.893" cy="885.159" r="4.337"/>
	<circle fill-rule="evenodd" clip-rule="evenodd" fill="#FDCE68" cx="857.784" cy="874.821" r="4.337"/>
	
		<circle fill="none" stroke="#5E4A1D" stroke-width="1.8609" stroke-linecap="round" stroke-linejoin="round" stroke-miterlimit="2.6131" cx="857.784" cy="874.821" r="4.337"/>
	<circle fill-rule="evenodd" clip-rule="evenodd" fill="#FDCE68" cx="886.922" cy="868.711" r="4.336"/>
	
		<circle fill="none" stroke="#5E4A1D" stroke-width="1.8609" stroke-linecap="round" stroke-linejoin="round" stroke-miterlimit="2.6131" cx="886.924" cy="868.711" r="4.336"/>
	<circle fill-rule="evenodd" clip-rule="evenodd" fill="#FDCE68" cx="881.335" cy="907.199" r="4.337"/>
	
		<circle fill="none" stroke="#5E4A1D" stroke-width="1.8609" stroke-linecap="round" stroke-linejoin="round" stroke-miterlimit="2.6131" cx="881.337" cy="907.198" r="4.338"/>
	<circle fill-rule="evenodd" clip-rule="evenodd" fill="#FDCE68" cx="880.715" cy="923.959" r="4.337"/>
	
		<circle fill="none" stroke="#5E4A1D" stroke-width="1.8609" stroke-linecap="round" stroke-linejoin="round" stroke-miterlimit="2.6131" cx="880.715" cy="923.959" r="4.337"/>
	<circle fill-rule="evenodd" clip-rule="evenodd" fill="#FDCE68" cx="878.853" cy="948.79" r="4.338"/>
	
		<circle fill="none" stroke="#5E4A1D" stroke-width="1.8609" stroke-linecap="round" stroke-linejoin="round" stroke-miterlimit="2.6131" cx="878.853" cy="948.789" r="4.336"/>
	<circle fill-rule="evenodd" clip-rule="evenodd" fill="#FDCE68" cx="877.61" cy="968.032" r="4.338"/>
	
		<circle fill="none" stroke="#5E4A1D" stroke-width="1.8609" stroke-linecap="round" stroke-linejoin="round" stroke-miterlimit="2.6131" cx="877.61" cy="968.032" r="4.338"/>
	<circle fill-rule="evenodd" clip-rule="evenodd" fill="#FDCE68" cx="877.61" cy="992.863" r="4.336"/>
	
		<circle fill="none" stroke="#5E4A1D" stroke-width="1.8609" stroke-linecap="round" stroke-linejoin="round" stroke-miterlimit="2.6131" cx="877.61" cy="992.863" r="4.336"/>
	<circle fill-rule="evenodd" clip-rule="evenodd" fill="#FDCE68" cx="876.371" cy="1010.865" r="4.337"/>
	
		<circle fill="none" stroke="#5E4A1D" stroke-width="1.8609" stroke-linecap="round" stroke-linejoin="round" stroke-miterlimit="2.6131" cx="876.371" cy="1010.865" r="4.337"/>
	<circle fill-rule="evenodd" clip-rule="evenodd" fill="#FDCE68" cx="876.371" cy="1034.455" r="4.337"/>
	
		<circle fill="none" stroke="#5E4A1D" stroke-width="1.8609" stroke-linecap="round" stroke-linejoin="round" stroke-miterlimit="2.6131" cx="876.371" cy="1034.455" r="4.337"/>
	<circle fill-rule="evenodd" clip-rule="evenodd" fill="#FDCE68" cx="876.371" cy="1051.215" r="4.336"/>
	
		<circle fill="none" stroke="#5E4A1D" stroke-width="1.8609" stroke-linecap="round" stroke-linejoin="round" stroke-miterlimit="2.6131" cx="876.371" cy="1051.215" r="4.336"/>
	<circle fill-rule="evenodd" clip-rule="evenodd" fill="#FDCE68" cx="912.302" cy="861.191" r="4.337"/>
	
		<circle fill="none" stroke="#5E4A1D" stroke-width="1.8609" stroke-linecap="round" stroke-linejoin="round" stroke-miterlimit="2.6131" cx="912.302" cy="861.191" r="4.337"/>
	<circle fill-rule="evenodd" clip-rule="evenodd" fill="#FDCE68" cx="956.483" cy="851.321" r="4.337"/>
	
		<circle fill="none" stroke="#5E4A1D" stroke-width="1.8609" stroke-linecap="round" stroke-linejoin="round" stroke-miterlimit="2.6131" cx="956.483" cy="851.321" r="4.337"/>
	<circle fill-rule="evenodd" clip-rule="evenodd" fill="#FDCE68" cx="984.684" cy="870.591" r="4.336"/>
	
		<circle fill="none" stroke="#5E4A1D" stroke-width="1.8609" stroke-linecap="round" stroke-linejoin="round" stroke-miterlimit="2.6131" cx="984.684" cy="870.591" r="4.336"/>
	<circle fill-rule="evenodd" clip-rule="evenodd" fill="#FDCE68" cx="964.474" cy="919.94" r="4.336"/>
	
		<circle fill="none" stroke="#5E4A1D" stroke-width="1.8609" stroke-linecap="round" stroke-linejoin="round" stroke-miterlimit="2.6131" cx="964.474" cy="919.94" r="4.336"/>
	<circle fill-rule="evenodd" clip-rule="evenodd" fill="#FDCE68" cx="963.063" cy="961.298" r="4.336"/>
	
		<circle fill="none" stroke="#5E4A1D" stroke-width="1.8609" stroke-linecap="round" stroke-linejoin="round" stroke-miterlimit="2.6131" cx="963.063" cy="961.298" r="4.336"/>
	<circle fill-rule="evenodd" clip-rule="evenodd" fill="#FDCE68" cx="971.523" cy="999.837" r="4.337"/>
	
		<circle fill="none" stroke="#5E4A1D" stroke-width="1.8609" stroke-linecap="round" stroke-linejoin="round" stroke-miterlimit="2.6131" cx="971.523" cy="999.837" r="4.337"/>
	<circle fill-rule="evenodd" clip-rule="evenodd" fill="#FDCE68" cx="925.463" cy="1065.636" r="4.337"/>
	
		<circle fill="none" stroke="#5E4A1D" stroke-width="1.8609" stroke-linecap="round" stroke-linejoin="round" stroke-miterlimit="2.6131" cx="925.463" cy="1065.636" r="4.337"/>
	<circle fill-rule="evenodd" clip-rule="evenodd" fill="#FDCE68" cx="956.013" cy="1078.796" r="4.337"/>
	
		<circle fill="none" stroke="#5E4A1D" stroke-width="1.8609" stroke-linecap="round" stroke-linejoin="round" stroke-miterlimit="2.6131" cx="956.013" cy="1078.796" r="4.337"/>
	<circle fill-rule="evenodd" clip-rule="evenodd" fill="#FDCE68" cx="810.783" cy="948.138" r="4.336"/>
	
		<circle fill="none" stroke="#5E4A1D" stroke-width="1.8609" stroke-linecap="round" stroke-linejoin="round" stroke-miterlimit="2.6131" cx="810.783" cy="948.138" r="4.336"/>
	<circle fill-rule="evenodd" clip-rule="evenodd" fill="#FDCE68" cx="812.192" cy="978.688" r="4.336"/>
	
		<circle fill="none" stroke="#5E4A1D" stroke-width="1.8609" stroke-linecap="round" stroke-linejoin="round" stroke-miterlimit="2.6131" cx="812.192" cy="978.688" r="4.336"/>
	<circle fill-rule="evenodd" clip-rule="evenodd" fill="#FDCE68" cx="814.542" cy="998.427" r="4.337"/>
	
		<circle fill="none" stroke="#5E4A1D" stroke-width="1.8609" stroke-linecap="round" stroke-linejoin="round" stroke-miterlimit="2.6131" cx="814.542" cy="998.427" r="4.337"/>
	<circle fill-rule="evenodd" clip-rule="evenodd" fill="#FDCE68" cx="817.833" cy="1026.157" r="4.337"/>
	
		<circle fill="none" stroke="#5E4A1D" stroke-width="1.8609" stroke-linecap="round" stroke-linejoin="round" stroke-miterlimit="2.6131" cx="817.833" cy="1026.157" r="4.337"/>
	<circle fill-rule="evenodd" clip-rule="evenodd" fill="#FDCE68" cx="821.593" cy="1044.488" r="4.336"/>
	
		<circle fill="none" stroke="#5E4A1D" stroke-width="1.8609" stroke-linecap="round" stroke-linejoin="round" stroke-miterlimit="2.6131" cx="821.593" cy="1044.486" r="4.338"/>
	<circle fill-rule="evenodd" clip-rule="evenodd" fill="#FDCE68" cx="813.133" cy="902.08" r="4.336"/>
	
		<circle fill="none" stroke="#5E4A1D" stroke-width="1.8609" stroke-linecap="round" stroke-linejoin="round" stroke-miterlimit="2.6131" cx="813.133" cy="902.08" r="4.336"/>
	<path fill="#58595B" d="M1092.4,989.992c-2.327,32.654-10.259,64.252-40.4,100.633c-22.827,28.394-57.743,51.917-84.188,60.55
		c-1.001,0.325-1.738,0.633-2.203,1.428c-0.259,0.44-2.007,7.211-2.493,7.34c-0.482,0.13,0.061,0.255-0.419,0.374
		c-1.75-3.301-2.261-12.632,2.063-13.877c26.638-6.596,55.477-25.216,79.62-55.243c22.063-27.44,39.979-55.842,40.459-85.768
		l0.901-1.837c-1.166,1.948-2.446,3.958-3.828,6.016c-25.901,38.562-88.058,94.572-124.375,110.773
		c-4.83,4.85-3.056,9.324-1.862,13.749c-3.691-5.162-7.19-10.873-8.046-13.844c37.441-18.6,60.966-39.534,84.401-61.027
		c-14.321,5.327-46.787,5.348-58.113-4.561l1.24-5.587c11.044,13.983,51.784,11.077,64.559,3.385
		c27.975-29.842,46.355-52.797,47.631-63.47l0.476,5.577c0.874-1.751,2.437-3.501,4.683-5.254c-0.141,0.441-0.287,0.889-0.447,1.344
		L1092.4,989.992z"/>
	<path fill-rule="evenodd" clip-rule="evenodd" fill="#58595B" d="M827.017,1057.646l2.823,4.878
		c8.813,6.158,26.869,4.357,35.939,2.043c7.192,2.357,14.309,3.054,21.501,0.619c3.679,1.154,8.114,0.89,13.163,0.674l-1.392,5.282
		l-14.781,28.094c7.767,5.454,23.125,12.345,30.037,10.013c-17.542-8.813-21.994-9.927-18.742-18.483
		c4.66-11.519,11.555-24.905,17.715-31.579c-7.789,1.174-16.003,1.491-25.159-0.076c-7.79,1.689-15.577,1.666-23.363-0.069
		C852.454,1063.004,840.515,1060.44,827.017,1057.646"/>
	<path fill-rule="evenodd" clip-rule="evenodd" fill="#6D6E70" d="M956.156,908.484c-9.883-1.775-22.208-10.46-36.201-23.874
		c-6.245,3.422-26.613,12.235-29.524,12.579c-2.909-0.257-14.291-5.135-16.43-6.932c-1.199-0.686-3.089-2.965-0.437-5.449
		c-9.756,2.911-32.423-6.188-49.369-10.211l-24.407-2.559c-2.914,4.475-4.075,9.53-4.35,14.881
		c5.564-5.904,16.26-7.957,28.241-9.243l38.254,11.039c1.799,1.883,6.163,4.281,10.785,5.648l17.203,6.676
		c4.362-0.599,23.874-7.873,29.265-11.298c15.833,13.867,27.215,21.225,34.146,22.081L956.156,908.484z"/>
	
		<path fill="none" stroke="#6D6E70" stroke-width="1.8609" stroke-linecap="round" stroke-linejoin="round" stroke-miterlimit="2.6131" d="
		M855.261,844.548c1.199-1.54,2.396-2.396,3.595-2.566 M851.153,841.981c2.142-1.799,4.621-3.595,7.446-5.394 M847.304,839.156
		c3.336-2.822,6.674-4.964,10.013-6.42 M842.423,837.102c4.967-4.276,10.615-7.871,16.946-10.782 M929.459,816.05l0.257,17.97
		 M933.824,817.592l0.257,11.553 M938.958,819.389l-0.77,7.187 M943.836,820.671l-1.286,7.96 M948.458,822.211l-1.54,6.42
		 M959.24,826.832l-4.878,11.553 M962.578,828.374l-3.338,8.214 M965.66,830.427l-2.312,5.648 M990.307,849.426l-8.986,11.555
		 M993.129,851.479l-6.674,7.446 M995.697,853.534l-4.621,5.134 M998.521,855.587l-3.08,3.081 M949.997,895.38
		c2.996,0.343,4.705,0.516,7.703-0.513 M954.362,900.001c4.022,0.6,7.358,0.173,10.015-1.282 M942.04,888.192
		c3.079-0.173,7.957-2.652,9.24-4.364 M995.161,1176.822c9.568-4.616,18.793-10.657,27.967-17.24 M998.106,1181.094
		c6.402-3.169,15.576-8.717,21.198-12.673 M1001.051,1185.074c3.717-1.807,9.039-5.119,12.659-7.367 M1003.405,1188.756
		c2.602-1.08,7.703-4.075,9.863-5.598 M1008.558,1197.008l5.887-3.684 M1005.905,1192.736c1.474-0.541,6.771-3.833,8.098-4.865
		 M1012.092,1201.281l2.942-1.916 M1222.02,1095.869c-2.519,8.506-6.459,18.203-11.81,29.187 M1226.795,1096.004
		c-2.616,7.456-5.388,14.604-8.358,21.355 M1231.305,1097.462c-1.506,4.202-4.258,10.98-6.766,16.318 M1235.286,1099.053
		c-1.237,4.112-2.963,8.226-4.911,12.339 M1239.396,1100.646c-1.103,3.714-2.563,7.561-4.375,11.277 M1243.113,1103.033
		c-0.754,2.652-2.078,6.278-3.183,8.225 M1246.562,1105.554c-0.354,1.458-0.839,3.979-1.854,5.571 M893.149,1095.852
		c5.411-4.609,10.502-9.645,15.33-15.038 M898.578,1097.465c3.323-2.739,6.648-5.867,9.974-9.391 M902.979,1100.03
		c2.2-1.488,4.205-3.371,6.014-5.646 M906.939,1102.82c0.661-0.514,1.395-1.029,1.982-1.761 M921.608,1108.687
		c3.328-2.739,5.33-7.627,8.659-11.148 M925.791,1111.181c2.203-1.488,3.986-4.84,5.795-7.116 M929.533,1113.6
		c0.658-0.511,1.466-1.905,2.053-2.64 M958.363,1124.514c9.568-4.613,18.938-10.215,28.114-16.795 M960.276,1128.198
		c6.402-3.168,11.016-5.622,16.636-9.578 M962.926,1132.029c3.717-1.804,7.716-4.088,11.333-6.336 M965.284,1135.713
		c2.599-1.082,6.669-3.193,8.828-4.715 M967.342,1139.544c1.471-0.538,5.005-2.213,6.331-3.241 M1116.709,1021.066
		c-0.895,4.745-5.346,25.213-8.902,32.095 M1121.571,1023.764c-0.993,4.297-4.789,19.053-6.479,23.755 M1126.508,1025.995
		c-0.566,2.749-4.512,16.366-5.398,18.884 M1130.489,1028.527c-0.268,1.646-3.009,10.836-4.31,14.047 M1134.346,1030.888
		c-0.506,2.858-2.733,9.271-3.354,11.362 M1138.146,1032.506c-0.439,1.599-1.735,6.878-2.16,7.714 M1141.597,1034.94
		c-0.097,1.201-1.268,4.324-1.604,5.487 M1078.447,976.705c-1.812,3.958-6.031,9.258-12.667,15.901 M1080.858,981.133
		c-1.943,3.893-5.226,8.051-9.853,12.479 M1082.469,985.963c-1.677,2.751-3.351,4.967-5.027,6.644 M1062.19,947.238
		c-0.598,3.082-5.303,5.648-7.958,8.474 M1060.907,937.999c-1.28,4.875-8.214,9.239-12.322,13.861 M1059.11,930.809
		c-2.652,7.018-10.441,12.495-15.66,18.742 M1047.046,907.702c-0.961,3.147-3.829,7.81-5.907,8.986 M1043.45,902.311
		c-1.966,5.907-7.273,14.121-11.295,16.943 M1038.572,897.176c-1.712,6.075-8.3,16.431-17.459,23.364 M978.919,1035.477
		c2.078-0.539,3.552-2.081,5.631-2.82 M978.116,1031.652c2.815-1.209,6.031-3.823,8.445-4.026 M978.317,1027.425
		c2.881-2.348,5.765-3.89,8.646-4.629 M979.323,1021.386c3.417-2.347,7.104-4.158,11.06-5.434 M990.984,1050.57
		c11.527,2.348,25.2-0.671,41.016-9.058 M993.398,1045.537c7.454,2.164,19.685-1.088,35.185-8.049 M997.821,1039.902
		c2.411,1.544,8.041,0.874,11.458-0.201 M975.157,996.019l4.364-2.053 M963.348,1002.949l2.312-1.283 M962.578,996.019
		c2.652-2.566,7.874-3.593,10.27-5.392 M961.549,991.653c2.398-3.849,9.672-5.132,13.094-7.446 M959.497,986.519
		c5.221-5.048,13.524-7.271,17.972-10.525 M960.01,953.659l12.067-4.624 M959.753,950.32l13.351-7.7 M961.293,945.956l14.636-9.756"
		/>
	<path fill="#58595B" d="M1077.302,1278.711c-3.306,3.508-5.887,7.741-5.887,12.078l-8.671-9.911l2.609-1.423l-0.049-0.097
		c0.48-0.216,0.971-0.447,1.456-0.671l6.206-3.384l0.244,0.193c56.394-29.9,116.334-115.104,136.896-169.438l3.757,1.877
		c-17.426,53.152-78.229,139.364-136.633,170.716L1077.302,1278.711z M1216.15,1097.002c4.568-8.572,12.386-8.75,21.12-6.563
		l-18.201-12.51l-0.19-0.043c0.01-0.155,0.022-0.308,0.033-0.463l-2.002-4.496l-0.455-0.104l-0.01,0.079l0.213-0.003
		c-0.01,0.198,0.109,0.396,0.094,0.592l-3.628,21.991L1216.15,1097.002z"/>
	<polygon fill-rule="evenodd" clip-rule="evenodd" fill="#B8122B" points="879.513,832.665 741.427,612.563 741.427,598.341 
		796.278,635.813 673.463,421.721 673.893,399.742 926.794,734.824 926.794,747.835 859.361,696.718 917.559,817.439 	"/>
	<polygon fill-rule="evenodd" clip-rule="evenodd" fill="#231F20" points="795.062,634.72 813.354,647.986 673.745,404.201 
		673.451,421.79 	"/>
	<polygon fill-rule="evenodd" clip-rule="evenodd" fill="#231F20" points="859.908,698.42 850.484,678.467 926.967,736.104 
		926.853,747.972 	"/>
	<polygon fill-rule="evenodd" clip-rule="evenodd" fill="#231F20" points="887.176,829.606 741.346,598.363 741.391,612.609 
		879.996,833.524 	"/>
	<polygon fill-rule="evenodd" clip-rule="evenodd" fill="#B8122B" points="858.244,849.718 672.025,773.792 658.171,773.792 
		674.797,804.828 404.889,690.658 404.889,703.405 781.761,929.523 781.761,917.887 748.507,861.91 824.436,876.874 	"/>
	<polygon fill-rule="evenodd" clip-rule="evenodd" fill="#231F20" points="781.678,918.142 404.869,692.864 404.856,703.524 
		781.678,929.714 	"/>
	<polygon fill-rule="evenodd" clip-rule="evenodd" fill="#231F20" points="668.7,773.792 688.867,810.796 674.457,804.701 
		657.831,773.622 	"/>
	<polygon fill-rule="evenodd" clip-rule="evenodd" fill="#231F20" points="831.781,871.206 742.413,852.238 748.383,861.875 
		824.857,876.727 	"/>
	<polygon fill-rule="evenodd" clip-rule="evenodd" fill="#B8122B" points="840.538,1063.575 750.962,1237.151 751.892,1248.289 
		810.833,1208.839 744.465,1353.641 756.068,1353.178 899.48,1147.112 888.342,1147.112 848.427,1172.641 906.444,1061.718 	"/>
	<polygon fill-rule="evenodd" clip-rule="evenodd" fill="#231F20" points="895.468,1061.741 834.504,1181.459 848.892,1172.176 
		906.604,1061.805 	"/>
	<polygon fill-rule="evenodd" clip-rule="evenodd" fill="#231F20" points="745.187,1353.638 890.286,1147.112 899.447,1147.055 
		756.117,1353.138 	"/>
	<polygon fill-rule="evenodd" clip-rule="evenodd" fill="#231F20" points="751.076,1239.278 815.94,1197.236 810.755,1208.872 
		751.864,1248.303 	"/>
	<path fill-rule="evenodd" clip-rule="evenodd" fill="#4EA702" d="M812.056,1049.485c-4.934,2.444-10.574,7.469-14.248,11.729
		c3.433-4.946,8.829-11.806,10.366-19.163c-1.738-6.84-3.427-11.807-1.377-17.617c-23.623,15.582-27.937,39.992-30.749,51.374
		c-1.578,6.806-37.689,27.804-51.566,33.233c7.175-8.016,15.533-33.392,31.46-43.838c-20.67,4.794-35.317,17.57-47.781,33.235
		c-6.544,10.033-12.853,23.361-19.634,30.094c-15.688,6.014-37.766,13.13-55.585,16.433c-7.033,1.644-9.23,15.782-2.602,16.023
		c19.001-3.14,40.134-15.879,60.316-24.062c7.886-3.168,24.049-9.686,31.697-10.47c7.098-0.514,23.655,4.786,27.441,11.816
		c-0.157,5.218,8.674,12.962,20.576,8.681c6.232-3.777,6.547-18.317-14.191-15.939c-1.418-4.02-7.333-9.182-14.192-11.443
		c39.265-0.437,66.942-23.363,79.005-29.471c-13.01,0.401-27.675-4.304-49.201,1.832c11.039-9.278,23.734-18.425,35.955-22.329
		c10.958-3.041,14.839-5.95,21.544-8.255c-2.619-1.344-4.154-1.837-7.007-3.023c-4.573,1.07-7.362,1.286-11.936,2.357
		c0.945-2.269,3.379-4.9,6.219-6.65C814.751,1052.801,813.87,1050.718,812.056,1049.485z"/>
	
		<path fill="none" stroke="#185C2E" stroke-width="1.8605" stroke-linecap="round" stroke-linejoin="round" stroke-miterlimit="2.6131" d="
		M812.056,1049.485c-4.934,2.444-10.574,7.469-14.248,11.729c3.433-4.946,8.829-11.806,10.366-19.163
		c-1.738-6.84-3.427-11.807-1.377-17.617c-23.623,15.579-27.937,39.992-30.749,51.374c-1.578,6.806-37.689,27.804-51.566,33.233
		c7.175-8.016,15.533-33.394,31.46-43.838c-20.67,4.791-35.317,17.57-47.781,33.235c-6.544,10.033-12.853,23.361-19.634,30.094
		c-15.688,6.014-37.766,13.13-55.585,16.43c-7.033,1.646-9.23,15.785-2.602,16.026c19.001-3.14,40.134-15.879,60.316-24.064
		c7.886-3.165,24.049-9.683,31.697-10.467c7.098-0.514,23.655,4.783,27.441,11.813c-0.157,5.221,8.674,12.965,20.576,8.684
		c6.232-3.777,6.547-18.317-14.191-15.942c-1.418-4.017-7.333-9.179-14.192-11.44c39.265-0.437,66.942-23.363,79.005-29.471
		c-13.01,0.401-27.675-4.304-49.201,1.832c11.039-9.278,23.734-18.425,35.955-22.329c10.958-3.041,14.839-5.95,21.544-8.255
		c-2.619-1.344-4.154-1.837-7.007-3.023c-4.573,1.067-7.362,1.286-11.936,2.357c0.945-2.269,3.379-4.9,6.219-6.65
		C814.751,1052.801,813.87,1050.718,812.056,1049.485z"/>
	
		<path fill="none" stroke="#185C2E" stroke-width="1.8609" stroke-linecap="round" stroke-linejoin="round" stroke-miterlimit="2.6131" d="
		M1104.834,707.157l-13.78,25.886 M1102.288,679.574c-1.691,14.923-15.472,31.544-15.259,52.407 M1126.241,709.703
		c1.837,0.353,5.371-1.626,5.511-3.395 M1141.716,687.425c2.119,1.979,4.52,2.261,7.208,0.849 M1155.071,612.736
		c-5.581,9.761-10.317,32.463-23.106,56.655 M1038.067,827.465l-12.508,15.701 M1024.5,848.471
		c23.176-7.073,35.538-21.359,44.087-25.038 M1040.607,766.991l-11.869,57.715 M1010.088,827.676
		c1.298,2.584,0.719,6.832-0.638,7.851 M1119.036,739.832c-11.715,16.572-39.613,34.27-45.571,41.801 M1062.018,768.479
		c1.977-1.275,3.958-4.88,4.026-7.64 M1092.118,747.685l-8.48,13.58 M795.47,1047.428c-5.045,7.726-7.729,19.572-13.008,26.607
		 M798.219,1060.677l-3.786,4.05 M772.051,1091.956l-25.543,15.063 M707.479,1122.908l17.502-14.095 M727.347,1089.253
		c-4.258,10.282-22.472,26.161-25.545,33.059 M632.494,1145.502c2.762,1.807,1.501,13.564-1.654,15.256 M742.014,1119.133
		l-10.172-0.086 M741.775,1113.229c5.6-4.209,32.25-5.922,44.473-11.486"/>
	
		<path fill="none" stroke="#185C2E" stroke-width="1.8609" stroke-linecap="round" stroke-linejoin="round" stroke-miterlimit="2.6131" d="
		M756.2,1133.836c0.945,2.764,4.728,5.053,8.041,4.499"/>
	
		<path fill="none" stroke="#58595B" stroke-width="1.2498" stroke-linecap="round" stroke-linejoin="round" stroke-miterlimit="2.6131" d="
		M972.53,1057.381l-51.742-39.653 M970.561,1065.074l-45.042-34.52 M971.669,1039.018l-13.374,21.016 M973.424,1048.192
		l-8.208,12.894 M965.076,1013.592l-24.588,38.64 M968.317,1020.426l-23.849,37.481 M971.153,1027.9l-19.718,30.985
		 M971.696,1038.342l-44.803-34.333 M961.331,1007.542l-26.166,41.128 M974.679,1049.831l-50.049-38.358 M971.125,1028.7
		l-44.141-33.825 M956.392,992.957l-30.536,47.992 M958.452,1000.802l-28.658,45.04 M952.708,976.575l-29.202,45.41
		 M954.723,984.494l-29.062,45.68 M958.511,1000.637l-33.203-25.449 M964.938,1014.76l-39.003-29.89 M955.886,948.514
		l-28.485,44.769 M953.206,978.171l-23.485-18.001 M950.79,968.057l-24.804,38.985 M955.894,989.431l-27.898-21.496
		 M952.583,958.593l-23.008-17.635 M951.036,967.37l-21.097-16.231 M954.921,938.496l-29.222,45.924 M953.227,918.088
		l-22.878,35.957 M953,929.978l-24.176,38 M940.488,891.971l-11.555,18.16 M945.135,896.206l-15.127,23.774 M949.669,900.608
		l-21.422,33.671 M954.814,904.059l-24.695,38.813 M954.712,911.368l-46.607-35.721 M940.521,890.751l-23.854-18.279
		 M929.162,875.527l-14.281,22.446 M932.563,881.358l-10.65,16.735 M936.298,887.019l-10.195,16.024 M952.556,919.452
		l-54.282-41.597 M908.235,874.902l-15.239,23.945 M917.414,871.648l-16.303,25.622 M925.747,869.725l-18.511,29.09
		 M898.715,897.672l-18.96-14.532 M957.423,943.245l-27.067-21.326 M888.83,899.255l-17.937-13.079 M954.598,949.848l-25.073-18.825
		 M883.169,880.771l-8.44,13.265 M890.662,880.175L881.2,895.04 M899.274,877.81l-12.574,19.763 M911.909,898.045l-23.226-17.802
		 M953.658,930.039l-25.355-19.434"/>
	<path fill-rule="evenodd" clip-rule="evenodd" fill="#FDCE68" d="M944.931,1526.198c-1.268-7.192-1.773-14.438-1.522-21.761
		c0.249-7.35,1.565-14.283,3.936-20.848c2.348-6.535,6.105-12.132,11.27-16.766c5.167-4.634,11.854-7.66,20.091-9.113
		c1.687-0.295,2.978-0.468,3.854-0.513c4.789-0.514,9.594-0.011,14.411,1.511c4.84,1.492,9.316,3.9,13.447,7.143
		c4.128,3.241,7.647,7.253,10.568,12.088c2.912,4.807,4.901,10.135,5.93,15.965l-19.575,3.45
		c-1.984-6.405-5.035-11.519-9.242-15.353c-4.18-3.842-9.518-5.188-16.039-4.037c-5.358,1.055-9.561,3.809-12.629,8.292
		c-3.074,4.456-4.995,9.978-5.747,16.509c-0.75,6.527-0.496,13.293,0.744,20.325c1.364,6.956,3.537,13.328,6.537,19.085
		c3,5.757,6.653,10.213,11.009,13.333c4.359,3.147,9.026,4.281,14.054,3.396c3.902-0.688,7.241-2.243,10.013-4.662
		c2.774-2.418,4.81-5.398,6.166-8.973c1.354-3.575,1.969-7.432,1.857-11.52l20.401-3.598c0.559,4.726,0.355,9.67-0.562,14.794
		c-0.895,5.092-2.724,10.049-5.463,14.832c-2.741,4.784-6.582,8.964-11.557,12.487c-4.978,3.523-11.034,5.915-18.227,7.185
		c-7.995,1.408-15.17,0.742-21.442-1.984c-6.271-2.726-11.603-6.859-15.999-12.397c-4.397-5.539-7.878-11.68-10.531-18.435
		C948.064,1539.899,946.148,1533.098,944.931,1526.198 M1078.684,1453.893c-4.708,1.979-8.125,5.506-10.27,10.602
		c-2.151,5.074-3.056,10.976-2.713,17.706c0.358,6.696,1.725,13.358,4.101,19.921c2.589,6.363,5.922,11.948,9.994,16.725
		c4.083,4.802,8.737,8.135,13.961,9.997c5.198,1.872,10.719,1.702,16.471-0.506c4.232-1.626,7.563-4.009,9.967-7.142
		c2.441-3.117,4.012-6.748,4.805-10.83c0.752-4.101,0.813-8.483,0.183-13.155c-0.647-4.64-1.842-9.271-3.612-13.885
		c-1.975-5.145-4.446-9.84-7.424-14.105c-2.976-4.271-6.359-7.855-10.125-10.774c-3.8-2.932-7.875-4.827-12.229-5.717
		C1087.429,1451.816,1083.043,1452.219,1078.684,1453.893z M1049.269,1506.368c-2.86-8.968-4.55-18.294-5.021-28.005
		c-0.479-9.732,1.464-18.912,5.813-27.591c4.347-8.676,12.002-15.104,22.977-19.318c7.478-2.868,15.341-3.445,23.577-1.692
		c8.262,1.746,16.237,6.304,23.896,13.689c7.652,7.357,14.215,17.634,19.73,30.786c3.026,7.881,5.003,15.531,5.963,22.957
		c0.935,7.437,0.684,14.51-0.803,21.247c-1.512,6.748-4.484,12.716-8.958,17.954c-4.477,5.234-10.609,9.335-18.395,12.322
		c-5.854,2.248-11.969,3.285-18.33,3.082c-6.352-0.181-12.616-1.875-18.856-5.094c-6.201-3.204-12.027-8.15-17.474-14.843
		C1057.939,1525.172,1053.227,1516.684,1049.269,1506.368z M1190.77,1513.048l-59.628-103.272l25.681-14.827l59.915,67.555
		l-28.877-85.474l25.678-14.827l59.628,103.275l-17.919,10.346l-46.104-79.854l31.737,88.148l-17.965,10.37l-60.332-71.64
		l46.104,79.856L1190.77,1513.048z M1304.599,1441.898l-76.657-91.353l22.715-19.06l70.735,56.127l-43.278-79.162l22.713-19.06
		l76.654,91.353l-15.848,13.3l-59.272-70.637l46.562,81.3l-15.892,13.335l-71.855-60.077l59.272,70.636L1304.599,1441.898z
		 M1388.026,1299.2l14.642-18.081l-41.33-18.381L1388.026,1299.2z M1400.969,1354.367l-71.559-101.129l15.378-18.99l114.535,48.058
		l-13.841,17.093l-23.806-9.39l-21.823,26.945l14.954,20.319L1400.969,1354.367z M1474.187,1256.16l-102.219-61.419l10.652-17.733
		l89.701,7.554l-69.241-41.603l10.49-17.457l102.221,61.42l-10.487,17.453l-90.821-8.224l70.359,42.275L1474.187,1256.16z
		 M1518.646,1122.029l6.24-17.148c1.55-4.259,1.204-8.547-1.063-12.869c-2.256-4.288-5.828-8.216-10.711-11.785
		c-4.894-3.544-10.427-6.453-16.651-8.717c-6.428-2.343-12.678-3.748-18.78-4.207c-6.103-0.46-11.412,0.236-15.93,2.091
		c-4.517,1.852-7.575,4.929-9.125,9.187l-6.24,17.149L1518.646,1122.029z M1532.346,1148.686l-112.061-40.787l14.161-38.912
		c2.235-6.147,5.767-11.074,10.6-14.748c4.832-3.674,10.441-6.141,16.885-7.405c6.433-1.242,13.327-1.448,20.64-0.579
		c7.296,0.836,14.598,2.596,21.869,5.243c7.145,2.602,13.801,5.917,19.898,9.959c6.122,4.048,11.249,8.628,15.345,13.732
		c4.105,5.079,6.804,10.597,8.135,16.542c1.332,5.944,0.899,11.971-1.306,18.046L1532.346,1148.686z M622.753,1487.764
		c2.591-7.521,5.976-14.598,10.137-21.265c4.187-6.654,9.139-12.36,14.853-17.111c5.75-4.769,12.088-7.927,19.08-9.453
		c6.994-1.555,14.408-0.985,22.289,1.728c7.19,2.477,13.272,6.496,18.234,12.022c4.959,5.528,8.219,11.905,9.796,19.082
		c1.57,7.202,1.113,14.367-1.336,21.479l-17.124-5.897c0.318-5.345-0.958-10.81-3.824-16.333c-2.83-5.541-7.472-9.408-13.915-11.626
		c-5.036-1.39-10.013-0.863-14.916,1.613c-4.875,2.484-9.276,6.339-13.173,11.572c-3.864,5.219-7.061,11.237-9.53,17.998
		c-2.226,6.872-3.354,13.663-3.369,20.378c-0.015,6.715,1.342,12.609,4.068,17.711c2.721,5.102,6.903,8.638,12.525,10.573
		c4.263,1.467,8.625,1.393,13.089-0.23c4.471-1.646,8.369-4.126,11.735-7.475c3.356-3.326,5.604-6.601,6.689-9.759l-20.358-7.01
		l6.735-19.563l36.381,12.525l-21.331,61.95l-12.35-4.253l3.869-15.149c-2.388,2.594-5.348,4.677-8.856,6.282
		c-3.511,1.606-7.238,2.592-11.168,2.99c-3.892,0.382-7.625,0.13-11.171-0.747c-6.034-2.075-11.392-5.444-16.026-10.083
		c-4.636-4.64-8.272-10.259-10.919-16.826c-2.65-6.57-4.029-13.737-4.116-21.489
		C618.655,1503.668,619.997,1495.774,622.753,1487.764z M727.04,1576.873l20.711-117.439l20.373,3.593l-20.708,117.441
		L727.04,1576.873z M788.329,1526.673c0.511-7.286,1.771-14.438,3.788-21.483c2.02-7.07,4.972-13.478,8.862-19.275
		c3.859-5.774,8.859-10.294,14.989-13.541c6.136-3.244,13.361-4.563,21.702-3.981c1.707,0.119,3.003,0.267,3.861,0.435
		c4.774,0.66,9.312,2.312,13.618,4.954c4.334,2.617,8.097,6.036,11.318,10.181c3.222,4.146,5.666,8.887,7.33,14.285
		c1.667,5.368,2.305,11.021,1.893,16.926l-19.827-1.388c-0.376-6.694-2.101-12.396-5.254-17.134
		c-3.125-4.735-7.978-7.332-14.588-7.797c-5.452-0.271-10.195,1.382-14.258,4.992c-4.063,3.58-7.261,8.473-9.571,14.627
		c-2.309,6.152-3.696,12.778-4.194,19.902c-0.358,7.078,0.206,13.788,1.723,20.099c1.519,6.312,3.989,11.52,7.459,15.603
		c3.468,4.105,7.721,6.336,12.815,6.691c3.953,0.277,7.568-0.424,10.841-2.099c3.277-1.677,5.975-4.072,8.155-7.215
		c2.18-3.141,3.709-6.735,4.588-10.729l20.667,1.443c-0.602,4.723-1.997,9.469-4.126,14.223c-2.101,4.725-5.073,9.087-8.887,13.065
		c-3.819,3.981-8.554,7.106-14.235,9.322c-5.681,2.215-12.139,3.071-19.423,2.561c-8.102-0.566-14.901-2.947-20.328-7.108
		c-5.424-4.164-9.598-9.464-12.522-15.902c-2.927-6.438-4.82-13.238-5.757-20.436
		C788.052,1540.725,787.841,1533.662,788.329,1526.673z M207.698,1058.624l6.753,19.613c-6.161,2.121-10.137,5.587-11.928,10.396
		c-1.781,4.835-1.766,9.883,0.066,15.198c2.332,6.778,5.193,11.247,8.582,13.414c3.404,2.13,7.51,2.554,12.324,1.269
		c3.031-1.042,5.229-2.833,6.593-5.371c1.402-2.521,2.19-5.406,2.406-8.61c0.241-3.214,0.147-7.66-0.226-13.333
		c-0.407-5.688-0.604-9.268-0.688-10.762c-0.254-6.316,0.508-11.948,2.348-16.946c1.816-4.989,4.436-9.139,7.845-12.408
		c3.438-3.279,7.383-5.671,11.821-7.2c4.726-1.455,9.451-2.078,14.169-1.893c4.715,0.188,9.21,1.309,13.447,3.354
		c4.258,2.038,8.077,5.117,11.484,9.169c3.415,4.081,6.188,9.213,8.318,15.399c4.146,12.962,3.775,23.053-1.164,30.237
		c-4.924,7.211-12.729,12.652-23.458,16.349l-6.217-18.048c5.98-2.061,9.692-5.376,11.15-9.984c1.441-4.573,1.263-9.51-0.559-14.799
		c-3.554-10.32-9.133-14.515-16.712-12.511c-3.595,1.24-6.225,3.61-7.907,7.147c-1.684,3.536-2.345,8.617-1.971,15.21
		c0.582,10.279,0.262,18.861-1.001,25.787c-1.245,6.888-3.783,12.617-7.602,17.119c-3.811,4.529-9.194,7.99-16.128,10.375
		c-6.521,1.903-12.873,2.31-19.06,1.194c-6.184-1.115-11.743-3.999-16.717-8.688c-4.977-4.69-8.91-11.204-11.786-19.548
		c-1.433-4.159-2.146-8.65-2.175-13.493c-0.033-4.842,0.89-9.753,2.747-14.702c1.86-4.946,4.88-9.434,9.065-13.46
		C195.729,1064.065,201.125,1060.888,207.698,1058.624z M224.832,1198.702l86.31-45.889l-13.844-26.036l18.986-10.096l36.711,69.043
		l-18.986,10.097l-13.308-25.03l-86.309,45.891L224.832,1198.702z M332.032,1243.722l16.626,20.533
		c2.614,3.229,5.869,4.786,9.796,4.677c3.913-0.129,7.431-1.438,10.513-3.933c2.996-2.427,4.817-5.439,5.47-9.077
		c0.668-3.618-0.353-7.122-3.069-10.478l-16.422-20.279L332.032,1243.722z M265.075,1271.317l92.679-75.047l34.877,43.068
		c2.373,2.932,3.907,6.163,4.634,9.695c0.747,3.554,0.704,7.083-0.097,10.665c-0.818,3.563-2.281,7.02-4.446,10.346
		c-2.165,3.323-4.848,6.265-8.077,8.879c-4.515,3.656-9.662,6.146-15.478,7.467c-5.813,1.321-11.76,1.139-17.914-0.551
		c0.544,1.445,0.785,3.173,0.722,5.248c-0.066,2.081-0.62,4.241-1.613,6.51c-1.006,2.251-2.546,4.232-4.677,5.957l-20.03,17.724
		c-1.964,1.585-3.376,3.293-4.23,5.173c-0.833,1.862-1.021,3.094-0.543,3.687l-4.937,3.999l-13.653-16.859
		c3.91-6.174,9.469-12.422,16.717-18.748c1.974-1.315,4.616-3.314,7.886-5.965c2.681-2.17,4.479-4.045,5.458-5.604
		c0.953-1.54,1.107-3.376,0.437-5.455c-0.653-2.058-2.335-4.781-5.036-8.117l-12.815-15.825l-36.846,29.837L265.075,1271.317z
		 M391.302,1350.693l17.02,15.869l21.217-39.949L391.302,1350.693z M335.366,1359.756l105.876-64.328l17.876,16.666l-55.934,110.897
		l-16.084-14.997l11.026-23.092l-25.36-23.647l-21.313,13.498L335.366,1359.756z M438.76,1448.207l56.066-80.07l-24.153-16.912
		l12.334-17.617l64.059,44.853l-12.334,17.616l-23.221-16.258l-56.068,80.07L438.76,1448.207z M507.679,1495.324l52.278-107.183
		l64.574,31.493l-9.426,19.329l-44.953-21.925l-10.785,22.11l41.439,20.21l-9.642,19.769l-41.439-20.21l-12.782,26.209
		l47.296,23.068l-9.642,19.766L507.679,1495.324z M340.584,501.071l-58.706-45.865l12.05-15.421l61.19,47.809
		c4.792,3.742,9.558,5.313,14.319,4.729c4.756-0.62,8.584-2.765,11.458-6.443c2.909-3.722,4.08-7.973,3.532-12.738
		c-0.569-4.784-3.232-9.05-8.021-12.792l-61.193-47.807l12.835-16.428l58.703,45.863c7.322,5.719,12.559,12.027,15.632,18.899
		c3.095,6.888,4.185,13.633,3.28,20.213c-0.917,6.601-3.379,12.459-7.375,17.581c-2.894,3.701-6.425,6.735-10.647,9.134
		c-4.223,2.393-8.913,3.863-14.055,4.382c-5.14,0.521-10.534-0.119-16.184-1.918C351.755,508.473,346.135,505.406,340.584,501.071z
		 M439.39,444.178l-76.685-85.166l14.778-13.303l80.311,32.144l-51.942-57.689l14.542-13.094l76.685,85.167l-14.545,13.094
		l-81.149-33.076l52.781,58.617L439.39,444.178z M521.853,375.892l-67.364-92.714l16.087-11.684l67.361,92.711L521.853,375.892z
		 M582.805,338.158l-44.103-82.935l-25.02,13.302l-9.703-18.249L570.333,215l9.702,18.244l-24.052,12.79l44.1,82.938
		L582.805,338.158z M649.831,306.571L612.52,198.214l65.283-22.477l6.725,19.537l-45.443,15.65l7.695,22.352l41.895-14.426
		l6.88,19.984l-41.895,14.426l9.126,26.493l47.814-16.46l6.88,19.982L649.831,306.571z M761.523,254.989l17.362-2.441
		c4.316-0.605,7.797-2.833,10.439-6.712c2.622-3.846,4.344-8.646,5.17-14.4c0.8-5.752,0.772-11.755-0.114-18.062
		c-0.915-6.509-2.538-12.446-4.906-17.832c-2.363-5.386-5.348-9.576-8.958-12.576c-3.61-2.995-7.599-4.202-11.916-3.592
		l-17.362,2.439L761.523,254.989z M745.083,278.64l-15.947-113.483l39.402-5.536c6.229-0.876,12.001-0.106,17.299,2.337
		c5.3,2.444,9.918,6.09,13.902,10.983c3.956,4.898,7.241,10.655,9.804,17.251c2.581,6.567,4.38,13.559,5.414,20.927
		c1.019,7.233,1.207,14.375,0.528,21.372c-0.673,7.025-2.249,13.437-4.728,19.214c-2.457,5.775-5.922,10.556-10.368,14.367
		c-4.444,3.813-9.751,6.168-15.902,7.032L745.083,278.64z M906.512,230.94l19.743,2.774c-0.874,6.202,0.361,11.118,3.697,14.748
		c3.363,3.636,7.693,5.826,13.043,6.575c6.819,0.96,11.896,0.46,15.229-1.494c3.308-1.986,5.462-5.32,6.463-10
		c0.427-3.051-0.145-5.714-1.72-7.99c-1.552-2.299-3.676-4.232-6.326-5.815c-2.645-1.611-6.494-3.471-11.514-5.623
		c-5.051-2.134-8.201-3.526-9.517-4.105c-5.516-2.541-10.007-5.647-13.485-9.403c-3.483-3.732-5.889-7.787-7.203-12.134
		c-1.309-4.373-1.636-8.793-1.006-13.265c0.815-4.68,2.345-8.996,4.561-12.954c2.215-3.958,5.14-7.312,8.737-10.048
		c3.603-2.762,7.904-4.688,12.863-5.833c4.982-1.146,10.589-1.281,16.813-0.404c12.906,2.101,21.387,6.827,25.386,14.187
		c4.021,7.36,5.279,16.42,3.763,27.22l-18.168-2.553c0.849-6.019-0.373-10.645-3.684-13.905c-3.288-3.227-7.591-5.229-12.914-5.978
		c-10.388-1.458-16.415,1.489-18.002,8.854c-0.508,3.618,0.374,6.903,2.667,9.886c2.297,2.985,6.356,5.77,12.165,8.323
		c9.057,3.989,16.265,8.005,21.643,12.108c5.355,4.073,9.154,8.742,11.344,13.976c2.216,5.239,2.83,11.359,1.85,18.335
		c-1.22,6.417-3.641,12.032-7.294,16.842c-3.653,4.809-8.546,8.31-14.733,10.523s-13.48,2.744-21.879,1.563
		c-4.187-0.587-8.344-1.936-12.505-4.022c-4.159-2.088-7.962-5.018-11.39-8.77c-3.425-3.747-5.948-8.29-7.568-13.63
		C905.951,243.562,905.583,237.556,906.512,230.94z M1025.659,288.642l27.461-89.826l-27.098-8.285l6.041-19.761l71.887,21.979
		l-6.039,19.761l-26.077-7.972l-27.461,89.825L1025.659,288.642z M1129.211,280.126l20.267,9.451l7.527-42.814L1129.211,280.126z
		 M1080.779,305.019l77.664-90.234l21.282,9.926l-18.188,117.968l-19.153-8.933l3.222-24.379l-30.2-14.083l-15.47,18.668
		L1080.779,305.019z M1190.147,361.902l51.162-78.778l-23.767-15.432l11.255-17.332l63.026,40.929l-11.257,17.329l-22.846-14.834
		l-51.162,78.779L1190.147,361.902z M1249.991,404.306l79.609-82.438l49.666,47.959l-14.356,14.867l-34.575-33.386l-16.423,17.004
		l31.875,30.777l-14.685,15.202l-31.872-30.776l-19.466,20.157l36.376,35.129l-14.683,15.203L1249.991,404.306z M1344.521,447.084
		l12.273,15.706c-4.934,3.856-7.464,8.249-7.586,13.178c-0.104,4.952,1.489,9.535,4.814,13.791c4.24,5.427,8.239,8.595,11.994,9.501
		c3.76,0.872,7.624-0.03,11.596-2.7c2.426-1.897,3.864-4.212,4.311-6.943c0.483-2.731,0.298-5.597-0.508-8.58
		c-0.785-2.992-2.261-7.004-4.377-12.04c-2.149-5.043-3.45-8.233-3.994-9.564c-2.203-5.661-3.274-11.017-3.168-16.133
		c0.089-5.102,1.171-9.69,3.247-13.729c2.099-4.055,4.934-7.46,8.487-10.239c3.842-2.802,7.939-4.845,12.281-6.153
		c4.343-1.306,8.778-1.691,13.268-1.155c4.51,0.513,8.942,2.118,13.303,4.735c4.38,2.637,8.506,6.436,12.378,11.39
		c7.824,10.478,10.64,19.766,8.404,27.837c-2.221,8.095-7.607,15.48-16.204,22.197l-11.291-14.456
		c4.792-3.744,7.124-7.916,7.008-12.561c-0.122-4.606-1.83-9.037-5.138-13.272c-6.458-8.267-12.84-10.332-19.1-6.138
		c-2.879,2.248-4.527,5.226-4.949,8.969c-0.422,3.739,0.566,8.562,2.967,14.436c3.748,9.158,6.141,17.055,7.162,23.741
		c1.021,6.649,0.511,12.65-1.552,17.935c-2.046,5.305-5.854,10.137-11.407,14.474c-5.333,3.771-10.976,6.125-16.943,7.048
		c-5.971,0.922-11.924,0.043-17.911-2.665c-5.988-2.703-11.604-7.391-16.824-14.072c-2.602-3.331-4.654-7.19-6.199-11.58
		c-1.545-4.391-2.243-9.144-2.104-14.22c0.143-5.076,1.483-10.097,4.026-15.063C1335.35,455.771,1339.258,451.194,1344.521,447.084z
		"/>
	<path fill-rule="evenodd" clip-rule="evenodd" fill="#ABABA6" d="M1403.283,585.173l33.348-4.237l7.657-34.954l14.654,31.436
		l34.115-3.824l-25.05,23.26l14.807,31.744l-31.585-16.287l-24.41,22.483l6.392-33.129L1403.283,585.173z M1443.928,682.777
		l33.581,1.616l13.607-33.091l8.979,33.502l34.258,2.155l-28.709,18.559l9.065,33.833l-28.272-21.526l-27.946,17.906l12.053-31.519
		L1443.928,682.777z M1467.012,785.959l32.789,7.421l19.146-30.228l3.023,34.552l33.363,8.074l-31.493,13.29l3.054,34.895
		l-24.11-26.109l-30.63,12.781l17.343-28.947L1467.012,785.959z M1471.823,891.577l31.006,13.005l24.1-26.445l-3.023,34.555
		l31.458,13.742l-33.322,7.619l-3.059,34.896l-19.207-29.9l-32.378,7.269l22.099-25.495L1471.823,891.577z M259.74,840.968
		l-31-13.005l-24.105,26.445l3.023-34.555l-31.453-13.742l33.323-7.619l3.054-34.896l19.207,29.9l32.38-7.269l-22.101,25.495
		L259.74,840.968z M273.344,736.117l-28.274-18.19l-28.333,21.856l8.979-33.502l-28.587-18.996l34.136-1.721l9.067-33.83
		l13.724,32.776l33.15-1.535l-26.191,21.271L273.344,736.117z M304.944,635.221l-24.685-22.822l-31.696,16.605l14.659-31.438
		l-24.857-23.671l33.922,4.235l14.801-31.745l7.823,34.664l32.916,4.248l-29.489,16.396L304.944,635.221z M264.554,946.586
		l-32.789-7.421l-19.146,30.228l-3.023-34.555l-33.363-8.071l31.494-13.292l-3.051-34.893l24.105,26.109l30.629-12.782
		l-17.339,28.945L264.554,946.586z"/>
	
		<path fill="none" stroke="#58595B" stroke-width="2.6583" stroke-linecap="round" stroke-linejoin="round" stroke-miterlimit="2.6131" d="
		M861.531,887.158c7.142,0.125,17.179-1.336,20.708-6.173c4.261,1.077,22.271-3.997,24.723-6.537
		c4.029,2.789,13.849-3.826,17.154-8.994c2.38,4.329,10.554,23.536,16.727,25.973c2.505,4.729,12.967,13.796,18.369,15.267
		c-14.026,14.299-2.853,34.443-1.563,37.273c0.417,2.421-8.051,14.283-6.844,27.299c0.188,2.05,1.417,3.94,2.475,6.09
		c0.826,1.669,1.544,3.495,1.59,5.673c-0.851,8.206,6.776,27.464,11.74,35.822c0.917,1.547,2.49,2.97,3.092,3.61
		c1.755,1.999-1.136,22.929,6.047,30.121c-2.051,2.17-5.445,6.418-5.323,12.568c-4.825-4.461-20.5-7.477-24.964-5.787
		c-1.085-5.668-13.748-15.314-20.983-13.747c3.859-4.464,2.292-25.566-4.703-27.495c8.079-3.138,10.731-35.215,2.533-39.796
		c8.364-0.365,11.054-40.342,5.424-44.138c5.549-5.186,2.05-35.695-7.957-36.176c-6.392-0.241-23.999,0.242-28.221,2.17
		C887.697,895.479,872.263,895.118,861.531,887.158z"/>
	
		<path fill="none" stroke="#6D6E70" stroke-width="1.8609" stroke-linecap="round" stroke-linejoin="round" stroke-miterlimit="2.6131" d="
		M1091.311,1306.954l2.891-1.991 M1087.667,1302.775l5.785-3.837 M1084.9,1298.575c1.458-0.579,6.667-4.009,7.965-5.075
		 M1082.296,1294.663c2.571-1.146,7.592-4.278,9.711-5.856 M1079.845,1291.045c3.666-1.902,8.899-5.357,12.459-7.7
		 M1076.793,1287.148c6.319-3.339,15.341-9.131,20.856-13.232 M1073.739,1282.953c9.441-4.867,18.501-11.153,27.497-17.977"/>
</g>
</svg>
